<?xml version="1.0" encoding="utf-8"?>
<!-- Generator: Adobe Illustrator 25.2.0, SVG Export Plug-In . SVG Version: 6.00 Build 0)  -->
<svg version="1.1" id="Layer_1" xmlns:v="https://vecta.io/nano"
	 xmlns="http://www.w3.org/2000/svg" xmlns:xlink="http://www.w3.org/1999/xlink" x="0px" y="0px" viewBox="0 0 48 48"
	 style="enable-background:new 0 0 48 48;" xml:space="preserve">
<style type="text/css">
	.st0{fill:url(#SVGID_1_);}
</style>
<linearGradient id="SVGID_1_" gradientUnits="userSpaceOnUse" x1="-9.094947e-13" y1="23.732" x2="48" y2="23.732">
	<stop  offset="0" style="stop-color:#6366F1"/>
	<stop  offset="0.5" style="stop-color:#8B5CF6"/>
	<stop  offset="1" style="stop-color:#D946EF"/>
</linearGradient>
<path class="st0" d="M24,41.3c-5.9,0-11.7,0-17.6,0c-3.2,0-5.8-2.2-6.3-5.3C0,35.2,0,34.5,0,33.7c0-0.5,0.4-0.8,0.9-0.8
	c0.7,0,1.4,0,2.1,0c0.4,0,0.5-0.1,0.5-0.5c0-7.5,0-15,0-22.5c0-1.8,0.9-3,2.4-3.6c0.4-0.1,0.8-0.2,1.2-0.2c11.2,0,22.4,0,33.5,0
	c2.1,0,3.6,1.5,3.6,3.6c0,7.5,0,15,0,22.5c0,0.5,0.1,0.7,0.6,0.6c0.7-0.1,1.4,0,2.2,0c0.5,0,0.9,0.2,0.9,0.7c0.2,2-0.1,3.8-1.5,5.4
	c-1.3,1.5-2.9,2.2-4.9,2.2C35.7,41.3,29.8,41.3,24,41.3z M23.9,15c-6,0-12.1,0-18.1,0c-0.5,0-0.6,0.1-0.6,0.6c0,5.6,0,11.2,0,16.9
	c0,0.5,0.1,0.6,0.6,0.6c3.6,0,7.2,0,10.7,0c0.7,0,1,0.2,1.1,0.9c0.1,0.9,0.7,1.4,1.6,1.4c0.7,0,1.4,0,2.1,0c2.5,0,4.9,0,7.4,0
	c0.9,0,1.5-0.5,1.6-1.3c0.1-0.9,0.3-1.1,1.2-1.1c3.5,0,6.9,0,10.4,0c0.5,0,0.6-0.1,0.6-0.6c0-5.6,0-11.2,0-16.8
	c0-0.5-0.2-0.6-0.6-0.6C36,15,29.9,15,23.9,15z M24,39.6c5.7,0,11.5,0,17.2,0c0.4,0,0.8,0,1.2-0.1c2.2-0.3,4-2.3,4-4.6
	c0-0.3-0.1-0.4-0.4-0.4c-0.6,0-1.3,0-1.9,0c-3.9,0-7.7,0-11.6,0c-0.2,0-0.5-0.1-0.6,0.3c-0.6,1.4-1.7,2.1-3.2,2.1c-1.3,0-2.6,0-4,0
	c-1.8,0-3.7,0-5.5,0c-1.4,0-2.4-0.6-3-1.9c-0.2-0.4-0.4-0.5-0.8-0.5c-4.1,0-8.3,0-12.4,0c-1.5,0-1.6,0.1-1.1,1.6
	c0.6,2.1,2.4,3.4,4.8,3.4C12.4,39.6,18.2,39.6,24,39.6z M23.9,13.3c5.6,0,11.1,0,16.7,0c0.6,0,1.2,0,1.7,0c0.2,0,0.3,0,0.3-0.2
	c0-1.2,0-2.5,0-3.7c-0.1-1-0.9-1.6-2.1-1.6c-11,0-22,0-33,0c-0.1,0-0.3,0-0.4,0C5.9,7.9,5.2,8.6,5.2,9.7c0,1,0,2.1,0,3.1
	c0,0.4,0.1,0.5,0.5,0.5C11.8,13.3,17.8,13.3,23.9,13.3z M22.1,30.4c0.6,0.1,1.2-0.3,1.4-1c0.9-3.2,1.9-6.4,2.8-9.5
	c0.1-0.3,0.1-0.5,0-0.8c-0.2-0.6-0.6-0.9-1.2-0.9c-0.7,0-1,0.5-1.2,1.1c-0.7,2.5-1.4,4.9-2.2,7.4c-0.2,0.8-0.5,1.6-0.7,2.2
	C21.1,29.8,21.5,30.3,22.1,30.4z M20,26.4c-0.4-0.4-0.7-0.7-1.1-1.1c-1.2-1.2-1.2-1.2,0-2.4c0.4-0.4,0.7-0.7,1.1-1.1
	c0.6-0.6,0.6-1.3,0.1-1.8c-0.5-0.5-1.2-0.5-1.8,0c-1.1,1-2.1,2.1-3.2,3.2c-0.5,0.5-0.6,1.1-0.1,1.7c1.1,1.2,2.3,2.3,3.4,3.4
	c0.4,0.3,0.8,0.3,1.3,0.1c0.5-0.2,0.7-0.6,0.7-1.1C20.5,27,20.3,26.7,20,26.4z M27.5,20.4c-0.2,0.5-0.2,0.9,0.2,1.3
	c0.6,0.7,1.3,1.4,2,2c0.4,0.3,0.3,0.6,0,0.9c-0.6,0.6-1.2,1.2-1.8,1.8c-0.6,0.6-0.6,1.3-0.1,1.8c0.5,0.5,1.2,0.5,1.8-0.1
	c1-1,2.1-2,3.1-3.1c0.6-0.7,0.6-1.3,0-2c-1-1-2-2-3-3c-0.3-0.3-0.6-0.5-0.9-0.5C28.1,19.7,27.8,19.9,27.5,20.4z M37.7,11.4
	c0.4,0,0.7,0,1.1,0c0.4,0,0.7-0.3,0.7-0.7c0.1-0.4-0.1-0.7-0.5-0.9c-0.1-0.1-0.3-0.1-0.5-0.1c-6,0-11.9,0-17.9,0c-0.1,0-0.2,0-0.3,0
	c-0.4,0.1-0.6,0.4-0.6,0.8c0,0.4,0.3,0.7,0.7,0.8c0.2,0,0.4,0,0.5,0c2.9,0,5.8,0,8.7,0C32.3,11.4,35,11.4,37.7,11.4z M7.5,10.5
	c0,0.4,0.4,0.8,0.8,0.8c0.5,0,0.8-0.3,0.8-0.8c0-0.5-0.4-0.8-0.8-0.8C7.9,9.7,7.5,10.1,7.5,10.5z M11.7,9.7c-0.5,0-0.8,0.4-0.8,0.8
	c0,0.5,0.3,0.8,0.8,0.8c0.5,0,0.8-0.4,0.8-0.8C12.5,10.1,12.2,9.7,11.7,9.7z M15.9,10.6c0-0.5-0.3-0.8-0.8-0.8
	c-0.5,0-0.8,0.3-0.8,0.8c0,0.5,0.3,0.8,0.8,0.8C15.5,11.4,15.9,11,15.9,10.6z"/>
</svg>
