<?xml version="1.0" encoding="utf-8"?>
<!-- Generator: Adobe Illustrator 25.2.0, SVG Export Plug-In . SVG Version: 6.00 Build 0)  -->
<svg version="1.1" id="Layer_1" xmlns:v="https://vecta.io/nano"
	 xmlns="http://www.w3.org/2000/svg" xmlns:xlink="http://www.w3.org/1999/xlink" x="0px" y="0px" viewBox="0 0 48 48"
	 style="enable-background:new 0 0 48 48;" xml:space="preserve">
<style type="text/css">
	.st0{fill:url(#SVGID_1_);}
</style>
<linearGradient id="SVGID_1_" gradientUnits="userSpaceOnUse" x1="-2.728484e-12" y1="24" x2="48" y2="24">
	<stop  offset="0" style="stop-color:#6366F1"/>
	<stop  offset="0.5" style="stop-color:#8B5CF6"/>
	<stop  offset="1" style="stop-color:#D946EF"/>
</linearGradient>
<path class="st0" d="M0,36.6c0.3-0.2,0.5-0.5,0.8-0.6c0.3-0.1,0.7,0,1.1,0c0-0.2,0-0.4,0-0.6c0-8.3,0-16.7,0-25
	c0-2.4,1.5-4.3,3.8-4.8C6,5.5,6.4,5.5,6.8,5.5c4.2,0,8.4,0,12.7,0c0.1,0,0.2,0,0.3,0c0.6,0,0.9,0.4,0.9,0.9c0,0.5-0.3,0.9-0.9,0.9
	c-0.2,0-0.3,0-0.5,0c-4.1,0-8.3,0-12.4,0c-2,0-3.1,1.1-3.1,3.1c0,8.3,0,16.6,0,24.9c0,0.2,0,0.3,0,0.5c13.5,0,27,0,40.5,0
	c0-0.2,0-0.4,0-0.5c0-8.3,0-16.6,0-24.9c0-1.7-1.2-3.2-3.2-3.2c-4.1,0.1-8.2,0-12.4,0c-0.2,0-0.5,0-0.7,0c-0.4-0.1-0.7-0.5-0.7-0.9
	c0-0.4,0.3-0.8,0.8-0.9c0.2,0,0.3,0,0.5,0c4.2,0,8.4,0,12.6,0c2.9,0,4.9,2,4.9,4.9c0,8.3,0,16.6,0,24.9c0,0.2,0,0.4,0,0.6
	c0.3,0,0.6,0,0.9,0c0.7,0,1,0.4,1,1c0,1.5,0,3,0,4.5c0,0.6-0.3,1-1,1c-0.1,0-0.3,0-0.4,0c-15.1,0-30.2,0-45.2,0
	c-0.6,0-1.1-0.1-1.4-0.7C0,40.1,0,38.3,0,36.6z M46.1,37.9c-14.8,0-29.5,0-44.2,0c0,0.9,0,1.8,0,2.7c14.8,0,29.5,0,44.2,0
	C46.1,39.7,46.1,38.8,46.1,37.9z M26.5,25.7c-0.4,0.6-0.8,1.1-1.2,1.7c-0.1,0.1-0.1,0.3,0,0.4c0.4,0.6,0.8,1.1,1.1,1.5
	c0.7-0.3,1.3-0.6,1.9-0.7c1.2-0.2,2.2,0.4,2.8,1.5c0.1,0.3,0.3,0.4,0.6,0.4c1.1,0,2.1,0,3.2,0c0.3,0,0.5-0.1,0.6-0.4
	c0.6-1.2,1.9-1.8,3.2-1.4c1.2,0.3,2.1,1.4,2.1,2.7c0,1.3-0.8,2.4-2.1,2.8c-1.3,0.4-2.6-0.2-3.2-1.4c-0.1-0.3-0.3-0.4-0.6-0.4
	c-1.1,0-2.2,0-3.2,0c-0.3,0-0.4,0-0.5,0.3c-0.6,1.1-1.7,1.7-2.9,1.5c-1.1-0.1-2-1-2.3-2.2c0-0.1-0.1-0.3-0.2-0.4
	c-0.5-0.7-1-1.4-1.6-2.1c-0.1-0.1-0.1-0.1-0.2-0.3c-0.4,0.5-0.8,1.1-1.2,1.6c-0.4,0.5-0.7,1-0.9,1.6c-0.4,1.2-1.5,1.9-2.7,1.8
	c-1.2,0-2.3-0.9-2.6-2.1c-0.1-0.2-0.2-0.4-0.3-0.6c-1.6-1.6-3.2-3.2-4.8-4.8c-0.2-0.2-0.4-0.3-0.7-0.2c-1.2,0.4-2.4,0-3.1-1
	c-0.7-1-0.7-2.3,0-3.3c0.7-1,2-1.4,3.1-1c0.3,0.1,0.5,0,0.7-0.2c1.6-1.6,3.2-3.2,4.8-4.8c0.2-0.2,0.3-0.4,0.3-0.6
	c0.4-1.2,1.5-2.1,2.8-2.1c1.3,0,2.4,0.9,2.7,2.1c0.1,0.2,0.2,0.4,0.3,0.6c0.5,0.7,1.1,1.4,1.7,2.2c0.6-1.1,1.6-1.9,2-3.1
	c0.4-1.1,1.2-1.8,2.4-1.9c1.2-0.1,2.1,0.4,2.7,1.5c0.2,0.3,0.3,0.4,0.7,0.4c1,0,2.1,0,3.1,0c0.3,0,0.5-0.1,0.6-0.4
	c0.6-1.2,1.9-1.8,3.2-1.4c1.2,0.3,2.1,1.4,2.1,2.6c0,1.3-0.8,2.4-2.1,2.8c-1.3,0.4-2.6-0.2-3.2-1.4c-0.1-0.3-0.3-0.4-0.6-0.4
	c-1.1,0-2.2,0-3.3,0c-0.2,0-0.4,0.1-0.5,0.3c-1,1.8-3,2.1-4.5,0.8c0,0-0.1-0.1-0.2-0.1c-0.4,0.6-0.9,1.1-1.3,1.7c0,0.1,0,0.2,0,0.3
	c0.4,0.6,0.8,1.1,1.2,1.5c0.7-0.3,1.3-0.6,1.9-0.7c1.2-0.2,2.2,0.4,2.8,1.5c0.1,0.3,0.3,0.4,0.6,0.4c1.1,0,2.1,0,3.2,0
	c0.3,0,0.5-0.1,0.6-0.4c0.6-1.2,1.9-1.8,3.2-1.4c1.2,0.3,2.1,1.4,2.1,2.7c0,1.3-0.8,2.4-2.1,2.8c-1.3,0.4-2.6-0.2-3.2-1.4
	c-0.1-0.3-0.3-0.4-0.6-0.4c-1.1,0-2.2,0-3.3,0c-0.2,0-0.4,0.1-0.4,0.2C30.4,26.7,28,27.1,26.5,25.7C26.6,25.7,26.6,25.7,26.5,25.7z
	 M17,18c-1.5,1.5-2.9,2.9-4.4,4.4c-0.1,0.1-0.1,0.3-0.1,0.3c0.1,0.1,0.2,0.1,0.3,0.1c1.1,0,2.2,0,3.3,0c0.3,0,0.5-0.1,0.6-0.4
	c0.6-1.1,1.5-1.6,2.7-1.5c0.7,0,1.3,0.4,1.9,0.9c0.4-0.6,0.9-1.1,1.3-1.7c0.1-0.1,0.1-0.3,0-0.3c-0.4-0.6-0.8-1.1-1.3-1.7
	C20,19.5,18.3,19.3,17,18z M17,29.5c1.1-1.2,2.8-1.6,4.4-0.2c0.5-0.6,0.9-1.2,1.4-1.9c-0.5-0.6-0.9-1.2-1.4-1.8c-0.1,0-0.1,0-0.1,0
	c-1.3,1.4-3.8,1-4.6-0.8c0-0.1-0.2-0.2-0.4-0.2c-1.2,0-2.3,0-3.5,0c-0.1,0-0.3,0.1-0.3,0.1c0,0.1,0,0.2,0.1,0.3
	C14.1,26.6,15.6,28.1,17,29.5z M24,25.9c0.6-0.8,1.1-1.5,1.6-2.2c-0.5-0.7-1.1-1.4-1.6-2.2c-0.6,0.8-1.1,1.5-1.6,2.2
	C22.9,24.5,23.4,25.2,24,25.9z M19.3,15.3c-0.5,0-0.9,0.4-0.9,0.9c0,0.5,0.4,0.9,0.9,0.9c0.5,0,1-0.4,1-0.9
	C20.2,15.7,19.8,15.3,19.3,15.3z M29.6,16.3c0-0.5-0.4-0.9-0.9-0.9c-0.5,0-0.9,0.4-1,0.9c0,0.5,0.4,1,0.9,1
	C29.2,17.2,29.6,16.8,29.6,16.3z M39,16.3c0-0.5-0.4-0.9-0.9-0.9c-0.5,0-0.9,0.4-0.9,0.9c0,0.5,0.4,1,1,0.9
	C38.6,17.2,39,16.8,39,16.3z M9.9,24.7c0.5,0,0.9-0.4,1-0.9c0-0.5-0.4-0.9-0.9-1c-0.5,0-1,0.4-1,0.9C9,24.3,9.4,24.7,9.9,24.7z
	 M20.2,23.8c0-0.5-0.4-0.9-0.9-0.9c-0.5,0-0.9,0.4-1,0.9c0,0.5,0.4,1,0.9,1C19.8,24.7,20.2,24.3,20.2,23.8z M29.6,23.8
	c0-0.5-0.4-0.9-0.9-0.9c-0.5,0-0.9,0.4-1,0.9c0,0.5,0.4,1,0.9,1C29.2,24.7,29.6,24.3,29.6,23.8z M38.1,24.7c0.5,0,0.9-0.4,0.9-0.9
	c0-0.5-0.4-0.9-0.9-0.9c-0.5,0-1,0.4-0.9,0.9C37.1,24.3,37.6,24.7,38.1,24.7z M19.3,30.3c-0.5,0-0.9,0.4-0.9,0.9
	c0,0.5,0.4,0.9,0.9,0.9c0.5,0,1-0.4,0.9-1C20.2,30.7,19.8,30.3,19.3,30.3z M29.6,31.2c0-0.5-0.4-0.9-0.9-0.9c-0.5,0-0.9,0.4-0.9,0.9
	c0,0.5,0.4,0.9,1,0.9C29.2,32.2,29.6,31.7,29.6,31.2z M39,31.3c0-0.5-0.4-0.9-0.9-0.9c-0.5,0-0.9,0.4-1,0.9c0,0.5,0.4,1,0.9,1
	C38.6,32.2,39,31.8,39,31.3z M21.3,9.7c-0.7,0-1.1,0.4-1.1,0.9c0,0.6,0.4,0.9,1.1,0.9c1.8,0,3.6,0,5.4,0c0.7,0,1.1-0.4,1.1-1
	c0-0.6-0.4-0.9-1.1-0.9c-0.9,0-1.8,0-2.7,0C23.1,9.7,22.2,9.7,21.3,9.7z M8.2,13.5c-0.7,0-1.1,0.4-1.1,0.9c0,0.6,0.4,0.9,1.1,0.9
	c1.8,0,3.6,0,5.4,0c0.7,0,1.1-0.4,1.1-1c0-0.6-0.4-0.9-1.1-0.9c-0.9,0-1.8,0-2.7,0C10,13.5,9.1,13.4,8.2,13.5z M8.2,32.2
	c-0.7,0-1.1,0.4-1.1,0.9c0,0.6,0.4,0.9,1.1,0.9c1.8,0,3.6,0,5.4,0c0.7,0,1.1-0.4,1.1-0.9c0-0.6-0.4-0.9-1.1-0.9c-0.9,0-1.7,0-2.6,0
	C10,32.2,9.1,32.2,8.2,32.2z M9,17.2c-0.3,0-0.6,0-0.9,0c0,0-0.1,0-0.1,0c-0.5,0.1-0.8,0.4-0.9,0.9c0,0.5,0.3,0.9,0.8,0.9
	c0.7,0,1.4,0,2.2,0c0.5,0,0.8-0.5,0.8-0.9c0-0.5-0.4-0.8-0.9-0.9C9.7,17.2,9.4,17.2,9,17.2C9,17.2,9,17.2,9,17.2z M24,5.5
	c-0.5,0-1,0.4-1,0.9c0,0.5,0.4,0.9,0.9,0.9c0.5,0,0.9-0.4,0.9-0.9C24.9,5.9,24.6,5.5,24,5.5z"/>
</svg>
