<?xml version="1.0" encoding="utf-8"?>
<!-- Generator: Adobe Illustrator 25.2.0, SVG Export Plug-In . SVG Version: 6.00 Build 0)  -->
<svg version="1.1" id="Layer_1" xmlns:v="https://vecta.io/nano"
	 xmlns="http://www.w3.org/2000/svg" xmlns:xlink="http://www.w3.org/1999/xlink" x="0px" y="0px" viewBox="0 0 175 48"
	 style="enable-background:new 0 0 175 48;" xml:space="preserve">
<style type="text/css">
	.st0{display:none;fill:url(#SVGID_1_);}
	.st1{fill:url(#SVGID_2_);}
</style>
<linearGradient id="SVGID_1_" gradientUnits="userSpaceOnUse" x1="-6.596936e-02" y1="1973.95" x2="47.934" y2="1973.95" gradientTransform="matrix(1 0 0 1 0 -1950)">
	<stop  offset="0" style="stop-color:#6366F1"/>
	<stop  offset="0.5" style="stop-color:#8B5CF6"/>
	<stop  offset="1" style="stop-color:#D946EF"/>
</linearGradient>
<path class="st0" d="M0,6.3c0.3-0.9,0.8-1.5,1.8-1.7c0.2,0,0.4-0.1,0.7-0.1c14.4,0,28.7,0,43.1,0c1.5,0,2.4,0.9,2.4,2.4
	c0,8.9,0,17.8,0,26.7c0,1.5-0.9,2.4-2.4,2.4c-0.7,0-1.3,0-2.1,0c0,0.2,0,0.4,0,0.5c0,1.5,0,3,0,4.5s-0.9,2.4-2.4,2.4
	c-3.4,0-6.8,0-10.2,0c-1.4,0-2.4-0.9-2.4-2.4c0-1.7,0-3.4,0-5.1c-0.2,0-0.4,0-0.6,0c-8.4,0-16.7,0-25.1,0c-1.4,0-2.4-0.4-2.9-1.8
	C0,24.9,0,15.6,0,6.3z M1.5,12c0,0.1,0,0.2,0,0.3c0,7.1,0,14.2,0,21.3c0,0.7,0.3,0.9,1,0.9c8.5,0,17,0,25.4,0c0.2,0,0.3,0,0.5,0
	c0-0.3,0-0.4,0-0.6c0-4.4,0-8.9,0-13.3c0-1.7,0.9-2.6,2.6-2.6c3.3,0,6.6,0,9.8,0c1.7,0,2.6,0.9,2.6,2.6c0,4.5,0,8.9,0,13.4
	c0,0.2,0,0.4,0,0.5c0.1,0,0.1,0,0.1,0c0.6,0,1.2,0,1.8,0c0.9,0,1.1-0.2,1.1-1.1c0-7,0-13.9,0-20.9c0-0.2,0-0.3,0-0.5
	C31.5,12,16.5,12,1.5,12z M1.5,10.5c15,0,30,0,45,0c0-1.1,0-2.2,0-3.3c0-1-0.2-1.2-1.1-1.2C31.2,6,16.9,6,2.7,6C2.6,6,2.4,6,2.3,6
	C1.9,6,1.6,6.3,1.6,6.7C1.5,8,1.5,9.2,1.5,10.5z M42,30.7c0-3.4,0-6.8,0-10.2c0-0.8-0.2-1-1-1c-3.3,0-6.6,0-9.9,0c-0.8,0-1,0.2-1,1
	c0,6.8,0,13.6,0,20.4c0,0.8,0.2,1,1,1c3.3,0,6.6,0,9.9,0c0.9,0,1.1-0.2,1.1-1.1C42,37.5,42,34.1,42,30.7z M12.7,26.2
	c-2.4,0-4.8,0-7.2,0c-0.8,0-1-0.2-1-1c0-3.3,0-6.7,0-10c0-0.7,0.2-1,1-1c4.8,0,9.7,0,14.5,0c0.7,0,1,0.2,1,1c0,3.3,0,6.7,0,10
	c0,0.8-0.2,1-1,1C17.6,26.2,15.1,26.2,12.7,26.2z M19.5,15.8c-4.5,0-9,0-13.4,0c0,3,0,6,0,8.9c4.5,0,9,0,13.4,0
	C19.5,21.7,19.5,18.8,19.5,15.8z M8.2,32.2c-0.9,0-1.9,0-2.8,0c-0.6,0-0.9-0.3-0.9-0.9c0-0.9,0-1.8,0-2.7c0-0.6,0.3-0.9,0.9-0.9
	c1.9,0,3.8,0,5.7,0c0.6,0,0.9,0.3,0.9,0.9c0,0.9,0,1.8,0,2.7c0,0.6-0.3,0.9-0.9,0.9C10.1,32.2,9.2,32.2,8.2,32.2z M10.5,29.3
	c-1.5,0-3,0-4.4,0c0,0.5,0,1,0,1.4c1.5,0,3,0,4.4,0C10.5,30.2,10.5,29.8,10.5,29.3z M17.2,32.2c-0.9,0-1.9,0-2.8,0
	c-0.6,0-0.9-0.3-0.9-0.9c0-0.9,0-1.8,0-2.7c0-0.6,0.3-0.9,0.9-0.9c1.9,0,3.8,0,5.7,0c0.6,0,0.9,0.3,0.9,0.9c0,0.9,0,1.8,0,2.7
	c0,0.6-0.3,0.9-0.9,0.9C19.1,32.2,18.2,32.2,17.2,32.2z M19.5,30.7c0-0.5,0-1,0-1.5c-1.5,0-3,0-4.4,0c0,0.5,0,1,0,1.5
	C16.5,30.7,18,30.7,19.5,30.7z M23.4,15c-0.6,0-0.9,0.3-0.9,0.7c0,0.5,0.3,0.7,0.9,0.8c2.6,0,5.2,0,7.9,0c0.6,0,0.9-0.3,0.9-0.7
	c0-0.5-0.3-0.7-0.9-0.7c-1.3,0-2.6,0-3.9,0C26.1,15,24.8,15,23.4,15z M34.7,15c-0.6,0-0.9,0.3-0.9,0.8c0,0.5,0.3,0.7,0.9,0.7
	c2.6,0,5.2,0,7.9,0c0.6,0,0.9-0.3,0.9-0.8c0-0.5-0.3-0.7-0.9-0.7c-1.3,0-2.6,0-3.9,0C37.3,15,36,15,34.7,15z M26.2,19.5
	c0.5,0,0.8-0.3,0.8-0.7c0-0.4-0.3-0.7-0.8-0.7c-1,0-1.9,0-2.9,0c-0.5,0-0.8,0.3-0.8,0.7c0,0.4,0.3,0.7,0.8,0.8c0.5,0,1,0,1.5,0
	C25.2,19.5,25.7,19.5,26.2,19.5z M26.1,22.5c0.5,0,0.8-0.3,0.9-0.7c0-0.4-0.3-0.8-0.8-0.8c-0.9,0-1.9,0-2.8,0
	c-0.5,0-0.8,0.3-0.8,0.7c0,0.5,0.3,0.8,0.9,0.8c0.5,0,0.9,0,1.4,0C25.2,22.5,25.7,22.5,26.1,22.5z M23.3,24c-0.5,0-0.8,0.3-0.8,0.8
	c0,0.4,0.3,0.7,0.8,0.7c1,0,1.9,0,2.9,0c0.5,0,0.8-0.3,0.8-0.8c0-0.4-0.3-0.7-0.8-0.7s-0.9,0-1.4,0S23.8,24,23.3,24z M4.5,8.2
	C4.5,8.6,4.8,9,5.2,9S6,8.7,6,8.2c0-0.4-0.3-0.8-0.7-0.8C4.9,7.5,4.5,7.8,4.5,8.2z M7.5,8.2c0,0.4,0.3,0.7,0.8,0.7
	C8.7,9,9,8.6,9,8.2S8.7,7.5,8.2,7.5C7.8,7.5,7.5,7.8,7.5,8.2z M11.2,9C11.6,9,12,8.7,12,8.3s-0.3-0.8-0.7-0.8s-0.7,0.3-0.8,0.7
	C10.5,8.6,10.8,9,11.2,9z M36,29.2c-1.2,0-2.4,0-3.6,0c-0.7,0-0.9-0.3-0.9-0.9c0-1.9,0-3.8,0-5.6c0-0.7,0.3-0.9,0.9-0.9
	c2.4,0,4.7,0,7.1,0c0.7,0,0.9,0.3,0.9,0.9c0,1.9,0,3.8,0,5.6c0,0.7-0.3,0.9-0.9,0.9C38.4,29.2,37.2,29.2,36,29.2z M39,27.7
	c0-1.5,0-3,0-4.4c-2,0-4,0-5.9,0c0,1.5,0,3,0,4.4C35,27.7,37,27.7,39,27.7z M38.8,38.2c0.6,0,0.9-0.3,0.9-0.8s-0.3-0.7-0.9-0.7
	c-2.1,0-4.2,0-6.4,0c-0.6,0-0.9,0.3-0.9,0.8s0.3,0.7,0.9,0.7c1.1,0,2.1,0,3.2,0S37.8,38.2,38.8,38.2z M36.6,35.2
	c0.5,0,0.9-0.3,0.9-0.8c0-0.4-0.3-0.7-0.9-0.7c-1.4,0-2.8,0-4.3,0c-0.5,0-0.9,0.3-0.9,0.8c0,0.4,0.3,0.7,0.9,0.7c0.7,0,1.4,0,2.1,0
	C35.2,35.2,35.9,35.2,36.6,35.2z M39.6,32.2c0.5,0,0.9-0.3,0.9-0.8c0-0.4-0.3-0.7-0.9-0.7c-1.2,0-2.4,0-3.6,0
	c-0.5,0-0.8,0.3-0.8,0.8c0,0.4,0.3,0.7,0.9,0.7c0.6,0,1.2,0,1.7,0C38.4,32.2,39,32.2,39.6,32.2z M33,32.2c0.3,0,0.5,0,0.8,0
	c0.4,0,0.7-0.3,0.7-0.7s-0.3-0.7-0.7-0.7c-0.5,0-1.1,0-1.6,0c-0.4,0-0.7,0.3-0.7,0.7s0.3,0.7,0.7,0.8C32.5,32.3,32.7,32.2,33,32.2
	L33,32.2z M39.8,35.2c0.4,0,0.7-0.4,0.7-0.8c0-0.4-0.3-0.7-0.7-0.7c-0.3,0-0.6,0-0.8,0c-0.4,0-0.7,0.4-0.7,0.8
	c0,0.4,0.3,0.7,0.7,0.7c0.1,0,0.2,0,0.4,0C39.5,35.2,39.7,35.3,39.8,35.2z M15.2,19.7c1-0.6,2-1.1,3-1.7c0.5-0.3,0.6-0.7,0.4-1.1
	s-0.7-0.5-1.2-0.2c-0.1,0-0.1,0.1-0.2,0.1c-1.4,0.8-2.8,1.6-4.2,2.4c-0.2,0.1-0.4,0.1-0.7,0C11,18.3,9.5,17.5,8,16.7
	c-0.5-0.3-0.9-0.2-1.2,0.2c-0.2,0.4-0.1,0.8,0.4,1.1c1.2,0.7,2.3,1.3,3.5,2c0.1,0.1,0.2,0.2,0.4,0.3c-0.2,0.1-0.3,0.2-0.4,0.3
	c-1.2,0.7-2.4,1.4-3.6,2c-0.3,0.2-0.5,0.5-0.4,0.8c0.1,0.2,0.4,0.5,0.6,0.6s0.5-0.1,0.6-0.2c1.4-0.8,2.9-1.6,4.3-2.4
	c0.3-0.2,0.6-0.2,0.9,0c1.3,0.8,2.7,1.6,4.1,2.3c0.1,0.1,0.3,0.2,0.5,0.2c0.4,0.2,0.7,0,0.9-0.3c0.2-0.4,0.1-0.7-0.2-1
	c-0.1-0.1-0.3-0.2-0.4-0.3c-1.2-0.7-2.4-1.4-3.7-2.1C14.6,20,14.9,19.9,15.2,19.7z M38.1,24.3c-0.2-0.4-0.6-0.4-1.2-0.2
	c-0.2,0.1-0.4,0.2-0.6,0.3c-0.2,0.1-0.4,0.1-0.6,0c-0.3-0.1-0.6-0.3-0.9-0.4c-0.4-0.2-0.7,0-0.9,0.3s-0.2,0.7,0,0.9
	c0.1,0.1,0.2,0.1,0.3,0.2c-0.1,0.1-0.1,0.1-0.2,0.2c-0.3,0.3-0.4,0.7-0.2,1s0.6,0.5,0.9,0.2c0.8-0.6,1.6-0.5,2.4,0
	c0.4,0.2,0.8,0,1-0.4s-0.1-0.7-0.4-1C38.3,25.1,38.4,24.7,38.1,24.3z"/>
<g>
	<g>
		<path d="M59,22.8L59,22.8c0-3.9,3-7,7.1-7c2.4,0,3.9,0.7,5.3,1.9l-1.9,2.3c-1-0.9-2-1.4-3.5-1.4c-2.2,0-3.9,1.9-3.9,4.2v0
			c0,2.5,1.7,4.3,4.1,4.3c1.1,0,2-0.3,2.8-0.8v-1.9h-3v-2.6h5.9v5.9c-1.4,1.2-3.3,2.1-5.8,2.1C61.8,29.8,59,26.8,59,22.8z"/>
		<path d="M73.5,26.6L73.5,26.6c0-2.3,1.7-3.3,4.2-3.3c1,0,1.8,0.2,2.5,0.4v-0.2c0-1.2-0.8-1.9-2.2-1.9c-1.1,0-1.9,0.2-2.9,0.6
			l-0.7-2.2c1.1-0.5,2.3-0.8,4-0.8c1.6,0,2.8,0.4,3.5,1.2c0.8,0.8,1.1,1.9,1.1,3.3v6h-2.8v-1.1c-0.7,0.8-1.7,1.3-3.1,1.3
			C75.1,29.7,73.5,28.6,73.5,26.6z M80.2,25.9v-0.5C79.7,25.1,79,25,78.3,25c-1.3,0-2,0.5-2,1.4v0c0,0.8,0.7,1.3,1.6,1.3
			C79.3,27.7,80.2,27,80.2,25.9z"/>
		<path d="M85,19.2h2.9v2.1c0.6-1.4,1.6-2.4,3.3-2.3v3.1h-0.2c-1.9,0-3.1,1.2-3.1,3.6v3.8H85V19.2z"/>
		<path d="M92.5,32l1-2.1c0.4,0.2,0.9,0.4,1.3,0.4c0.5,0,0.8-0.2,1-0.7l-4.1-10.4h3.1l2.4,7l2.3-7h3l-4,10.6
			c-0.8,2.1-1.6,2.9-3.4,2.9C94,32.7,93.2,32.4,92.5,32z"/>
		<path d="M113.9,15.9h2.7l5.8,13.6h-3.1l-1.2-3h-5.7l-1.2,3h-3L113.9,15.9z M117,23.9l-1.8-4.4l-1.8,4.4H117z"/>
		<path d="M123.9,15.5h2.9v14.1h-2.9V15.5z"/>
		<path d="M128.2,19.2h3.1l2.3,6.9l2.3-6.9h3l-4.1,10.4h-2.7L128.2,19.2z"/>
		<path d="M139.1,26.6L139.1,26.6c0-2.3,1.7-3.3,4.2-3.3c1,0,1.8,0.2,2.5,0.4v-0.2c0-1.2-0.8-1.9-2.2-1.9c-1.1,0-1.9,0.2-2.9,0.6
			l-0.7-2.2c1.1-0.5,2.3-0.8,4-0.8c1.6,0,2.8,0.4,3.5,1.2c0.8,0.8,1.1,1.9,1.1,3.3v6h-2.8v-1.1c-0.7,0.8-1.7,1.3-3.1,1.3
			C140.7,29.7,139.1,28.6,139.1,26.6z M145.8,25.9v-0.5c-0.5-0.2-1.2-0.4-1.9-0.4c-1.3,0-2,0.5-2,1.4v0c0,0.8,0.7,1.3,1.6,1.3
			C144.9,27.7,145.8,27,145.8,25.9z"/>
		<path d="M150.6,19.2h2.9v2.1c0.6-1.4,1.6-2.4,3.3-2.3v3.1h-0.2c-1.9,0-3.1,1.2-3.1,3.6v3.8h-2.9V19.2z"/>
		<path d="M157.4,24.4L157.4,24.4c0-3,2.4-5.4,5.6-5.4c3.2,0,5.6,2.4,5.6,5.3v0c0,3-2.4,5.4-5.6,5.4
			C159.8,29.8,157.4,27.4,157.4,24.4z M165.7,24.4L165.7,24.4c0-1.6-1.1-2.9-2.7-2.9c-1.7,0-2.7,1.3-2.7,2.8v0
			c0,1.5,1.1,2.9,2.7,2.9C164.7,27.2,165.7,25.9,165.7,24.4z"/>
	</g>
	<linearGradient id="SVGID_2_" gradientUnits="userSpaceOnUse" x1="6.398" y1="24" x2="54.2592" y2="24">
		<stop  offset="0" style="stop-color:#6366F1"/>
		<stop  offset="0.365" style="stop-color:#8B5CF6"/>
		<stop  offset="1" style="stop-color:#D946EF"/>
	</linearGradient>
	<path class="st1" d="M54.3,21.5c0-0.1,0-0.1-0.1-0.2s-0.1-0.1-0.1-0.2c-0.2-0.3-0.4-0.6-0.6-0.9c-0.2-0.3-0.4-0.6-0.6-0.9l0,0
		c0,0,0,0,0,0c-0.2-0.3-0.5-0.4-0.9-0.3c-0.1,0-0.2,0-0.3,0c-0.8,0.1-1.7,0.2-2.5,0.4c-0.1,0-0.2,0-0.3,0l0,0
		c-0.4,0-0.6-0.2-0.6-0.5c0-0.1,0-0.1,0-0.2c0-0.2,0-7.2,0-7.2c0,0,0-0.1,0-0.1c0,0,0-0.1,0-0.1c0,0,0,0,0,0c0,0,0,0,0,0
		c0,0,0,0,0,0c0,0,0,0,0,0c0,0,0,0-0.1,0c0,0,0,0,0,0c0,0,0,0-0.1,0c0,0,0,0,0,0c0,0,0,0-0.1,0c0,0,0,0,0,0c0,0,0,0-0.1,0
		c0,0,0,0,0,0c0,0-0.1,0-0.1,0c0,0-0.1,0-0.1,0C46.2,10.4,26,3.1,25.8,3.1c-0.2-0.1-0.3,0-0.3,0.2c0,0.1,0,0.1,0,0.3
		c0,1,0.1,16.9,0.1,18.1c0,0.7-0.2,1-0.9,1.1c-0.3,0-10.8,1.6-10.9,1.6c-0.1,0-0.1,0.1-0.1,0.1c0,0,0,0.1,0,0.1c0,0,0,0,0,0
		c0,0.1,0,0.1,0,0.2c0,0.1,0,0.1,0.1,0.2c0.2,0.3,0.3,0.6,0.5,0.9c0.2,0.3,0.4,0.6,0.5,0.9c0,0,0,0,0,0c0,0,0,0,0,0.1
		c0.2,0.3,0.5,0.4,0.9,0.4c0.1,0,8.7-1.1,9-1.1c0.7-0.1,0.7,0,0.8,0.7c0,1.1,0,2.2,0,3.2c0,0.7,0,1.4,0,2.2c0,1.9,0,3.8,0,5.6
		c0,0.1,0,0.3,0,0.4c-0.1,0.2-0.2,0.4-0.5,0.3c-0.2-0.1-12.6-4.5-14.6-5.2c-0.1,0-0.3-0.1-0.4-0.3c0,0,0,0,0-0.1c0-0.3,0-15.9,0-18
		h0c0-0.2,0.1-0.3,0.2-0.4c1.6-0.8,10.9-4.8,11.4-5c0.2-0.1,0.4-0.2,0.4-0.4c0-0.1,0-0.2,0-0.3c0-1.3,0-2.5,0-3.8c0-0.1,0-0.2,0-0.3
		c0-0.1,0-0.2-0.2-0.2c0,0,0,0-0.1,0c-0.1,0-0.3,0.1-0.4,0.1C20.9,5.1,7.2,11,6.7,11.3c-0.3,0.1-0.3,0.2-0.3,0.5
		c0,0.4,0,23.2,0,24.7c0,0.3,0.1,0.4,0.4,0.6c0,0,0.1,0,0.1,0c1,0.4,21.3,7.7,21.7,7.8c0.2,0.1,0.3,0.1,0.5,0c0,0,0,0,0,0
		c0.1-0.2,0-0.4,0-0.6c0-5.9,0-11.8,0-17.6c0-0.2,0-0.4,0-0.7c0-0.3,0.2-0.5,0.4-0.6c0.2-0.1,0.3-0.1,0.5-0.1
		c0.8-0.1,12.8-1.8,13.4-1.9c0,0,0.1,0,0.1,0c0.1,0,0.2,0,0.3,0c0.1,0,0.1,0,0.2,0c0.1,0,0.2,0.1,0.2,0.1c0.1,0.1,0.1,0.2,0.1,0.3
		c0,0.1,0,0.2,0,0.3c0,0,0,8.8,0,8.9c0,0.1,0,0.2,0,0.3c0,0.1,0.1,0.2,0.2,0.3c0,0,0,0,0.1,0.1c0.2,0.1,0.4,0.3,0.6,0.4
		c0.8,0.5,1.6,1.1,2.4,1.6c0,0,0,0,0,0c0,0,0,0,0,0c0,0,0,0,0,0c0,0,0,0,0,0c0,0,0,0,0,0c0,0,0,0,0,0c0,0,0,0,0,0c0,0,0,0,0,0
		c0,0,0,0,0,0c0,0,0,0,0,0c0,0,0,0,0,0c0,0,0,0,0,0c0,0,0.1,0,0.1-0.1c0,0,0,0,0,0c0,0,0,0,0-0.1c0,0,0,0,0,0c0,0,0,0,0,0
		c0,0,0,0,0,0c0,0,0,0,0-0.1c0-0.2,0-0.3,0-0.5c0-3.7,0-7.3,0-11c0-0.3,0-0.6,0-0.8c0-0.1,0-0.2,0.1-0.3c0,0,0.1-0.1,0.1-0.1
		c0.1,0,0.1,0,0.2-0.1c0.1,0,0.1,0,0.2-0.1c0.1,0,5.2-1,5.2-1c0.1,0,0.1-0.1,0.1-0.1C54.3,21.6,54.3,21.5,54.3,21.5
		C54.3,21.5,54.3,21.5,54.3,21.5z M44.5,19C44.5,19,44.5,19,44.5,19c0,0.1,0,0.1,0,0.2c0,0.3-0.1,0.5-0.2,0.6
		c-0.1,0.1-0.2,0.2-0.3,0.2c-0.1,0-0.2,0.1-0.3,0.1C43.4,20.1,31,21.9,30.3,22c-0.2,0-0.4,0.1-0.6,0.1c-0.3,0-0.5-0.1-0.5-0.4
		c0-0.2,0-11.7,0-11.8c0-0.4,0.2-0.5,0.6-0.5c0.1,0,0.2,0.1,0.3,0.1c0.7,0.2,13.7,5,13.8,5c0,0,0.1,0,0.1,0c0.1,0,0.2,0.1,0.3,0.1
		c0,0,0.1,0.1,0.1,0.1c0,0,0.1,0.1,0.1,0.1c0,0.1,0.1,0.2,0.1,0.3c0,0.1,0,0.1,0,0.2c0,0,0,0.1,0,0.1C44.5,16.7,44.5,17.8,44.5,19z"
		/>
</g>
</svg>
