<?xml version="1.0" encoding="utf-8"?>
<!-- Generator: Adobe Illustrator 25.2.0, SVG Export Plug-In . SVG Version: 6.00 Build 0)  -->
<svg version="1.1" id="Layer_1" xmlns:v="https://vecta.io/nano"
	 xmlns="http://www.w3.org/2000/svg" xmlns:xlink="http://www.w3.org/1999/xlink" x="0px" y="0px" viewBox="0 0 48 48"
	 style="enable-background:new 0 0 48 48;" xml:space="preserve">
<style type="text/css">
	.st0{display:none;fill:url(#SVGID_1_);}
	.st1{fill:url(#SVGID_2_);}
</style>
<linearGradient id="SVGID_1_" gradientUnits="userSpaceOnUse" x1="5.000138e-02" y1="1973.95" x2="48.05" y2="1973.95" gradientTransform="matrix(1 0 0 1 0 -1950)">
	<stop  offset="0" style="stop-color:#6366F1"/>
	<stop  offset="0.5" style="stop-color:#8B5CF6"/>
	<stop  offset="1" style="stop-color:#D946EF"/>
</linearGradient>
<path class="st0" d="M0.1,6.3c0.3-0.9,0.8-1.5,1.8-1.7c0.2,0,0.4-0.1,0.7-0.1c14.4,0,28.7,0,43.1,0c1.5,0,2.4,0.9,2.4,2.4
	c0,8.9,0,17.8,0,26.7c0,1.5-0.9,2.4-2.4,2.4c-0.7,0-1.3,0-2.1,0c0,0.2,0,0.4,0,0.5c0,1.5,0,3,0,4.5s-0.9,2.4-2.4,2.4
	c-3.4,0-6.8,0-10.2,0c-1.4,0-2.4-0.9-2.4-2.4c0-1.7,0-3.4,0-5.1c-0.2,0-0.4,0-0.6,0c-8.4,0-16.7,0-25.1,0c-1.4,0-2.4-0.4-2.9-1.8
	C0.1,24.9,0.1,15.6,0.1,6.3z M1.6,12c0,0.1,0,0.2,0,0.3c0,7.1,0,14.2,0,21.3c0,0.7,0.3,0.9,1,0.9c8.5,0,17,0,25.4,0
	c0.2,0,0.3,0,0.5,0c0-0.3,0-0.4,0-0.6c0-4.4,0-8.9,0-13.3c0-1.7,0.9-2.6,2.6-2.6c3.3,0,6.6,0,9.8,0c1.7,0,2.6,0.9,2.6,2.6
	c0,4.5,0,8.9,0,13.4c0,0.2,0,0.4,0,0.5c0.1,0,0.1,0,0.1,0c0.6,0,1.2,0,1.8,0c0.9,0,1.1-0.2,1.1-1.1c0-7,0-13.9,0-20.9
	c0-0.2,0-0.3,0-0.5C31.6,12,16.6,12,1.6,12z M1.6,10.5c15,0,30,0,45,0c0-1.1,0-2.2,0-3.3c0-1-0.2-1.2-1.1-1.2C31.3,6,17,6,2.8,6
	C2.7,6,2.5,6,2.4,6C2,6,1.7,6.3,1.7,6.7C1.6,8,1.6,9.2,1.6,10.5z M42.1,30.7c0-3.4,0-6.8,0-10.2c0-0.8-0.2-1-1-1c-3.3,0-6.6,0-9.9,0
	c-0.8,0-1,0.2-1,1c0,6.8,0,13.6,0,20.4c0,0.8,0.2,1,1,1c3.3,0,6.6,0,9.9,0c0.9,0,1.1-0.2,1.1-1.1C42.1,37.5,42.1,34.1,42.1,30.7z
	 M12.8,26.2c-2.4,0-4.8,0-7.2,0c-0.8,0-1-0.2-1-1c0-3.3,0-6.7,0-10c0-0.7,0.2-1,1-1c4.8,0,9.7,0,14.5,0c0.7,0,1,0.2,1,1
	c0,3.3,0,6.7,0,10c0,0.8-0.2,1-1,1C17.7,26.2,15.2,26.2,12.8,26.2z M19.6,15.8c-4.5,0-9,0-13.4,0c0,3,0,6,0,8.9c4.5,0,9,0,13.4,0
	C19.6,21.7,19.6,18.8,19.6,15.8z M8.3,32.2c-0.9,0-1.9,0-2.8,0c-0.6,0-0.9-0.3-0.9-0.9c0-0.9,0-1.8,0-2.7c0-0.6,0.3-0.9,0.9-0.9
	c1.9,0,3.8,0,5.7,0c0.6,0,0.9,0.3,0.9,0.9c0,0.9,0,1.8,0,2.7c0,0.6-0.3,0.9-0.9,0.9C10.2,32.2,9.3,32.2,8.3,32.2z M10.6,29.3
	c-1.5,0-3,0-4.4,0c0,0.5,0,1,0,1.4c1.5,0,3,0,4.4,0C10.6,30.2,10.6,29.8,10.6,29.3z M17.3,32.2c-0.9,0-1.9,0-2.8,0
	c-0.6,0-0.9-0.3-0.9-0.9c0-0.9,0-1.8,0-2.7c0-0.6,0.3-0.9,0.9-0.9c1.9,0,3.8,0,5.7,0c0.6,0,0.9,0.3,0.9,0.9c0,0.9,0,1.8,0,2.7
	c0,0.6-0.3,0.9-0.9,0.9C19.2,32.2,18.3,32.2,17.3,32.2z M19.6,30.7c0-0.5,0-1,0-1.5c-1.5,0-3,0-4.4,0c0,0.5,0,1,0,1.5
	C16.6,30.7,18.1,30.7,19.6,30.7z M23.5,15c-0.6,0-0.9,0.3-0.9,0.7c0,0.5,0.3,0.7,0.9,0.8c2.6,0,5.2,0,7.9,0c0.6,0,0.9-0.3,0.9-0.7
	c0-0.5-0.3-0.7-0.9-0.7c-1.3,0-2.6,0-3.9,0C26.2,15,24.9,15,23.5,15z M34.8,15c-0.6,0-0.9,0.3-0.9,0.8c0,0.5,0.3,0.7,0.9,0.7
	c2.6,0,5.2,0,7.9,0c0.6,0,0.9-0.3,0.9-0.8c0-0.5-0.3-0.7-0.9-0.7c-1.3,0-2.6,0-3.9,0C37.4,15,36.1,15,34.8,15z M26.3,19.5
	c0.5,0,0.8-0.3,0.8-0.7c0-0.4-0.3-0.7-0.8-0.7c-1,0-1.9,0-2.9,0c-0.5,0-0.8,0.3-0.8,0.7c0,0.4,0.3,0.7,0.8,0.8c0.5,0,1,0,1.5,0
	C25.3,19.5,25.8,19.5,26.3,19.5z M26.2,22.5c0.5,0,0.8-0.3,0.9-0.7c0-0.4-0.3-0.8-0.8-0.8c-0.9,0-1.9,0-2.8,0
	c-0.5,0-0.8,0.3-0.8,0.7c0,0.5,0.3,0.8,0.9,0.8c0.5,0,0.9,0,1.4,0C25.3,22.5,25.8,22.5,26.2,22.5z M23.4,24c-0.5,0-0.8,0.3-0.8,0.8
	c0,0.4,0.3,0.7,0.8,0.7c1,0,1.9,0,2.9,0c0.5,0,0.8-0.3,0.8-0.8c0-0.4-0.3-0.7-0.8-0.7s-0.9,0-1.4,0S23.9,24,23.4,24z M4.6,8.2
	C4.6,8.6,4.9,9,5.3,9s0.8-0.3,0.8-0.8c0-0.4-0.3-0.8-0.7-0.8C5,7.5,4.6,7.8,4.6,8.2z M7.6,8.2c0,0.4,0.3,0.7,0.8,0.7
	C8.8,9,9.1,8.6,9.1,8.2S8.8,7.5,8.3,7.5C7.9,7.5,7.6,7.8,7.6,8.2z M11.3,9c0.4,0,0.8-0.3,0.8-0.7s-0.3-0.8-0.7-0.8s-0.7,0.3-0.8,0.7
	C10.6,8.6,10.9,9,11.3,9z M36.1,29.2c-1.2,0-2.4,0-3.6,0c-0.7,0-0.9-0.3-0.9-0.9c0-1.9,0-3.8,0-5.6c0-0.7,0.3-0.9,0.9-0.9
	c2.4,0,4.7,0,7.1,0c0.7,0,0.9,0.3,0.9,0.9c0,1.9,0,3.8,0,5.6c0,0.7-0.3,0.9-0.9,0.9C38.5,29.2,37.3,29.2,36.1,29.2z M39.1,27.7
	c0-1.5,0-3,0-4.4c-2,0-4,0-5.9,0c0,1.5,0,3,0,4.4C35.1,27.7,37.1,27.7,39.1,27.7z M38.9,38.2c0.6,0,0.9-0.3,0.9-0.8
	s-0.3-0.7-0.9-0.7c-2.1,0-4.2,0-6.4,0c-0.6,0-0.9,0.3-0.9,0.8s0.3,0.7,0.9,0.7c1.1,0,2.1,0,3.2,0S37.9,38.2,38.9,38.2z M36.7,35.2
	c0.5,0,0.9-0.3,0.9-0.8c0-0.4-0.3-0.7-0.9-0.7c-1.4,0-2.8,0-4.3,0c-0.5,0-0.9,0.3-0.9,0.8c0,0.4,0.3,0.7,0.9,0.7c0.7,0,1.4,0,2.1,0
	C35.3,35.2,36,35.2,36.7,35.2z M39.7,32.2c0.5,0,0.9-0.3,0.9-0.8c0-0.4-0.3-0.7-0.9-0.7c-1.2,0-2.4,0-3.6,0c-0.5,0-0.8,0.3-0.8,0.8
	c0,0.4,0.3,0.7,0.9,0.7c0.6,0,1.2,0,1.7,0C38.5,32.2,39.1,32.2,39.7,32.2z M33.1,32.2c0.3,0,0.5,0,0.8,0c0.4,0,0.7-0.3,0.7-0.7
	s-0.3-0.7-0.7-0.7c-0.5,0-1.1,0-1.6,0c-0.4,0-0.7,0.3-0.7,0.7s0.3,0.7,0.7,0.8C32.6,32.3,32.8,32.2,33.1,32.2L33.1,32.2z M39.9,35.2
	c0.4,0,0.7-0.4,0.7-0.8c0-0.4-0.3-0.7-0.7-0.7c-0.3,0-0.6,0-0.8,0c-0.4,0-0.7,0.4-0.7,0.8c0,0.4,0.3,0.7,0.7,0.7c0.1,0,0.2,0,0.4,0
	C39.6,35.2,39.8,35.3,39.9,35.2z M15.3,19.7c1-0.6,2-1.1,3-1.7c0.5-0.3,0.6-0.7,0.4-1.1s-0.7-0.5-1.2-0.2c-0.1,0-0.1,0.1-0.2,0.1
	c-1.4,0.8-2.8,1.6-4.2,2.4c-0.2,0.1-0.4,0.1-0.7,0c-1.3-0.9-2.8-1.7-4.3-2.5c-0.5-0.3-0.9-0.2-1.2,0.2c-0.2,0.4-0.1,0.8,0.4,1.1
	c1.2,0.7,2.3,1.3,3.5,2c0.1,0.1,0.2,0.2,0.4,0.3c-0.2,0.1-0.3,0.2-0.4,0.3c-1.2,0.7-2.4,1.4-3.6,2c-0.3,0.2-0.5,0.5-0.4,0.8
	c0.1,0.2,0.4,0.5,0.6,0.6s0.5-0.1,0.6-0.2c1.4-0.8,2.9-1.6,4.3-2.4c0.3-0.2,0.6-0.2,0.9,0c1.3,0.8,2.7,1.6,4.1,2.3
	c0.1,0.1,0.3,0.2,0.5,0.2c0.4,0.2,0.7,0,0.9-0.3c0.2-0.4,0.1-0.7-0.2-1c-0.1-0.1-0.3-0.2-0.4-0.3c-1.2-0.7-2.4-1.4-3.7-2.1
	C14.7,20,15,19.9,15.3,19.7z M38.2,24.3c-0.2-0.4-0.6-0.4-1.2-0.2c-0.2,0.1-0.4,0.2-0.6,0.3c-0.2,0.1-0.4,0.1-0.6,0
	c-0.3-0.1-0.6-0.3-0.9-0.4c-0.4-0.2-0.7,0-0.9,0.3s-0.2,0.7,0,0.9c0.1,0.1,0.2,0.1,0.3,0.2c-0.1,0.1-0.1,0.1-0.2,0.2
	c-0.3,0.3-0.4,0.7-0.2,1s0.6,0.5,0.9,0.2c0.8-0.6,1.6-0.5,2.4,0c0.4,0.2,0.8,0,1-0.4s-0.1-0.7-0.4-1C38.4,25.1,38.5,24.7,38.2,24.3z
	"/>
<g>
	<linearGradient id="SVGID_2_" gradientUnits="userSpaceOnUse" x1="4.8122" y1="24" x2="47.5506" y2="24">
		<stop  offset="0" style="stop-color:#6366F1"/>
		<stop  offset="0.365" style="stop-color:#8B5CF6"/>
		<stop  offset="1" style="stop-color:#D946EF"/>
	</linearGradient>
	<path class="st1" d="M47.5,21.7c0-0.1,0-0.1-0.1-0.2c0-0.1,0-0.1-0.1-0.2c-0.2-0.3-0.3-0.5-0.5-0.8c-0.2-0.3-0.3-0.5-0.5-0.8l0,0
		c0,0,0,0,0,0c-0.2-0.3-0.5-0.3-0.8-0.3c-0.1,0-0.2,0-0.2,0c-0.8,0.1-1.5,0.2-2.3,0.3c-0.1,0-0.2,0-0.3,0l0,0
		c-0.3,0-0.5-0.2-0.5-0.5c0-0.1,0-0.1,0-0.2c0-0.2,0-6.4,0-6.5c0,0,0-0.1,0-0.1c0,0,0,0,0-0.1c0,0,0,0,0,0c0,0,0,0,0,0c0,0,0,0,0,0
		c0,0,0,0,0,0c0,0,0,0,0,0c0,0,0,0,0,0c0,0,0,0,0,0c0,0,0,0,0,0c0,0,0,0,0,0c0,0,0,0,0,0c0,0,0,0-0.1,0c0,0,0,0,0,0c0,0-0.1,0-0.1,0
		c0,0-0.1,0-0.1,0c-1.2-0.4-19.2-6.9-19.3-7c-0.2-0.1-0.3,0-0.3,0.2c0,0.1,0,0.1,0,0.3c0,0.9,0.1,15.1,0.1,16.2
		c0,0.7-0.2,0.9-0.8,0.9c-0.3,0-9.7,1.4-9.7,1.5c-0.1,0-0.1,0.1-0.1,0.1c0,0,0,0.1,0,0.1c0,0,0,0,0,0c0,0.1,0,0.1,0,0.2
		c0,0.1,0,0.1,0.1,0.2c0.2,0.3,0.3,0.6,0.5,0.8c0.2,0.3,0.3,0.6,0.5,0.8c0,0,0,0,0,0c0,0,0,0,0,0c0.2,0.3,0.5,0.4,0.8,0.3
		c0.1,0,7.8-1,8-1c0.6-0.1,0.7,0,0.7,0.6c0,1,0,1.9,0,2.9c0,0.6,0,1.3,0,1.9c0,1.7,0,3.4,0,5c0,0.1,0,0.2,0,0.3
		c-0.1,0.2-0.2,0.3-0.4,0.3c-0.2,0-11.3-4-13-4.6c-0.1,0-0.3-0.1-0.4-0.2c0,0,0,0,0-0.1c0-0.3,0-14.2,0-16.1h0
		c0-0.1,0.1-0.3,0.2-0.3c1.4-0.7,9.7-4.3,10.2-4.4c0.2-0.1,0.3-0.2,0.4-0.4c0-0.1,0-0.2,0-0.3c0-1.1,0-2.2,0-3.4c0-0.1,0-0.2,0-0.3
		c0-0.1,0-0.2-0.2-0.2c0,0,0,0-0.1,0c-0.1,0-0.2,0.1-0.3,0.1c-0.6,0.2-12.8,5.5-13.3,5.7c-0.3,0.1-0.3,0.2-0.3,0.4
		c0,0.3,0,20.7,0,22c0,0.3,0,0.4,0.3,0.5c0,0,0.1,0,0.1,0c0.9,0.3,19,6.9,19.4,7c0.1,0,0.3,0.1,0.4,0c0,0,0,0,0,0
		c0.1-0.2,0-0.3,0-0.5c0-5.2,0-10.5,0-15.7c0-0.2,0-0.4,0-0.6c0-0.2,0.2-0.4,0.4-0.5c0.1,0,0.3-0.1,0.4-0.1c0.7-0.1,11.4-1.6,12-1.7
		c0,0,0.1,0,0.1,0c0.1,0,0.2,0,0.3,0c0.1,0,0.1,0,0.2,0c0.1,0,0.1,0.1,0.2,0.1c0,0.1,0.1,0.1,0.1,0.2c0,0.1,0,0.2,0,0.3
		c0,0,0,7.9,0,7.9c0,0.1,0,0.2,0,0.2c0,0.1,0.1,0.2,0.2,0.2c0,0,0,0,0.1,0.1c0.2,0.1,0.4,0.3,0.5,0.4c0.7,0.5,1.4,1,2.2,1.5
		c0,0,0,0,0,0c0,0,0,0,0,0c0,0,0,0,0,0c0,0,0,0,0,0c0,0,0,0,0,0c0,0,0,0,0,0c0,0,0,0,0,0c0,0,0,0,0,0c0,0,0,0,0,0c0,0,0,0,0,0
		c0,0,0,0,0,0c0,0,0,0,0,0c0,0,0.1,0,0.1-0.1c0,0,0,0,0,0c0,0,0,0,0-0.1c0,0,0,0,0,0c0,0,0,0,0,0c0,0,0,0,0,0c0,0,0,0,0-0.1
		c0-0.1,0-0.3,0-0.4c0-3.3,0-6.5,0-9.8c0-0.3,0-0.5,0-0.8c0-0.1,0-0.2,0.1-0.2c0,0,0.1-0.1,0.1-0.1c0,0,0.1,0,0.1-0.1
		c0,0,0.1,0,0.1,0c0.1,0,4.6-0.9,4.7-0.9c0.1,0,0.1-0.1,0.1-0.1C47.5,21.8,47.6,21.8,47.5,21.7C47.5,21.8,47.5,21.7,47.5,21.7z
		 M38.8,19.5C38.8,19.5,38.8,19.5,38.8,19.5c0,0.1,0,0.1,0,0.1c0,0.3-0.1,0.4-0.2,0.6c-0.1,0.1-0.2,0.1-0.3,0.2
		c-0.1,0-0.2,0-0.2,0.1c-0.3,0-11.3,1.6-12,1.7c-0.2,0-0.3,0-0.5,0.1c-0.3,0-0.4-0.1-0.4-0.4c0-0.2,0-10.5,0-10.5
		c0-0.4,0.2-0.5,0.5-0.4c0.1,0,0.2,0,0.3,0.1c0.6,0.2,12.3,4.4,12.3,4.5c0,0,0.1,0,0.1,0c0.1,0,0.2,0.1,0.2,0.1c0,0,0.1,0.1,0.1,0.1
		c0,0,0.1,0.1,0.1,0.1c0,0.1,0.1,0.2,0.1,0.3c0,0.1,0,0.1,0,0.2c0,0,0,0.1,0,0.1C38.9,17.5,38.9,18.5,38.8,19.5z"/>
</g>
</svg>
