<?xml version="1.0" encoding="utf-8"?>
<!-- Generator: Adobe Illustrator 25.2.0, SVG Export Plug-In . SVG Version: 6.00 Build 0)  -->
<svg version="1.1" id="Layer_1" xmlns:v="https://vecta.io/nano"
	 xmlns="http://www.w3.org/2000/svg" xmlns:xlink="http://www.w3.org/1999/xlink" x="0px" y="0px" viewBox="0 0 154 36"
	 style="enable-background:new 0 0 154 36;" xml:space="preserve">
<style type="text/css">
	.st0{fill:#B4B7C9;}
	.st1{clip-path:url(#SVGID_2_);fill-rule:evenodd;clip-rule:evenodd;fill:#B4B7C9;}
</style>
<g>
	<g>
		<path class="st0" d="M62.8,16.5V8.9h1.6v6.3h3.1v1.3H62.8z"/>
		<path class="st0" d="M71.9,16.5l-0.3-0.8h0c-0.3,0.3-0.5,0.6-0.8,0.7c-0.3,0.1-0.7,0.2-1.1,0.2c-0.6,0-1-0.2-1.3-0.5
			c-0.3-0.3-0.5-0.8-0.5-1.4c0-0.6,0.2-1.1,0.6-1.4c0.4-0.3,1.1-0.5,1.9-0.5l1,0v-0.3c0-0.6-0.3-0.9-0.9-0.9c-0.5,0-1,0.1-1.6,0.4
			l-0.5-1.1c0.7-0.3,1.4-0.5,2.2-0.5c0.8,0,1.4,0.2,1.8,0.5c0.4,0.3,0.6,0.9,0.6,1.5v3.9H71.9z M71.4,13.8l-0.6,0
			c-0.5,0-0.8,0.1-1,0.2c-0.2,0.2-0.3,0.4-0.3,0.7c0,0.4,0.3,0.7,0.8,0.7c0.4,0,0.7-0.1,0.9-0.3c0.2-0.2,0.3-0.5,0.3-0.8V13.8z"/>
		<path class="st0" d="M77.3,10.6c0.7,0,1.2,0.3,1.6,0.8c0.4,0.5,0.6,1.3,0.6,2.2c0,1-0.2,1.7-0.6,2.2c-0.4,0.5-0.9,0.8-1.6,0.8
			c-0.7,0-1.2-0.2-1.6-0.7h-0.1l-0.3,0.6h-1.2V8.4h1.6v1.9c0,0.2,0,0.6-0.1,1.1h0.1C76,10.8,76.6,10.6,77.3,10.6z M76.8,11.8
			c-0.4,0-0.7,0.1-0.9,0.4c-0.2,0.2-0.3,0.6-0.3,1.2v0.2c0,0.6,0.1,1.1,0.3,1.3c0.2,0.3,0.5,0.4,0.9,0.4c0.3,0,0.6-0.1,0.8-0.4
			c0.2-0.3,0.3-0.7,0.3-1.3c0-0.6-0.1-1-0.3-1.3C77.4,12,77.1,11.8,76.8,11.8z"/>
		<path class="st0" d="M85.5,13.6c0,0.9-0.2,1.7-0.7,2.2c-0.5,0.5-1.2,0.8-2.1,0.8c-0.6,0-1-0.1-1.5-0.4c-0.4-0.2-0.8-0.6-1-1.1
			c-0.2-0.5-0.3-1-0.3-1.6c0-0.9,0.2-1.7,0.7-2.2c0.5-0.5,1.2-0.8,2.1-0.8c0.6,0,1,0.1,1.5,0.4c0.4,0.2,0.8,0.6,1,1
			C85.4,12.4,85.5,12.9,85.5,13.6z M81.5,13.6c0,0.6,0.1,1,0.3,1.3c0.2,0.3,0.5,0.4,0.9,0.4c0.4,0,0.7-0.1,0.9-0.4
			c0.2-0.3,0.3-0.7,0.3-1.3c0-0.6-0.1-1-0.3-1.3c-0.2-0.3-0.5-0.4-0.9-0.4c-0.4,0-0.7,0.1-0.9,0.4C81.6,12.5,81.5,13,81.5,13.6z"/>
		<path class="st0" d="M89.6,10.6c0.2,0,0.4,0,0.5,0L90,12.1c-0.1,0-0.3-0.1-0.5-0.1c-0.5,0-0.9,0.1-1.2,0.4
			c-0.3,0.3-0.4,0.6-0.4,1.1v3h-1.6v-5.8h1.2l0.2,1h0.1c0.2-0.3,0.4-0.6,0.7-0.8C88.9,10.7,89.2,10.6,89.6,10.6z"/>
		<path class="st0" d="M94.1,16.5l-0.3-0.8h0c-0.3,0.3-0.5,0.6-0.8,0.7c-0.3,0.1-0.6,0.2-1.1,0.2c-0.6,0-1-0.2-1.3-0.5
			c-0.3-0.3-0.5-0.8-0.5-1.4c0-0.6,0.2-1.1,0.6-1.4c0.4-0.3,1.1-0.5,1.9-0.5l1,0v-0.3c0-0.6-0.3-0.9-0.9-0.9c-0.5,0-1,0.1-1.6,0.4
			l-0.5-1.1c0.7-0.3,1.4-0.5,2.2-0.5c0.8,0,1.4,0.2,1.8,0.5c0.4,0.3,0.6,0.9,0.6,1.5v3.9H94.1z M93.6,13.8l-0.6,0
			c-0.5,0-0.8,0.1-1,0.2c-0.2,0.2-0.3,0.4-0.3,0.7c0,0.4,0.3,0.7,0.8,0.7c0.4,0,0.7-0.1,0.9-0.3c0.2-0.2,0.3-0.5,0.3-0.8V13.8z"/>
		<path class="st0" d="M98.8,15.3c0.3,0,0.6-0.1,1-0.2v1.2c-0.4,0.2-0.9,0.3-1.5,0.3c-0.6,0-1.1-0.2-1.4-0.5
			c-0.3-0.3-0.4-0.8-0.4-1.4v-2.8h-0.8v-0.7l0.9-0.5l0.5-1.2h1v1.2h1.6v1.2h-1.6v2.8c0,0.2,0.1,0.4,0.2,0.5
			C98.4,15.3,98.6,15.3,98.8,15.3z"/>
		<path class="st0" d="M105.7,13.6c0,0.9-0.2,1.7-0.7,2.2c-0.5,0.5-1.2,0.8-2.1,0.8c-0.6,0-1-0.1-1.5-0.4c-0.4-0.2-0.8-0.6-1-1.1
			c-0.2-0.5-0.3-1-0.3-1.6c0-0.9,0.2-1.7,0.7-2.2c0.5-0.5,1.2-0.8,2.1-0.8c0.6,0,1,0.1,1.5,0.4c0.4,0.2,0.8,0.6,1,1
			C105.6,12.4,105.7,12.9,105.7,13.6z M101.7,13.6c0,0.6,0.1,1,0.3,1.3c0.2,0.3,0.5,0.4,0.9,0.4c0.4,0,0.7-0.1,0.9-0.4
			c0.2-0.3,0.3-0.7,0.3-1.3c0-0.6-0.1-1-0.3-1.3c-0.2-0.3-0.5-0.4-0.9-0.4c-0.4,0-0.7,0.1-0.9,0.4C101.8,12.5,101.7,13,101.7,13.6z"
			/>
		<path class="st0" d="M109.7,10.6c0.2,0,0.4,0,0.5,0l-0.1,1.5c-0.1,0-0.3-0.1-0.5-0.1c-0.5,0-0.9,0.1-1.2,0.4
			c-0.3,0.3-0.4,0.6-0.4,1.1v3h-1.6v-5.8h1.2l0.2,1h0.1c0.2-0.3,0.4-0.6,0.7-0.8C109,10.7,109.4,10.6,109.7,10.6z"/>
		<path class="st0" d="M110.7,9.2c0-0.5,0.3-0.8,0.9-0.8c0.6,0,0.9,0.3,0.9,0.8c0,0.2-0.1,0.4-0.2,0.6c-0.1,0.1-0.4,0.2-0.6,0.2
			C111,9.9,110.7,9.7,110.7,9.2z M112.4,16.5h-1.6v-5.8h1.6V16.5z"/>
		<path class="st0" d="M117.6,16.5l-0.2-0.7h-0.1c-0.2,0.3-0.4,0.5-0.7,0.6c-0.3,0.1-0.7,0.2-1.1,0.2c-0.7,0-1.2-0.2-1.5-0.5
			c-0.3-0.4-0.5-0.9-0.5-1.6v-3.8h1.6v3.4c0,0.4,0.1,0.7,0.2,0.9s0.4,0.3,0.7,0.3c0.4,0,0.8-0.1,1-0.4c0.2-0.3,0.3-0.8,0.3-1.5v-2.7
			h1.6v5.8H117.6z"/>
		<path class="st0" d="M125.2,16.5h-1.6v-3.4c0-0.4-0.1-0.7-0.2-0.9c-0.1-0.2-0.4-0.3-0.7-0.3c-0.4,0-0.7,0.1-0.9,0.4
			c-0.2,0.3-0.3,0.8-0.3,1.5v2.7H120v-5.8h1.2l0.2,0.7h0.1c0.2-0.3,0.4-0.5,0.7-0.6c0.3-0.2,0.6-0.2,1-0.2c0.9,0,1.5,0.3,1.8,0.9
			h0.1c0.2-0.3,0.4-0.5,0.7-0.6c0.3-0.1,0.6-0.2,1-0.2c0.7,0,1.2,0.2,1.5,0.5c0.3,0.3,0.5,0.9,0.5,1.6v3.8h-1.6v-3.4
			c0-0.4-0.1-0.7-0.2-0.9c-0.1-0.2-0.4-0.3-0.7-0.3c-0.4,0-0.7,0.1-0.9,0.4c-0.2,0.3-0.3,0.7-0.3,1.3V16.5z"/>
	</g>
	<g>
		<path class="st0" d="M65.7,27.1h-1.6v-6.3h-2.1v-1.3h5.7v1.3h-2.1V27.1z"/>
		<path class="st0" d="M70.2,27.2c-0.9,0-1.7-0.3-2.2-0.8c-0.5-0.5-0.8-1.2-0.8-2.2c0-1,0.2-1.7,0.7-2.3c0.5-0.5,1.2-0.8,2-0.8
			c0.8,0,1.5,0.2,1.9,0.7c0.5,0.5,0.7,1.1,0.7,1.9v0.8h-3.7c0,0.5,0.2,0.8,0.4,1.1s0.6,0.4,1,0.4c0.3,0,0.7,0,1-0.1
			c0.3-0.1,0.6-0.2,1-0.3v1.2c-0.3,0.1-0.6,0.2-0.9,0.3C71,27.2,70.7,27.2,70.2,27.2z M70,22.3c-0.3,0-0.6,0.1-0.8,0.3
			c-0.2,0.2-0.3,0.5-0.3,0.9h2.2c0-0.4-0.1-0.7-0.3-0.9C70.6,22.5,70.3,22.3,70,22.3z"/>
		<path class="st0" d="M76.6,21.2c0.2,0,0.4,0,0.5,0L77,22.8c-0.1,0-0.3-0.1-0.5-0.1c-0.5,0-0.9,0.1-1.2,0.4
			c-0.3,0.3-0.4,0.6-0.4,1.1v3h-1.6v-5.8h1.2l0.2,1h0.1c0.2-0.3,0.4-0.6,0.7-0.8C75.9,21.3,76.2,21.2,76.6,21.2z"/>
		<path class="st0" d="M80.8,27.2c-0.7,0-1.2-0.2-1.6-0.7h-0.1c0.1,0.5,0.1,0.8,0.1,0.8v2.4h-1.6v-8.4h1.3l0.2,0.8h0.1
			c0.4-0.6,0.9-0.9,1.6-0.9c0.7,0,1.2,0.3,1.6,0.8c0.4,0.5,0.6,1.3,0.6,2.2c0,0.6-0.1,1.2-0.3,1.6c-0.2,0.5-0.4,0.8-0.8,1
			C81.7,27.1,81.3,27.2,80.8,27.2z M80.4,22.5c-0.4,0-0.7,0.1-0.9,0.4c-0.2,0.2-0.3,0.6-0.3,1.2v0.2c0,0.6,0.1,1.1,0.3,1.3
			c0.2,0.3,0.5,0.4,0.9,0.4c0.7,0,1.1-0.6,1.1-1.8c0-0.6-0.1-1-0.3-1.3C81,22.6,80.7,22.5,80.4,22.5z"/>
		<path class="st0" d="M87.5,27.1l-0.3-0.8h0c-0.3,0.3-0.5,0.6-0.8,0.7c-0.3,0.1-0.6,0.2-1.1,0.2c-0.6,0-1-0.2-1.3-0.5
			c-0.3-0.3-0.5-0.8-0.5-1.4c0-0.6,0.2-1.1,0.6-1.4c0.4-0.3,1.1-0.5,1.9-0.5l1,0v-0.3c0-0.6-0.3-0.9-0.9-0.9c-0.5,0-1,0.1-1.6,0.4
			L84,21.7c0.7-0.3,1.4-0.5,2.2-0.5c0.8,0,1.4,0.2,1.8,0.5c0.4,0.3,0.6,0.9,0.6,1.5v3.9H87.5z M87.1,24.4l-0.6,0
			c-0.5,0-0.8,0.1-1,0.2c-0.2,0.2-0.3,0.4-0.3,0.7c0,0.4,0.3,0.7,0.8,0.7c0.4,0,0.7-0.1,0.9-0.3c0.2-0.2,0.3-0.5,0.3-0.8V24.4z"/>
		<path class="st0" d="M91.6,27.2c-0.7,0-1.2-0.3-1.6-0.8c-0.4-0.5-0.6-1.3-0.6-2.2c0-1,0.2-1.7,0.6-2.2c0.4-0.5,0.9-0.8,1.6-0.8
			c0.7,0,1.3,0.3,1.7,0.9h0.1c-0.1-0.4-0.1-0.8-0.1-1.2v-1.9h1.6v8.1h-1.2l-0.3-0.8h-0.1C92.9,27,92.3,27.2,91.6,27.2z M92.1,26
			c0.4,0,0.7-0.1,0.9-0.4c0.2-0.2,0.3-0.6,0.3-1.2v-0.2c0-0.6-0.1-1.1-0.3-1.3c-0.2-0.3-0.5-0.4-0.9-0.4c-0.4,0-0.6,0.1-0.8,0.4
			c-0.2,0.3-0.3,0.7-0.3,1.3c0,0.6,0.1,1,0.3,1.3C91.5,25.8,91.8,26,92.1,26z"/>
		<path class="st0" d="M100.1,27.1l-0.2-0.7h-0.1c-0.2,0.3-0.4,0.5-0.7,0.6c-0.3,0.1-0.7,0.2-1.1,0.2c-0.7,0-1.2-0.2-1.5-0.5
			c-0.3-0.4-0.5-0.9-0.5-1.6v-3.8h1.6v3.4c0,0.4,0.1,0.7,0.2,0.9s0.4,0.3,0.7,0.3c0.4,0,0.8-0.1,1-0.4c0.2-0.3,0.3-0.8,0.3-1.5v-2.7
			h1.6v5.8H100.1z"/>
		<path class="st0" d="M112,19.5v4.9c0,0.6-0.1,1.1-0.4,1.5c-0.3,0.4-0.6,0.7-1.1,1c-0.5,0.2-1,0.3-1.7,0.3c-1,0-1.7-0.3-2.3-0.8
			c-0.5-0.5-0.8-1.2-0.8-2.1v-4.9h1.6v4.6c0,0.6,0.1,1,0.4,1.3c0.2,0.3,0.6,0.4,1.2,0.4c0.5,0,0.9-0.1,1.1-0.4
			c0.2-0.3,0.4-0.7,0.4-1.3v-4.6H112z"/>
		<path class="st0" d="M118.3,25c0,0.7-0.2,1.2-0.7,1.6c-0.5,0.4-1.2,0.6-2.1,0.6c-0.8,0-1.5-0.2-2.1-0.5v-1.5
			c0.5,0.2,0.9,0.4,1.3,0.5c0.4,0.1,0.7,0.1,1,0.1c0.4,0,0.6-0.1,0.8-0.2c0.2-0.1,0.3-0.3,0.3-0.6c0-0.1,0-0.3-0.1-0.4
			c-0.1-0.1-0.2-0.2-0.4-0.3c-0.2-0.1-0.5-0.3-1-0.5c-0.5-0.2-0.8-0.4-1-0.6c-0.2-0.2-0.4-0.4-0.6-0.7c-0.1-0.3-0.2-0.6-0.2-0.9
			c0-0.7,0.2-1.2,0.7-1.6c0.5-0.4,1.1-0.6,1.9-0.6c0.4,0,0.8,0,1.1,0.1c0.4,0.1,0.7,0.2,1.1,0.4l-0.5,1.3c-0.4-0.2-0.7-0.3-1-0.3
			c-0.3-0.1-0.5-0.1-0.8-0.1c-0.3,0-0.5,0.1-0.7,0.2c-0.2,0.1-0.2,0.3-0.2,0.6c0,0.1,0,0.3,0.1,0.4c0.1,0.1,0.2,0.2,0.3,0.3
			c0.1,0.1,0.5,0.3,1,0.5c0.7,0.3,1.2,0.7,1.5,1C118.2,24.1,118.3,24.5,118.3,25z"/>
		<path class="st0" d="M125.9,19.5v4.9c0,0.6-0.1,1.1-0.4,1.5c-0.3,0.4-0.6,0.7-1.1,1c-0.5,0.2-1,0.3-1.7,0.3c-1,0-1.7-0.3-2.3-0.8
			c-0.5-0.5-0.8-1.2-0.8-2.1v-4.9h1.6v4.6c0,0.6,0.1,1,0.4,1.3c0.2,0.3,0.6,0.4,1.2,0.4c0.5,0,0.9-0.1,1.1-0.4
			c0.2-0.3,0.4-0.7,0.4-1.3v-4.6H125.9z"/>
	</g>
	<g>
		<g>
			<g>
				<defs>
					<path id="SVGID_1_" d="M28.2,11.4c2.4-5,7.6-8.5,13.5-8.5c3.6,0,6.9,1.3,9.5,3.4c-1.3,0.3-2.4,1.2-3,2.3
						c-2.2-2.1-5.2-3.3-8.5-3.3c-4.6,0-8.7,2.5-10.9,6.2C28.7,11.5,28.5,11.5,28.2,11.4z M49.1,11.7c-0.2-0.4-0.2-0.8-0.2-1.2
						c0-1.8,1.5-3.3,3.3-3.3c1.8,0,3.3,1.5,3.3,3.3c0,1.8-1.5,3.3-3.3,3.3c-1.1,0-2-0.5-2.6-1.3l-9.2,7.2c0.2,0.4,0.3,0.9,0.3,1.5
						c0,2.1-1.7,3.7-3.7,3.7c-2.1,0-3.7-1.7-3.7-3.7c0-0.5,0.1-0.9,0.2-1.3l-3.9-3.4c-0.5,0.5-1.1,0.7-1.8,0.7
						c-1.4,0-2.6-1.2-2.6-2.6s1.2-2.6,2.6-2.6c1.4,0,2.6,1.2,2.6,2.6c0,0.4-0.1,0.7-0.2,1c2.2,1.3,3.7,2.7,4.1,3
						c0.7-0.7,1.6-1.2,2.7-1.2c0.9,0,1.8,0.3,2.4,0.9C42.7,15.5,48.3,12.2,49.1,11.7z M27.2,17.8c0,0.1,0,0.1,0,0.2
						c0,7,5.7,12.6,12.6,12.6S52.5,25,52.5,18c0-1.1-0.2-2.3-0.4-3.3c0.1,0,0.1,0,0.2,0c1.6,0,2.9-0.8,3.6-2.1c0.6,1.7,1,3.5,1,5.4
						c0,8.3-6.7,15-15,15c-8.3,0-15-6.7-15-15c0-0.1,0-0.2,0-0.3C26.9,17.8,27.1,17.8,27.2,17.8z"/>
				</defs>
				<use xlink:href="#SVGID_1_"  style="overflow:visible;fill-rule:evenodd;clip-rule:evenodd;fill:#B4B7C9;"/>
				<clipPath id="SVGID_2_">
					<use xlink:href="#SVGID_1_"  style="overflow:visible;"/>
				</clipPath>
				<polygon class="st1" points="27.1,12.6 26.7,13 26.7,12.6 				"/>
				<polygon class="st1" points="27.5,12.6 26.7,13.4 26.7,13 27.1,12.6 				"/>
				<polygon class="st1" points="27.9,12.6 26.7,13.8 26.7,13.4 27.5,12.6 				"/>
				<polygon class="st1" points="28.3,12.6 26.7,14.2 26.7,13.8 27.9,12.6 				"/>
				<polygon class="st1" points="28.7,12.6 26.7,14.6 26.7,14.2 28.3,12.6 				"/>
				<polygon class="st1" points="29.1,12.6 26.7,15 26.7,14.6 28.7,12.6 				"/>
				<polygon class="st1" points="29.5,12.6 26.7,15.4 26.7,15 29.1,12.6 				"/>
				<polygon class="st1" points="29.9,12.6 26.7,15.8 26.7,15.4 29.5,12.6 				"/>
				<polygon class="st1" points="30.3,12.6 26.7,16.2 26.7,15.8 29.9,12.6 				"/>
				<polygon class="st1" points="30.7,12.6 26.7,16.6 26.7,16.2 30.3,12.6 				"/>
				<polygon class="st1" points="31.1,12.6 26.7,17 26.7,16.6 30.7,12.6 				"/>
				<polygon class="st1" points="31.5,12.6 26.7,17.4 26.7,17 31.1,12.6 				"/>
				<polygon class="st1" points="31.9,12.6 26.7,17.8 26.7,17.4 31.5,12.6 				"/>
				<polygon class="st1" points="32.3,12.6 26.7,18.2 26.7,17.8 31.9,12.6 				"/>
				<polygon class="st1" points="32.7,12.6 26.7,18.6 26.7,18.2 32.3,12.6 				"/>
				<polygon class="st1" points="33.1,12.6 26.7,19 26.7,18.6 32.7,12.6 				"/>
				<polygon class="st1" points="33.5,12.6 26.7,19.4 26.7,19 33.1,12.6 				"/>
				<polygon class="st1" points="33.9,12.6 26.7,19.8 26.7,19.4 33.5,12.6 				"/>
				<polygon class="st1" points="34.3,12.6 26.7,20.2 26.7,19.8 33.9,12.6 				"/>
				<polygon class="st1" points="34.7,12.6 26.7,20.6 26.7,20.2 34.3,12.6 				"/>
				<polygon class="st1" points="35.1,12.6 26.7,21 26.7,20.6 34.7,12.6 				"/>
				<polygon class="st1" points="35.5,12.6 26.7,21.4 26.7,21 35.1,12.6 				"/>
				<polygon class="st1" points="35.9,12.6 26.7,21.8 26.7,21.4 35.5,12.6 				"/>
				<polygon class="st1" points="36.4,12.6 26.7,22.2 26.7,21.8 35.9,12.6 				"/>
				<polygon class="st1" points="36.8,12.6 26.7,22.6 26.7,22.2 36.4,12.6 				"/>
				<polygon class="st1" points="37.2,12.6 26.7,23 26.7,22.6 36.8,12.6 				"/>
				<polygon class="st1" points="37.6,12.6 26.7,23.4 26.7,23 37.2,12.6 				"/>
				<polygon class="st1" points="38,12.6 26.7,23.8 26.7,23.4 37.6,12.6 				"/>
				<polygon class="st1" points="38.4,12.6 26.7,24.2 26.7,23.8 38,12.6 				"/>
				<polygon class="st1" points="38.8,12.6 26.7,24.6 26.7,24.2 38.4,12.6 				"/>
				<polygon class="st1" points="39.2,12.6 26.7,25 26.7,24.6 38.8,12.6 				"/>
				<polygon class="st1" points="39.6,12.6 26.7,25.4 26.7,25 39.2,12.6 				"/>
				<polygon class="st1" points="40,12.6 26.7,25.8 26.7,25.4 39.6,12.6 				"/>
				<polygon class="st1" points="40.4,12.6 26.7,26.2 26.7,25.8 40,12.6 				"/>
				<polygon class="st1" points="40.8,12.6 26.7,26.6 26.7,26.2 40.4,12.6 				"/>
				<polygon class="st1" points="41.2,12.6 26.7,27 26.7,26.6 40.8,12.6 				"/>
				<polygon class="st1" points="41.6,12.6 26.7,27.4 26.7,27 41.2,12.6 				"/>
				<polygon class="st1" points="42,12.6 26.7,27.8 26.7,27.4 41.6,12.6 				"/>
				<polygon class="st1" points="42.4,12.6 26.7,28.2 26.7,27.8 42,12.6 				"/>
				<polygon class="st1" points="42.8,12.6 26.9,28.5 26.7,28.3 26.7,28.2 42.4,12.6 				"/>
				<polygon class="st1" points="43.2,12.6 27.1,28.7 26.9,28.5 42.8,12.6 				"/>
				<polygon class="st1" points="43.6,12.6 27.3,28.9 27.1,28.7 43.2,12.6 				"/>
				<polygon class="st1" points="44,12.6 27.5,29.1 27.3,28.9 43.6,12.6 				"/>
				<polygon class="st1" points="44.4,12.6 27.7,29.3 27.5,29.1 44,12.6 				"/>
				<polygon class="st1" points="44.8,12.6 27.9,29.5 27.7,29.3 44.4,12.6 				"/>
				<polygon class="st1" points="45.2,12.6 28.1,29.7 27.9,29.5 44.8,12.6 				"/>
				<polygon class="st1" points="45.6,12.6 28.3,29.9 28.1,29.7 45.2,12.6 				"/>
				<polygon class="st1" points="46,12.6 28.5,30.1 28.3,29.9 45.6,12.6 				"/>
				<polygon class="st1" points="46.4,12.6 28.7,30.3 28.5,30.1 46,12.6 				"/>
				<polygon class="st1" points="46.8,12.6 28.9,30.5 28.7,30.3 46.4,12.6 				"/>
				<polygon class="st1" points="47.2,12.6 29.1,30.7 28.9,30.5 46.8,12.6 				"/>
				<polygon class="st1" points="47.6,12.6 29.3,30.9 29.1,30.7 47.2,12.6 				"/>
				<polygon class="st1" points="48,12.6 29.5,31.1 29.3,30.9 47.6,12.6 				"/>
				<polygon class="st1" points="48.4,12.6 29.7,31.3 29.5,31.1 48,12.6 				"/>
				<polygon class="st1" points="48.8,12.6 29.9,31.5 29.7,31.3 48.4,12.6 				"/>
				<polygon class="st1" points="49.2,12.6 30.1,31.7 29.9,31.5 48.8,12.6 				"/>
				<polygon class="st1" points="49.6,12.6 30.3,31.9 30.1,31.7 49.2,12.6 				"/>
				<polygon class="st1" points="50,12.6 30.5,32.1 30.3,31.9 49.6,12.6 				"/>
				<polygon class="st1" points="50.4,12.6 30.7,32.3 30.5,32.1 50,12.6 				"/>
				<polygon class="st1" points="50.8,12.6 30.9,32.5 30.7,32.3 50.4,12.6 				"/>
				<polygon class="st1" points="51.2,12.6 31.1,32.7 30.9,32.5 50.8,12.6 				"/>
				<polygon class="st1" points="51.6,12.6 31.3,32.9 31.1,32.7 51.2,12.6 				"/>
				<polygon class="st1" points="52,12.6 31.6,33 31.4,33 31.3,32.9 51.6,12.6 				"/>
				<polygon class="st1" points="52.4,12.6 32,33 31.6,33 52,12.6 				"/>
				<polygon class="st1" points="52.8,12.6 32.4,33 32,33 52.4,12.6 				"/>
				<polygon class="st1" points="53.2,12.6 32.8,33 32.4,33 52.8,12.6 				"/>
				<polygon class="st1" points="53.6,12.6 33.2,33 32.8,33 53.2,12.6 				"/>
				<polygon class="st1" points="54,12.6 33.6,33 33.2,33 53.6,12.6 				"/>
				<polygon class="st1" points="54.4,12.6 34,33 33.6,33 54,12.6 				"/>
				<polygon class="st1" points="54.8,12.6 34.4,33 34,33 54.4,12.6 				"/>
				<polygon class="st1" points="55.2,12.6 34.8,33 34.4,33 54.8,12.6 				"/>
				<polygon class="st1" points="55.6,12.6 35.2,33 34.8,33 55.2,12.6 				"/>
				<polygon class="st1" points="56,12.6 35.6,33 35.2,33 55.6,12.6 				"/>
				<polygon class="st1" points="56.4,12.6 36,33 35.6,33 56,12.6 				"/>
				<polygon class="st1" points="56.8,12.6 36.4,33 36,33 56.4,12.6 				"/>
				<polygon class="st1" points="56.8,13 36.8,33 36.4,33 56.8,12.6 56.8,12.6 				"/>
				<polygon class="st1" points="56.8,13.4 37.2,33 36.8,33 56.8,13 				"/>
				<polygon class="st1" points="56.8,13.8 37.6,33 37.2,33 56.8,13.4 				"/>
				<polygon class="st1" points="56.8,14.2 38,33 37.6,33 56.8,13.8 				"/>
				<polygon class="st1" points="56.8,14.6 38.4,33 38,33 56.8,14.2 				"/>
				<polygon class="st1" points="56.8,15 38.8,33 38.4,33 56.8,14.6 				"/>
				<polygon class="st1" points="56.8,15.4 39.2,33 38.8,33 56.8,15 				"/>
				<polygon class="st1" points="56.8,15.8 39.6,33 39.2,33 56.8,15.4 				"/>
				<polygon class="st1" points="56.8,16.2 40,33 39.6,33 56.8,15.8 				"/>
				<polygon class="st1" points="56.8,16.6 40.4,33 40,33 56.8,16.2 				"/>
				<polygon class="st1" points="56.8,17 40.8,33 40.4,33 56.8,16.6 				"/>
				<polygon class="st1" points="56.8,17.4 41.2,33 40.8,33 56.8,17 				"/>
				<polygon class="st1" points="56.8,17.8 41.6,33 41.2,33 56.8,17.4 				"/>
				<polygon class="st1" points="56.8,18.2 42,33 41.6,33 56.8,17.8 				"/>
				<polygon class="st1" points="56.8,18.6 42.4,33 42,33 56.8,18.2 				"/>
				<polygon class="st1" points="56.8,19 42.8,33 42.4,33 56.8,18.6 				"/>
				<polygon class="st1" points="56.8,19.4 43.2,33 42.8,33 56.8,19 				"/>
				<polygon class="st1" points="56.8,19.8 43.6,33 43.2,33 56.8,19.4 				"/>
				<polygon class="st1" points="56.8,20.2 44,33 43.6,33 56.8,19.8 				"/>
				<polygon class="st1" points="56.8,20.6 44.4,33 44,33 56.8,20.2 				"/>
				<polygon class="st1" points="56.8,21 44.8,33 44.4,33 56.8,20.6 				"/>
				<polygon class="st1" points="56.8,21.4 45.2,33 44.8,33 56.8,21 				"/>
				<polygon class="st1" points="56.8,21.8 45.6,33 45.2,33 56.8,21.4 				"/>
				<polygon class="st1" points="56.8,22.2 46,33 45.6,33 56.8,21.8 				"/>
				<polygon class="st1" points="56.8,22.6 46.4,33 46,33 56.8,22.2 				"/>
				<polygon class="st1" points="56.8,23 46.8,33 46.4,33 56.8,22.6 				"/>
				<polygon class="st1" points="56.8,23.4 47.2,33 46.8,33 56.8,23 				"/>
				<polygon class="st1" points="56.8,23.8 47.6,33 47.2,33 56.8,23.4 				"/>
				<polygon class="st1" points="56.8,24.2 48,33 47.6,33 56.8,23.8 				"/>
				<polygon class="st1" points="48,33 56.8,24.2 56.8,33 				"/>
				<polygon class="st1" points="31.3,7.2 25.2,13.3 25.2,7.2 				"/>
				<polygon class="st1" points="31.7,7.2 25.2,13.7 25.2,13.3 31.3,7.2 				"/>
				<polygon class="st1" points="32.1,7.2 25.2,14.1 25.2,13.7 31.7,7.2 				"/>
				<polygon class="st1" points="32.5,7.2 25.2,14.5 25.2,14.1 32.1,7.2 				"/>
				<polygon class="st1" points="32.9,7.2 25.2,14.9 25.2,14.5 32.5,7.2 				"/>
				<polygon class="st1" points="33.3,7.2 25.2,15.3 25.2,14.9 32.9,7.2 				"/>
				<polygon class="st1" points="33.7,7.2 25.2,15.7 25.2,15.3 33.3,7.2 				"/>
				<polygon class="st1" points="34.1,7.2 25.2,16.1 25.2,15.7 33.7,7.2 				"/>
				<polygon class="st1" points="34.5,7.2 25.2,16.5 25.2,16.1 34.1,7.2 				"/>
				<polygon class="st1" points="34.9,7.2 25.2,16.9 25.2,16.5 34.5,7.2 				"/>
				<polygon class="st1" points="35.3,7.2 25.2,17.3 25.2,16.9 34.9,7.2 				"/>
				<polygon class="st1" points="35.7,7.2 25.2,17.7 25.2,17.3 35.3,7.2 				"/>
				<polygon class="st1" points="36.1,7.2 25.2,18.1 25.2,18.1 25.2,17.7 35.7,7.2 				"/>
				<polygon class="st1" points="36.6,7.2 25.4,18.3 25.2,18.1 36.1,7.2 				"/>
				<polygon class="st1" points="37,7.2 25.6,18.5 25.4,18.3 36.6,7.2 				"/>
				<polygon class="st1" points="37.4,7.2 25.8,18.7 25.6,18.5 37,7.2 				"/>
				<polygon class="st1" points="37.8,7.2 26,18.9 25.8,18.7 37.4,7.2 				"/>
				<polygon class="st1" points="38.2,7.2 26.2,19.1 26,18.9 37.8,7.2 				"/>
				<polygon class="st1" points="38.6,7.2 26.4,19.3 26.2,19.1 38.2,7.2 				"/>
				<polygon class="st1" points="39,7.2 26.6,19.5 26.4,19.3 38.6,7.2 				"/>
				<polygon class="st1" points="39.4,7.2 26.8,19.7 26.6,19.5 39,7.2 				"/>
				<polygon class="st1" points="39.8,7.2 27,19.9 26.8,19.7 39.4,7.2 				"/>
				<polygon class="st1" points="40.2,7.2 27.2,20.1 27,19.9 39.8,7.2 				"/>
				<polygon class="st1" points="40.6,7.2 27.4,20.3 27.2,20.1 40.2,7.2 				"/>
				<polygon class="st1" points="41,7.2 27.6,20.5 27.4,20.3 40.6,7.2 				"/>
				<polygon class="st1" points="41.4,7.2 27.8,20.7 27.6,20.5 41,7.2 				"/>
				<polygon class="st1" points="41.8,7.2 28,20.9 27.8,20.7 41.4,7.2 				"/>
				<polygon class="st1" points="42.2,7.2 28.2,21.1 28,20.9 41.8,7.2 				"/>
				<polygon class="st1" points="42.6,7.2 28.4,21.3 28.2,21.1 42.2,7.2 				"/>
				<polygon class="st1" points="43,7.2 28.6,21.5 28.4,21.3 42.6,7.2 				"/>
				<polygon class="st1" points="43.4,7.2 28.8,21.7 28.6,21.5 43,7.2 				"/>
				<polygon class="st1" points="43.8,7.2 29,21.9 28.8,21.7 43.4,7.2 				"/>
				<polygon class="st1" points="44.2,7.2 29.2,22.1 29,21.9 43.8,7.2 				"/>
				<polygon class="st1" points="44.6,7.2 29.4,22.3 29.2,22.1 44.2,7.2 				"/>
				<polygon class="st1" points="45,7.2 29.6,22.5 29.4,22.3 44.6,7.2 				"/>
				<polygon class="st1" points="45.4,7.2 29.8,22.7 29.6,22.5 45,7.2 				"/>
				<polygon class="st1" points="45.8,7.2 30,22.9 29.8,22.7 45.4,7.2 				"/>
				<polygon class="st1" points="46.2,7.2 30.2,23.1 30,22.9 45.8,7.2 				"/>
				<polygon class="st1" points="46.6,7.2 30.4,23.3 30.2,23.1 46.2,7.2 				"/>
				<polygon class="st1" points="47,7.2 30.6,23.5 30.4,23.3 46.6,7.2 				"/>
				<polygon class="st1" points="47.4,7.2 30.8,23.7 30.6,23.5 47,7.2 				"/>
				<polygon class="st1" points="47.8,7.2 31,23.9 30.8,23.7 47.4,7.2 				"/>
				<polygon class="st1" points="48.2,7.2 31.2,24.1 31,23.9 47.8,7.2 				"/>
				<polygon class="st1" points="48.6,7.2 31.4,24.3 31.2,24.1 48.2,7.2 				"/>
				<polygon class="st1" points="49,7.2 31.6,24.5 31.4,24.3 48.6,7.2 				"/>
				<polygon class="st1" points="49.4,7.2 31.8,24.7 31.6,24.5 49,7.2 				"/>
				<polygon class="st1" points="49.8,7.2 32,24.9 31.8,24.7 49.4,7.2 				"/>
				<polygon class="st1" points="50.2,7.2 32.4,25 32,25 32,24.9 49.8,7.2 				"/>
				<polygon class="st1" points="50.6,7.2 32.8,25 32.4,25 50.2,7.2 				"/>
				<polygon class="st1" points="51,7.2 33.2,25 32.8,25 50.6,7.2 				"/>
				<polygon class="st1" points="51.4,7.2 33.6,25 33.2,25 51,7.2 				"/>
				<polygon class="st1" points="51.8,7.2 34,25 33.6,25 51.4,7.2 				"/>
				<polygon class="st1" points="52.2,7.2 34.4,25 34,25 51.8,7.2 				"/>
				<polygon class="st1" points="52.6,7.2 34.8,25 34.4,25 52.2,7.2 				"/>
				<polygon class="st1" points="53,7.2 35.2,25 34.8,25 52.6,7.2 				"/>
				<polygon class="st1" points="53.4,7.2 35.6,25 35.2,25 53,7.2 				"/>
				<polygon class="st1" points="53.8,7.2 36,25 35.6,25 53.4,7.2 				"/>
				<polygon class="st1" points="54.2,7.2 36.4,25 36,25 53.8,7.2 				"/>
				<polygon class="st1" points="54.6,7.2 36.8,25 36.4,25 54.2,7.2 				"/>
				<polygon class="st1" points="55,7.2 37.2,25 36.8,25 54.6,7.2 				"/>
				<polygon class="st1" points="55.4,7.2 37.6,25 37.2,25 55,7.2 				"/>
				<polygon class="st1" points="55.5,7.5 38,25 37.6,25 55.4,7.2 55.5,7.2 				"/>
				<polygon class="st1" points="55.5,7.9 38.4,25 38,25 55.5,7.5 				"/>
				<polygon class="st1" points="55.5,8.3 38.8,25 38.4,25 55.5,7.9 				"/>
				<polygon class="st1" points="55.5,8.7 39.2,25 38.8,25 55.5,8.3 				"/>
				<polygon class="st1" points="55.5,9.1 39.6,25 39.2,25 55.5,8.7 				"/>
				<polygon class="st1" points="55.5,9.5 40,25 39.6,25 55.5,9.1 				"/>
				<polygon class="st1" points="55.5,9.9 40.4,25 40,25 55.5,9.5 				"/>
				<polygon class="st1" points="55.5,10.3 40.8,25 40.4,25 55.5,9.9 				"/>
				<polygon class="st1" points="55.5,10.7 41.2,25 40.8,25 55.5,10.3 				"/>
				<polygon class="st1" points="55.5,11.1 41.6,25 41.2,25 55.5,10.7 				"/>
				<polygon class="st1" points="55.5,11.5 42,25 41.6,25 55.5,11.1 				"/>
				<polygon class="st1" points="55.5,11.9 42.4,25 42,25 55.5,11.5 				"/>
				<polygon class="st1" points="55.5,12.3 42.9,25 42.4,25 55.5,11.9 				"/>
				<polygon class="st1" points="55.5,12.7 43.3,25 42.9,25 55.5,12.3 				"/>
				<polygon class="st1" points="55.5,13.1 43.7,25 43.3,25 55.5,12.7 				"/>
				<polygon class="st1" points="55.5,13.5 44.1,25 43.7,25 55.5,13.1 				"/>
				<polygon class="st1" points="55.5,13.9 44.5,25 44.1,25 55.5,13.5 				"/>
				<polygon class="st1" points="55.5,14.3 44.9,25 44.5,25 55.5,13.9 				"/>
				<polygon class="st1" points="55.5,14.7 45.3,25 44.9,25 55.5,14.3 				"/>
				<polygon class="st1" points="55.5,15.1 45.7,25 45.3,25 55.5,14.7 				"/>
				<polygon class="st1" points="55.5,15.5 46.1,25 45.7,25 55.5,15.1 				"/>
				<polygon class="st1" points="55.5,15.9 46.5,25 46.1,25 55.5,15.5 				"/>
				<polygon class="st1" points="55.5,16.3 46.9,25 46.5,25 55.5,15.9 				"/>
				<polygon class="st1" points="55.5,16.7 47.3,25 46.9,25 55.5,16.3 				"/>
				<polygon class="st1" points="55.5,17.1 47.7,25 47.3,25 55.5,16.7 				"/>
				<polygon class="st1" points="55.5,17.5 48.1,25 47.7,25 55.5,17.1 				"/>
				<polygon class="st1" points="55.5,17.9 48.5,25 48.1,25 55.5,17.5 				"/>
				<polygon class="st1" points="55.5,18.3 48.9,25 48.5,25 55.5,17.9 				"/>
				<polygon class="st1" points="55.5,18.7 49.3,25 48.9,25 55.5,18.3 				"/>
				<polygon class="st1" points="55.5,19.1 49.7,25 49.3,25 55.5,18.7 				"/>
				<polygon class="st1" points="55.5,19.5 50.1,25 49.7,25 55.5,19.1 				"/>
				<polygon class="st1" points="55.5,19.9 50.5,25 50.1,25 55.5,19.5 				"/>
				<polygon class="st1" points="55.5,20.3 50.9,25 50.5,25 55.5,19.9 				"/>
				<polygon class="st1" points="55.5,20.7 51.3,25 50.9,25 55.5,20.3 				"/>
				<polygon class="st1" points="55.5,21.1 51.7,25 51.3,25 55.5,20.7 				"/>
				<polygon class="st1" points="55.5,21.5 52.1,25 51.7,25 55.5,21.1 				"/>
				<polygon class="st1" points="55.5,21.9 52.5,25 52.1,25 55.5,21.5 				"/>
				<polygon class="st1" points="55.5,22.3 52.9,25 52.5,25 55.5,21.9 				"/>
				<polygon class="st1" points="55.5,22.7 53.3,25 52.9,25 55.5,22.3 				"/>
				<polygon class="st1" points="55.5,23.2 53.7,25 53.3,25 55.5,22.7 				"/>
				<polygon class="st1" points="55.5,23.6 54.1,25 53.7,25 55.5,23.2 				"/>
				<polygon class="st1" points="55.5,24 54.5,25 54.1,25 55.5,23.6 				"/>
				<polygon class="st1" points="55.5,24.4 54.9,25 54.5,25 55.5,24 				"/>
				<polygon class="st1" points="55.5,24.8 55.3,25 54.9,25 55.5,24.4 				"/>
				<polygon class="st1" points="55.3,25 55.5,24.8 55.5,25 				"/>
				<polygon class="st1" points="35.6,3 28.2,10.3 28.2,3 				"/>
				<polygon class="st1" points="36,3 28.2,10.7 28.2,10.3 35.6,3 				"/>
				<polygon class="st1" points="36.4,3 28.2,11.1 28.2,10.7 36,3 				"/>
				<polygon class="st1" points="36.8,3 28.2,11.5 28.2,11.1 36.4,3 				"/>
				<polygon class="st1" points="37.2,3 28.5,11.6 28.2,11.6 28.2,11.5 36.8,3 				"/>
				<polygon class="st1" points="37.6,3 28.9,11.6 28.5,11.6 37.2,3 				"/>
				<polygon class="st1" points="38,3 29.3,11.6 28.9,11.6 37.6,3 				"/>
				<polygon class="st1" points="38.4,3 29.7,11.6 29.3,11.6 38,3 				"/>
				<polygon class="st1" points="38.8,3 30.1,11.6 29.7,11.6 38.4,3 				"/>
				<polygon class="st1" points="39.2,3 30.5,11.6 30.1,11.6 38.8,3 				"/>
				<polygon class="st1" points="39.6,3 30.9,11.6 30.5,11.6 39.2,3 				"/>
				<polygon class="st1" points="40,3 31.3,11.6 30.9,11.6 39.6,3 				"/>
				<polygon class="st1" points="40.4,3 31.7,11.6 31.3,11.6 40,3 				"/>
				<polygon class="st1" points="40.8,3 32.1,11.6 31.7,11.6 40.4,3 				"/>
				<polygon class="st1" points="41.2,3 32.5,11.6 32.1,11.6 40.8,3 				"/>
				<polygon class="st1" points="41.6,3 32.9,11.6 32.5,11.6 41.2,3 				"/>
				<polygon class="st1" points="42,3 33.3,11.6 32.9,11.6 41.6,3 				"/>
				<polygon class="st1" points="42.4,3 33.7,11.6 33.3,11.6 42,3 				"/>
				<polygon class="st1" points="42.8,3 34.1,11.6 33.7,11.6 42.4,3 				"/>
				<polygon class="st1" points="43.2,3 34.5,11.6 34.1,11.6 42.8,3 				"/>
				<polygon class="st1" points="43.6,3 34.9,11.6 34.5,11.6 43.2,3 				"/>
				<polygon class="st1" points="44,3 35.3,11.6 34.9,11.6 43.6,3 				"/>
				<polygon class="st1" points="44.4,3 35.7,11.6 35.3,11.6 44,3 				"/>
				<polygon class="st1" points="44.8,3 36.1,11.6 35.7,11.6 44.4,3 				"/>
				<polygon class="st1" points="45.2,3 36.5,11.6 36.1,11.6 44.8,3 				"/>
				<polygon class="st1" points="45.6,3 36.9,11.6 36.5,11.6 45.2,3 				"/>
				<polygon class="st1" points="46,3 37.3,11.6 36.9,11.6 45.6,3 				"/>
				<polygon class="st1" points="46.4,3 37.7,11.6 37.3,11.6 46,3 				"/>
				<polygon class="st1" points="46.8,3 38.1,11.6 37.7,11.6 46.4,3 				"/>
				<polygon class="st1" points="47.2,3 38.5,11.6 38.1,11.6 46.8,3 				"/>
				<polygon class="st1" points="47.6,3 38.9,11.6 38.5,11.6 47.2,3 				"/>
				<polygon class="st1" points="48,3 39.3,11.6 38.9,11.6 47.6,3 				"/>
				<polygon class="st1" points="48.4,3 39.7,11.6 39.3,11.6 48,3 				"/>
				<polygon class="st1" points="48.8,3 40.1,11.6 39.7,11.6 48.4,3 				"/>
				<polygon class="st1" points="49.2,3 40.5,11.6 40.1,11.6 48.8,3 				"/>
				<polygon class="st1" points="49.6,3 40.9,11.6 40.5,11.6 49.2,3 				"/>
				<polygon class="st1" points="49.9,3 50,3 41.3,11.6 40.9,11.6 49.6,3 				"/>
				<polygon class="st1" points="50,3 50.2,3.2 41.7,11.6 41.3,11.6 				"/>
				<polygon class="st1" points="50.2,3.2 50.4,3.4 42.1,11.6 41.7,11.6 				"/>
				<polygon class="st1" points="50.4,3.4 50.6,3.6 42.5,11.6 42.1,11.6 				"/>
				<polygon class="st1" points="50.6,3.6 50.8,3.8 42.9,11.6 42.5,11.6 				"/>
				<polygon class="st1" points="50.8,3.8 51,4 43.3,11.6 42.9,11.6 				"/>
				<polygon class="st1" points="51,4 51.2,4.2 43.7,11.6 43.3,11.6 				"/>
				<polygon class="st1" points="51.2,4.2 51.3,4.3 51.3,4.4 44.1,11.6 43.7,11.6 				"/>
				<polygon class="st1" points="51.3,4.8 44.5,11.6 44.1,11.6 51.3,4.4 				"/>
				<polygon class="st1" points="51.3,5.2 44.9,11.6 44.5,11.6 51.3,4.8 				"/>
				<polygon class="st1" points="51.3,5.6 45.3,11.6 44.9,11.6 51.3,5.2 				"/>
				<polygon class="st1" points="51.3,6 45.7,11.6 45.3,11.6 51.3,5.6 				"/>
				<polygon class="st1" points="51.3,6.5 46.1,11.6 45.7,11.6 51.3,6 				"/>
				<polygon class="st1" points="51.3,6.9 46.5,11.6 46.1,11.6 51.3,6.5 				"/>
				<polygon class="st1" points="51.3,7.3 46.9,11.6 46.5,11.6 51.3,6.9 				"/>
				<polygon class="st1" points="51.3,7.7 47.3,11.6 46.9,11.6 51.3,7.3 				"/>
				<polygon class="st1" points="51.3,8.1 47.7,11.6 47.3,11.6 51.3,7.7 				"/>
				<polygon class="st1" points="51.3,8.5 48.1,11.6 47.7,11.6 51.3,8.1 				"/>
				<polygon class="st1" points="51.3,8.9 48.6,11.6 48.1,11.6 51.3,8.5 				"/>
				<polygon class="st1" points="51.3,9.3 49,11.6 48.6,11.6 51.3,8.9 				"/>
				<polygon class="st1" points="51.3,9.7 49.4,11.6 49,11.6 51.3,9.3 				"/>
				<polygon class="st1" points="51.3,10.1 49.8,11.6 49.4,11.6 51.3,9.7 				"/>
				<polygon class="st1" points="51.3,10.5 50.2,11.6 49.8,11.6 51.3,10.1 				"/>
				<polygon class="st1" points="51.3,10.9 50.6,11.6 50.2,11.6 51.3,10.5 				"/>
				<polygon class="st1" points="51.3,11.3 51,11.6 50.6,11.6 51.3,10.9 				"/>
				<polygon class="st1" points="51,11.6 51.3,11.3 51.3,11.6 				"/>
			</g>
		</g>
	</g>
</g>
</svg>
