<?xml version="1.0" encoding="utf-8"?>
<!-- Generator: Adobe Illustrator 25.2.0, SVG Export Plug-In . SVG Version: 6.00 Build 0)  -->
<svg version="1.1" id="Layer_1" xmlns:v="https://vecta.io/nano"
	 xmlns="http://www.w3.org/2000/svg" xmlns:xlink="http://www.w3.org/1999/xlink" x="0px" y="0px" viewBox="0 0 154 36"
	 style="enable-background:new 0 0 154 36;" xml:space="preserve">
<style type="text/css">
	.st0{fill:#FFFFFF;}
	.st1{fill:#B4B7C9;}
	.st2{font-family:'Roboto-Bold';}
	.st3{font-size:4.3591px;}
</style>
<g>
	<g>
		<g>
			<g>
				<path class="st0" d="M30,9.4c-0.1-0.1-0.3-0.2-0.4-0.2c0,0,0,0,0,0h-1.1H28c-0.3,0-0.6,0.3-0.6,0.6v2.5c0,0.3,0.3,0.6,0.6,0.6
					h1.6c0.2,0,0.3-0.1,0.4-0.2c0.1-0.1,0.1-0.2,0.1-0.4V12V10V9.7C30.2,9.6,30.1,9.5,30,9.4z"/>
				<path class="st0" d="M42.2,26.5c0.3-0.4,0.9-0.5,1.3-0.1c0.8,0.7,2.2,1.4,3.5,1.4c0.9,0,1.8-0.3,2.3-0.7s0.8-0.9,0.8-1.3
					c0-0.2-0.1-0.4-0.2-0.6c-0.1-0.2-0.3-0.4-0.6-0.6c-0.5-0.4-1.4-0.7-2.5-0.9h0c-0.9-0.2-1.7-0.4-2.4-0.7
					c-0.7-0.3-1.3-0.8-1.7-1.4c-0.3-0.4-0.4-1-0.4-1.5c0-1.1,0.6-2.1,1.5-2.7c0.9-0.6,2-1,3.2-1c1.8,0,3.1,0.9,4,1.5
					c0.4,0.3,0.6,0.9,0.3,1.3c-0.3,0.4-0.9,0.6-1.3,0.3c-0.9-0.6-1.8-1.2-3-1.2c-0.8,0-1.6,0.3-2.1,0.6c-0.5,0.4-0.7,0.8-0.7,1.2
					c0,0.2,0,0.4,0.1,0.5c0.1,0.1,0.3,0.3,0.5,0.5c0.5,0.3,1.3,0.6,2.3,0.8h0c0.9,0.2,1.8,0.4,2.5,0.8c0.8,0.4,1.4,0.8,1.8,1.5
					c0.3,0.4,0.4,1,0.4,1.6c0,1.2-0.7,2.2-1.6,2.9c-0.9,0.7-2.1,1.1-3.4,1.1c-2,0-3.7-1-4.7-1.8C41.9,27.5,41.9,26.9,42.2,26.5z"/>
			</g>
			<path class="st1" d="M52.3,28.9h-0.2v-1.8c0,0,0-0.1,0-0.1c0.1-0.4,0.2-0.8,0.2-1.2c0-0.6-0.2-1.2-0.5-1.7c-0.4-0.7-1-1.2-2-1.6
				c-0.7-0.3-1.5-0.6-2.6-0.8c0,0,0,0-0.1,0h0c-0.9-0.2-1.7-0.5-2.2-0.8c-0.3-0.2-0.4-0.3-0.4-0.4c-0.1-0.1-0.1-0.2-0.1-0.4
				c0-0.3,0.2-0.6,0.6-0.9c0.5-0.4,1.2-0.6,1.9-0.6c1,0,1.9,0.5,2.8,1.1c0.3,0.2,0.6,0.3,0.9,0.2c0.3-0.1,0.6-0.3,0.8-0.5
				c0.2-0.3,0.3-0.6,0.2-0.9c-0.1-0.3-0.2-0.6-0.5-0.8l0,0c-1-0.6-2.3-1.5-4.1-1.5v-3.6h2.7c0,0,0,0,0,0c0,0,0,0,0,0c0,0,0,0,0.1,0
				c0,0,0,0,0,0c0,0,0,0,0.1,0c0,0,0,0,0,0c0,0,0,0,0,0c0,0,0,0,0,0c0,0,0,0,0,0c0,0,0,0,0-0.1c0,0,0,0,0,0c0,0,0,0,0,0
				c0,0,0,0,0-0.1c0,0,0,0,0,0c0,0,0,0,0-0.1c0,0,0,0,0,0c0,0,0,0,0-0.1c0,0,0,0,0,0c0,0,0,0,0-0.1l-2.2-2.6c0,0,0,0,0,0
				c0,0,0,0,0,0c0,0,0,0,0,0c0,0,0,0,0,0c0,0,0,0,0,0c0,0,0,0,0,0c0,0,0,0,0,0c0,0,0,0,0,0c0,0,0,0,0,0c0,0,0,0,0,0c0,0,0,0,0,0
				c0,0,0,0,0,0c0,0,0,0,0,0c0,0,0,0,0,0c0,0,0,0,0,0c0,0,0,0,0,0h-1.9L33.7,6c0,0,0,0,0,0c0,0,0,0,0,0c0,0,0,0-0.1,0c0,0,0,0,0,0
				c0,0,0,0-0.1,0c0,0,0,0,0,0c0,0,0,0,0,0c0,0,0,0,0,0l-4,2.6H28c-0.6,0-1.2,0.5-1.2,1.2v2.5c0,0.6,0.5,1.2,1.2,1.2h1.6
				c0.5,0,0.9-0.3,1.1-0.8h2h0.6v16.8h-2.4c-0.2,0-0.3,0.1-0.3,0.3s0.1,0.3,0.3,0.3h2.7h4h1.9c0.2,0,0.3-0.1,0.3-0.3
				s-0.1-0.3-0.3-0.3h-1.6V12.6h8.6v3.6c-1.1,0.1-2,0.4-2.8,1c-1,0.7-1.6,1.8-1.6,2.9c0,0.6,0.2,1.2,0.5,1.7c0.4,0.6,1,1.2,1.8,1.5
				c0.7,0.3,1.5,0.6,2.4,0.7c0,0,0,0,0.1,0h0c1,0.2,1.9,0.5,2.4,0.8c0.2,0.1,0.4,0.3,0.5,0.5c0.1,0.2,0.1,0.3,0.1,0.4
				c0,0.4-0.2,0.8-0.7,1.1c-0.5,0.4-1.3,0.6-2.1,0.6c0,0,0,0,0,0c-1.2,0-2.5-0.7-3.3-1.4c-0.3-0.2-0.6-0.3-0.9-0.3
				c-0.3,0-0.6,0.2-0.8,0.4c0,0,0,0,0,0c-0.4,0.5-0.3,1.2,0.1,1.6l0,0.9h-0.4c-0.2,0-0.3,0.1-0.3,0.3c0,0.2,0.1,0.3,0.3,0.3h0.4
				l0,0.3c0,0.2,0.1,0.3,0.3,0.3c0,0,0,0,0,0c0.2,0,0.3-0.1,0.3-0.3l0-0.3h1.5c0.1,0,0.1,0,0.1,0C45.1,29.8,46,30,47,30
				c1,0,1.9-0.2,2.7-0.6c0,0,0,0,0.1,0h1.8v0.3c0,0.2,0.1,0.3,0.3,0.3s0.3-0.1,0.3-0.3v-0.3h0.2c0.2,0,0.3-0.1,0.3-0.3
				C52.6,29,52.5,28.9,52.3,28.9z M46,12l1.6-1.9l1.6,1.9H46z M37,21l-3.1,1.7v-3.4L37,21z M34.2,18.8l3.1-1.7v3.4L34.2,18.8z
				 M37.3,21.5v3.4l-3.1-1.7L37.3,21.5z M33.9,18.3v-3.4l3.2,1.7L33.9,18.3z M33.9,23.6l3.1,1.7L33.9,27V23.6z M37.3,25.8v3.4
				l-3.1-1.7L37.3,25.8z M34.2,14.5l3.1-1.7v3.4L34.2,14.5z M30.2,12.2c0,0.1-0.1,0.3-0.1,0.4c-0.1,0.1-0.3,0.2-0.4,0.2H28
				c-0.3,0-0.6-0.3-0.6-0.6V9.7c0-0.3,0.3-0.6,0.6-0.6h0.6h1.1c0,0,0,0,0,0c0.2,0,0.3,0.1,0.4,0.2c0.1,0.1,0.1,0.2,0.1,0.4V10V12
				V12.2z M33.9,6.9l2.9,2.5h-2.9V6.9z M47,10l-1.4,1.7L44.1,10h1.6H47z M38.4,10l-1.5,1.8L35.4,10H38.4z M34.2,10l-1.5,1.8L31.1,10
				H34.2z M34.8,10.1l1.6,1.9h-3.2L34.8,10.1z M37.4,12l1.6-1.9l1.6,1.9H37.4z M39.6,10h3.2l-1.6,1.9L39.6,10z M43.5,10.1L45,12
				h-3.2L43.5,10.1z M37.7,9.4l-2.9-2.5l8.8,2.5H37.7z M33.3,6.8v2.6h-2.6c-0.1-0.3-0.3-0.5-0.5-0.6L33.3,6.8z M30.8,12v-1.6
				l1.3,1.6H30.8z M36.5,12.6L33.9,14v-1.4H36.5z M33.9,28l2.7,1.4h-2.7V28z M42.6,28.9l0-0.4c0.2,0.1,0.4,0.3,0.6,0.4H42.6z
				 M42.5,27.7c-0.3-0.2-0.3-0.7-0.1-0.9c0.2-0.3,0.7-0.3,0.9-0.1c0.9,0.7,2.3,1.5,3.7,1.5c0.9,0,1.8-0.3,2.5-0.7
				c0.8-0.6,0.9-1.2,0.9-1.6c0-0.3-0.1-0.5-0.2-0.7c-0.1-0.2-0.4-0.5-0.6-0.6c-0.6-0.4-1.5-0.7-2.6-0.9c0,0,0,0-0.1,0h0
				c-0.9-0.2-1.7-0.4-2.3-0.7c-0.7-0.3-1.3-0.8-1.6-1.3c-0.2-0.4-0.4-0.9-0.4-1.4c0-0.9,0.5-1.8,1.4-2.5c0.8-0.6,1.9-0.9,3-0.9
				c1.7,0,2.9,0.8,3.8,1.4l0,0c0.1,0.1,0.2,0.3,0.3,0.4c0,0.2,0,0.3-0.1,0.5c-0.1,0.1-0.2,0.2-0.4,0.3c-0.2,0-0.3,0-0.5-0.1
				c-1-0.7-1.9-1.2-3.1-1.2c-0.8,0-1.6,0.2-2.2,0.7c-0.7,0.5-0.8,1-0.8,1.4c0,0.3,0.1,0.5,0.2,0.7c0.1,0.2,0.3,0.4,0.6,0.6
				c0.5,0.4,1.4,0.7,2.4,0.9c0,0,0,0,0.1,0h0c1,0.2,1.8,0.4,2.4,0.7c0.8,0.4,1.4,0.9,1.7,1.4c0.3,0.4,0.4,0.9,0.4,1.4
				c0,1-0.5,2-1.5,2.6c-0.9,0.6-2,1-3.2,1C45.1,29.4,43.5,28.5,42.5,27.7z M50.7,28.9c0.3-0.2,0.6-0.5,0.9-0.8v0.8H50.7z"/>
		</g>
	</g>
	<g>
		<g>
			<path class="st1" d="M63.5,16.3h-2.2v6.8h-1.9v-6.8h-2.1v-1.5h6.3V16.3z"/>
			<path class="st1" d="M69.1,19.5h-2.9v2.1h3.5v1.5h-5.4v-8.3h5.4v1.5h-3.5V18h2.9V19.5z"/>
			<path class="st1" d="M73.2,19.7h-0.5v3.3h-1.9v-8.3h1.9V18H73l1.9-3.2h2.4l-2.6,3.8l2.8,4.5h-2.5L73.2,19.7z"/>
			<path class="st1" d="M85,23.1h-1.9l-3-5.2l0,0v5.2h-1.9v-8.3h1.9l3,5.2l0,0v-5.2H85V23.1z"/>
			<path class="st1" d="M88.4,23.1h-1.9v-8.3h1.9V23.1z"/>
			<path class="st1" d="M92.3,19.7h-0.5v3.3h-1.9v-8.3h1.9V18h0.4l1.9-3.2h2.4l-2.6,3.8l2.8,4.5h-2.5L92.3,19.7z"/>
			<path class="st1" d="M104.4,20.9c0-0.3-0.1-0.5-0.3-0.7c-0.2-0.2-0.5-0.3-1.1-0.5c-1-0.3-1.8-0.7-2.3-1.1
				c-0.5-0.4-0.7-0.9-0.7-1.6c0-0.7,0.3-1.3,0.9-1.7s1.3-0.6,2.2-0.6c0.9,0,1.7,0.2,2.3,0.7c0.6,0.4,0.9,1.1,0.8,1.9l0,0h-1.9
				c0-0.4-0.1-0.7-0.3-0.8c-0.2-0.2-0.5-0.3-1-0.3c-0.3,0-0.6,0.1-0.8,0.3c-0.2,0.2-0.3,0.4-0.3,0.6c0,0.2,0.1,0.4,0.3,0.6
				c0.2,0.1,0.6,0.3,1.2,0.5c1,0.3,1.7,0.6,2.2,1c0.5,0.4,0.7,1,0.7,1.7c0,0.7-0.3,1.3-0.9,1.7c-0.6,0.4-1.3,0.6-2.3,0.6
				c-0.9,0-1.7-0.2-2.4-0.7c-0.6-0.4-1-1.1-0.9-2.1l0,0h1.9c0,0.5,0.1,0.8,0.4,1c0.2,0.2,0.6,0.3,1.1,0.3c0.4,0,0.7-0.1,0.9-0.2
				C104.3,21.3,104.4,21.1,104.4,20.9z"/>
			<path class="st1" d="M109.4,23.1h-1.9v-8.3h1.9V23.1z"/>
			<path class="st1" d="M112.7,20.2v2.8h-1.9v-8.3h3.2c1,0,1.8,0.2,2.3,0.7c0.6,0.5,0.9,1.2,0.9,2c0,0.8-0.3,1.5-0.9,2
				c-0.6,0.5-1.4,0.7-2.3,0.7H112.7z M112.7,18.8h1.2c0.4,0,0.7-0.1,1-0.3c0.2-0.2,0.3-0.5,0.3-0.9c0-0.4-0.1-0.7-0.3-0.9
				c-0.2-0.2-0.5-0.4-1-0.4h-1.2V18.8z"/>
			<path class="st1" d="M120.3,23.1h-1.9v-8.3h1.9V23.1z"/>
			<path class="st1" d="M123.6,21.6h3.5v1.5h-5.5v-8.3h1.9V21.6z"/>
		</g>
	</g>
	<g>
		<path class="st1" d="M62.2,25.3v2.6c0,0.4-0.1,0.8-0.4,1c-0.3,0.2-0.6,0.4-1.1,0.4c-0.4,0-0.8-0.1-1-0.4c-0.3-0.2-0.4-0.6-0.4-1
			v-2.6h0.5v2.6c0,0.3,0.1,0.5,0.3,0.7c0.2,0.2,0.4,0.3,0.7,0.3c0.3,0,0.5-0.1,0.7-0.3c0.2-0.2,0.3-0.4,0.3-0.7v-2.6H62.2z"/>
		<path class="st1" d="M63.4,26.3l0,0.4c0.1-0.2,0.2-0.3,0.4-0.4c0.1-0.1,0.3-0.1,0.5-0.1c0.3,0,0.5,0.1,0.7,0.3
			c0.2,0.2,0.3,0.5,0.3,0.8v1.8h-0.5v-1.8c0-0.3,0-0.4-0.1-0.5c-0.1-0.1-0.3-0.2-0.5-0.2c-0.2,0-0.3,0-0.4,0.1
			c-0.1,0.1-0.2,0.2-0.3,0.3v2.1H63v-2.9H63.4z"/>
		<path class="st1" d="M66.6,25.5h-0.5V25h0.5V25.5z M66.6,29.1h-0.5v-2.9h0.5V29.1z"/>
		<path class="st1" d="M68.4,28.3l0,0.2h0l0.1-0.2l0.7-2h0.5l-1.1,2.9h-0.4l-1.1-2.9h0.5L68.4,28.3z"/>
		<path class="st1" d="M71.3,29.2c-0.4,0-0.7-0.1-1-0.4c-0.2-0.3-0.3-0.6-0.3-1v-0.1c0-0.4,0.1-0.8,0.4-1c0.2-0.3,0.5-0.4,0.9-0.4
			c0.4,0,0.7,0.1,0.9,0.4c0.2,0.2,0.3,0.6,0.3,0.9v0.3h-1.8l0,0c0,0.3,0.1,0.5,0.2,0.7c0.1,0.2,0.3,0.3,0.6,0.3c0.2,0,0.3,0,0.5-0.1
			s0.2-0.1,0.3-0.2l0.2,0.3c-0.1,0.1-0.2,0.2-0.4,0.3C71.7,29.1,71.5,29.2,71.3,29.2z M71.2,26.6c-0.2,0-0.3,0.1-0.5,0.2
			c-0.1,0.1-0.2,0.3-0.2,0.5l0,0h1.3v0c0-0.2-0.1-0.4-0.2-0.5C71.6,26.7,71.4,26.6,71.2,26.6z"/>
		<path class="st1" d="M74.3,26.7l-0.3,0c-0.1,0-0.3,0-0.3,0.1c-0.1,0.1-0.2,0.2-0.2,0.3v2h-0.5v-2.9h0.5l0.1,0.4
			c0.1-0.1,0.2-0.3,0.3-0.3c0.1-0.1,0.3-0.1,0.4-0.1c0,0,0.1,0,0.1,0c0,0,0.1,0,0.1,0L74.3,26.7z"/>
		<path class="st1" d="M76.5,28.4c0-0.1,0-0.2-0.1-0.3s-0.3-0.1-0.5-0.2c-0.3-0.1-0.6-0.2-0.8-0.3c-0.2-0.1-0.3-0.3-0.3-0.5
			c0-0.2,0.1-0.4,0.3-0.6c0.2-0.2,0.5-0.2,0.8-0.2c0.3,0,0.6,0.1,0.8,0.3c0.2,0.2,0.3,0.4,0.3,0.6l0,0h-0.5c0-0.1-0.1-0.2-0.2-0.3
			c-0.1-0.1-0.2-0.2-0.4-0.2c-0.2,0-0.3,0-0.4,0.1c-0.1,0.1-0.1,0.2-0.1,0.3c0,0.1,0,0.2,0.1,0.3c0.1,0.1,0.2,0.1,0.5,0.2
			c0.4,0.1,0.6,0.2,0.8,0.3c0.2,0.1,0.3,0.3,0.3,0.5c0,0.3-0.1,0.5-0.3,0.6c-0.2,0.2-0.5,0.2-0.8,0.2c-0.4,0-0.7-0.1-0.9-0.3
			c-0.2-0.2-0.3-0.4-0.3-0.6l0,0h0.5c0,0.2,0.1,0.3,0.2,0.4c0.1,0.1,0.3,0.1,0.5,0.1c0.2,0,0.3,0,0.4-0.1
			C76.5,28.6,76.5,28.5,76.5,28.4z"/>
		<path class="st1" d="M78.2,25.5h-0.5V25h0.5V25.5z M78.2,29.1h-0.5v-2.9h0.5V29.1z"/>
		<path class="st1" d="M79.8,25.6v0.7h0.5v0.4h-0.5v1.7c0,0.1,0,0.2,0.1,0.3c0.1,0.1,0.1,0.1,0.2,0.1c0,0,0.1,0,0.1,0
			c0,0,0.1,0,0.1,0l0.1,0.4c0,0-0.1,0.1-0.2,0.1c-0.1,0-0.2,0-0.2,0c-0.2,0-0.4-0.1-0.5-0.2c-0.1-0.1-0.2-0.3-0.2-0.6v-1.7h-0.5
			v-0.4h0.5v-0.7H79.8z"/>
		<path class="st1" d="M82.6,29.1c0-0.1,0-0.2,0-0.2c0-0.1,0-0.1,0-0.2c-0.1,0.1-0.2,0.3-0.4,0.3c-0.2,0.1-0.3,0.1-0.5,0.1
			c-0.3,0-0.5-0.1-0.7-0.2c-0.2-0.2-0.2-0.4-0.2-0.6c0-0.3,0.1-0.5,0.3-0.6c0.2-0.2,0.5-0.2,0.9-0.2h0.6v-0.3c0-0.2-0.1-0.3-0.2-0.4
			c-0.1-0.1-0.2-0.1-0.4-0.1c-0.2,0-0.3,0-0.4,0.1c-0.1,0.1-0.2,0.2-0.2,0.3l-0.5,0l0,0c0-0.2,0.1-0.4,0.3-0.6
			c0.2-0.2,0.5-0.3,0.8-0.3c0.3,0,0.6,0.1,0.8,0.2c0.2,0.2,0.3,0.4,0.3,0.7v1.4c0,0.1,0,0.2,0,0.3s0,0.2,0.1,0.3H82.6z M81.8,28.7
			c0.2,0,0.4,0,0.5-0.1c0.2-0.1,0.3-0.2,0.3-0.3v-0.5H82c-0.2,0-0.4,0.1-0.5,0.2c-0.1,0.1-0.2,0.2-0.2,0.4c0,0.1,0,0.2,0.1,0.3
			C81.5,28.7,81.6,28.7,81.8,28.7z"/>
		<path class="st1" d="M85.5,28.4c0-0.1,0-0.2-0.1-0.3c-0.1-0.1-0.3-0.1-0.5-0.2c-0.3-0.1-0.6-0.2-0.8-0.3c-0.2-0.1-0.3-0.3-0.3-0.5
			c0-0.2,0.1-0.4,0.3-0.6c0.2-0.2,0.5-0.2,0.8-0.2c0.3,0,0.6,0.1,0.8,0.3c0.2,0.2,0.3,0.4,0.3,0.6l0,0h-0.5c0-0.1-0.1-0.2-0.2-0.3
			c-0.1-0.1-0.2-0.2-0.4-0.2c-0.2,0-0.3,0-0.4,0.1c-0.1,0.1-0.1,0.2-0.1,0.3c0,0.1,0,0.2,0.1,0.3c0.1,0.1,0.2,0.1,0.5,0.2
			c0.4,0.1,0.6,0.2,0.8,0.3c0.2,0.1,0.3,0.3,0.3,0.5c0,0.3-0.1,0.5-0.3,0.6s-0.5,0.2-0.8,0.2c-0.4,0-0.7-0.1-0.9-0.3
			c-0.2-0.2-0.3-0.4-0.3-0.6l0,0h0.5c0,0.2,0.1,0.3,0.2,0.4c0.1,0.1,0.3,0.1,0.5,0.1c0.2,0,0.3,0,0.4-0.1
			C85.5,28.6,85.5,28.5,85.5,28.4z"/>
		<path class="st1" d="M90.1,28.2c0-0.2-0.1-0.3-0.2-0.4c-0.1-0.1-0.3-0.2-0.7-0.3c-0.4-0.1-0.7-0.2-0.9-0.4
			c-0.2-0.2-0.3-0.4-0.3-0.7c0-0.3,0.1-0.6,0.4-0.8c0.2-0.2,0.5-0.3,0.9-0.3c0.4,0,0.7,0.1,1,0.3c0.2,0.2,0.4,0.5,0.4,0.8l0,0h-0.5
			c0-0.2-0.1-0.4-0.2-0.5c-0.2-0.1-0.3-0.2-0.6-0.2c-0.2,0-0.4,0.1-0.6,0.2c-0.1,0.1-0.2,0.3-0.2,0.5c0,0.2,0.1,0.3,0.2,0.4
			s0.4,0.2,0.7,0.3c0.4,0.1,0.7,0.2,0.9,0.4c0.2,0.2,0.3,0.4,0.3,0.7c0,0.3-0.1,0.6-0.4,0.7c-0.2,0.2-0.6,0.3-1,0.3
			c-0.4,0-0.7-0.1-1-0.3c-0.3-0.2-0.4-0.5-0.4-0.8l0,0h0.5c0,0.2,0.1,0.4,0.3,0.6c0.2,0.1,0.4,0.2,0.6,0.2c0.2,0,0.4-0.1,0.6-0.2
			C90.1,28.5,90.1,28.3,90.1,28.2z"/>
		<path class="st1" d="M93.1,28.7c-0.1,0.2-0.2,0.3-0.3,0.4c-0.1,0.1-0.3,0.1-0.5,0.1c-0.3,0-0.6-0.1-0.7-0.3
			c-0.2-0.2-0.3-0.5-0.3-0.9v-1.7h0.5V28c0,0.3,0,0.5,0.1,0.6c0.1,0.1,0.2,0.2,0.4,0.2c0.2,0,0.3,0,0.5-0.1c0.1-0.1,0.2-0.2,0.3-0.3
			v-2.1h0.5v2.9h-0.5L93.1,28.7z"/>
		<path class="st1" d="M94.9,26.3l0,0.4c0.1-0.1,0.2-0.2,0.4-0.3s0.3-0.1,0.5-0.1c0.2,0,0.4,0,0.5,0.1c0.1,0.1,0.2,0.2,0.3,0.4
			c0.1-0.2,0.2-0.3,0.4-0.4c0.1-0.1,0.3-0.1,0.5-0.1c0.3,0,0.5,0.1,0.7,0.3c0.2,0.2,0.3,0.5,0.3,0.9v1.7h-0.5v-1.7
			c0-0.3,0-0.5-0.1-0.6c-0.1-0.1-0.2-0.2-0.4-0.2c-0.2,0-0.3,0.1-0.4,0.2s-0.2,0.3-0.2,0.5v0v1.8h-0.5v-1.7c0-0.3,0-0.5-0.1-0.6
			c-0.1-0.1-0.2-0.2-0.4-0.2c-0.2,0-0.3,0-0.4,0.1c-0.1,0.1-0.2,0.2-0.2,0.3v2.1h-0.5v-2.9H94.9z"/>
		<path class="st1" d="M100.9,29.1c0-0.1,0-0.2,0-0.2c0-0.1,0-0.1,0-0.2c-0.1,0.1-0.2,0.3-0.4,0.3c-0.2,0.1-0.3,0.1-0.5,0.1
			c-0.3,0-0.5-0.1-0.7-0.2c-0.2-0.2-0.2-0.4-0.2-0.6c0-0.3,0.1-0.5,0.3-0.6c0.2-0.2,0.5-0.2,0.9-0.2h0.6v-0.3c0-0.2-0.1-0.3-0.2-0.4
			c-0.1-0.1-0.2-0.1-0.4-0.1c-0.2,0-0.3,0-0.4,0.1c-0.1,0.1-0.2,0.2-0.2,0.3l-0.5,0l0,0c0-0.2,0.1-0.4,0.3-0.6
			c0.2-0.2,0.5-0.3,0.8-0.3c0.3,0,0.6,0.1,0.8,0.2c0.2,0.2,0.3,0.4,0.3,0.7v1.4c0,0.1,0,0.2,0,0.3s0,0.2,0.1,0.3H100.9z M100,28.7
			c0.2,0,0.4,0,0.5-0.1c0.2-0.1,0.3-0.2,0.3-0.3v-0.5h-0.6c-0.2,0-0.4,0.1-0.5,0.2c-0.1,0.1-0.2,0.2-0.2,0.4c0,0.1,0,0.2,0.1,0.3
			C99.8,28.7,99.9,28.7,100,28.7z"/>
		<path class="st1" d="M102.8,25.6v0.7h0.5v0.4h-0.5v1.7c0,0.1,0,0.2,0.1,0.3c0.1,0.1,0.1,0.1,0.2,0.1c0,0,0.1,0,0.1,0
			c0,0,0.1,0,0.1,0l0.1,0.4c0,0-0.1,0.1-0.2,0.1c-0.1,0-0.2,0-0.2,0c-0.2,0-0.4-0.1-0.5-0.2c-0.1-0.1-0.2-0.3-0.2-0.6v-1.7h-0.5
			v-0.4h0.5v-0.7H102.8z"/>
		<path class="st1" d="M105.1,29.2c-0.4,0-0.7-0.1-1-0.4c-0.2-0.3-0.3-0.6-0.3-1v-0.1c0-0.4,0.1-0.8,0.4-1c0.2-0.3,0.5-0.4,0.9-0.4
			c0.4,0,0.7,0.1,0.9,0.4c0.2,0.2,0.3,0.6,0.3,0.9v0.3h-1.8l0,0c0,0.3,0.1,0.5,0.2,0.7s0.3,0.3,0.6,0.3c0.2,0,0.3,0,0.5-0.1
			s0.2-0.1,0.3-0.2l0.2,0.3c-0.1,0.1-0.2,0.2-0.4,0.3C105.6,29.1,105.4,29.2,105.1,29.2z M105,26.6c-0.2,0-0.3,0.1-0.5,0.2
			c-0.1,0.1-0.2,0.3-0.2,0.5l0,0h1.3v0c0-0.2-0.1-0.4-0.2-0.5C105.4,26.7,105.3,26.6,105,26.6z"/>
		<path class="st1" d="M108.1,26.7l-0.3,0c-0.1,0-0.3,0-0.3,0.1c-0.1,0.1-0.2,0.2-0.2,0.3v2h-0.5v-2.9h0.5l0.1,0.4
			c0.1-0.1,0.2-0.3,0.3-0.3c0.1-0.1,0.3-0.1,0.4-0.1c0,0,0.1,0,0.1,0c0,0,0.1,0,0.1,0L108.1,26.7z"/>
		<path class="st1" d="M110.4,29.1c0-0.1,0-0.2,0-0.2c0-0.1,0-0.1,0-0.2c-0.1,0.1-0.2,0.3-0.4,0.3c-0.2,0.1-0.3,0.1-0.5,0.1
			c-0.3,0-0.5-0.1-0.7-0.2c-0.2-0.2-0.2-0.4-0.2-0.6c0-0.3,0.1-0.5,0.3-0.6c0.2-0.2,0.5-0.2,0.9-0.2h0.6v-0.3c0-0.2-0.1-0.3-0.2-0.4
			c-0.1-0.1-0.2-0.1-0.4-0.1c-0.2,0-0.3,0-0.4,0.1c-0.1,0.1-0.2,0.2-0.2,0.3l-0.5,0l0,0c0-0.2,0.1-0.4,0.3-0.6
			c0.2-0.2,0.5-0.3,0.8-0.3c0.3,0,0.6,0.1,0.8,0.2c0.2,0.2,0.3,0.4,0.3,0.7v1.4c0,0.1,0,0.2,0,0.3s0,0.2,0.1,0.3H110.4z M109.6,28.7
			c0.2,0,0.4,0,0.5-0.1c0.2-0.1,0.3-0.2,0.3-0.3v-0.5h-0.6c-0.2,0-0.4,0.1-0.5,0.2c-0.1,0.1-0.2,0.2-0.2,0.4c0,0.1,0,0.2,0.1,0.3
			C109.3,28.7,109.4,28.7,109.6,28.7z"/>
		<path class="st1" d="M115.9,25.3v2.6c0,0.4-0.1,0.8-0.4,1c-0.3,0.2-0.6,0.4-1.1,0.4c-0.4,0-0.8-0.1-1-0.4c-0.3-0.2-0.4-0.6-0.4-1
			v-2.6h0.5v2.6c0,0.3,0.1,0.5,0.3,0.7c0.2,0.2,0.4,0.3,0.7,0.3c0.3,0,0.5-0.1,0.7-0.3c0.2-0.2,0.3-0.4,0.3-0.7v-2.6H115.9z"/>
		<path class="st1" d="M117.4,25.6v0.7h0.5v0.4h-0.5v1.7c0,0.1,0,0.2,0.1,0.3c0.1,0.1,0.1,0.1,0.2,0.1c0,0,0.1,0,0.1,0
			c0,0,0.1,0,0.1,0l0.1,0.4c0,0-0.1,0.1-0.2,0.1c-0.1,0-0.2,0-0.2,0c-0.2,0-0.4-0.1-0.5-0.2c-0.1-0.1-0.2-0.3-0.2-0.6v-1.7h-0.5
			v-0.4h0.5v-0.7H117.4z"/>
		<path class="st1" d="M120.2,29.1c0-0.1,0-0.2,0-0.2c0-0.1,0-0.1,0-0.2c-0.1,0.1-0.2,0.3-0.4,0.3c-0.2,0.1-0.3,0.1-0.5,0.1
			c-0.3,0-0.5-0.1-0.7-0.2c-0.2-0.2-0.2-0.4-0.2-0.6c0-0.3,0.1-0.5,0.3-0.6c0.2-0.2,0.5-0.2,0.9-0.2h0.6v-0.3c0-0.2-0.1-0.3-0.2-0.4
			c-0.1-0.1-0.2-0.1-0.4-0.1c-0.2,0-0.3,0-0.4,0.1c-0.1,0.1-0.2,0.2-0.2,0.3l-0.5,0l0,0c0-0.2,0.1-0.4,0.3-0.6
			c0.2-0.2,0.5-0.3,0.8-0.3c0.3,0,0.6,0.1,0.8,0.2c0.2,0.2,0.3,0.4,0.3,0.7v1.4c0,0.1,0,0.2,0,0.3s0,0.2,0.1,0.3H120.2z M119.4,28.7
			c0.2,0,0.4,0,0.5-0.1c0.2-0.1,0.3-0.2,0.3-0.3v-0.5h-0.6c-0.2,0-0.4,0.1-0.5,0.2c-0.1,0.1-0.2,0.2-0.2,0.4c0,0.1,0,0.2,0.1,0.3
			C119.1,28.7,119.2,28.7,119.4,28.7z"/>
		<path class="st1" d="M122.8,26.7l-0.3,0c-0.1,0-0.3,0-0.3,0.1c-0.1,0.1-0.2,0.2-0.2,0.3v2h-0.5v-2.9h0.5l0.1,0.4
			c0.1-0.1,0.2-0.3,0.3-0.3c0.1-0.1,0.3-0.1,0.4-0.1c0,0,0.1,0,0.1,0c0,0,0.1,0,0.1,0L122.8,26.7z"/>
		<path class="st1" d="M125.1,29.1c0-0.1,0-0.2,0-0.2c0-0.1,0-0.1,0-0.2c-0.1,0.1-0.2,0.3-0.4,0.3c-0.2,0.1-0.3,0.1-0.5,0.1
			c-0.3,0-0.5-0.1-0.7-0.2c-0.2-0.2-0.2-0.4-0.2-0.6c0-0.3,0.1-0.5,0.3-0.6c0.2-0.2,0.5-0.2,0.9-0.2h0.6v-0.3c0-0.2-0.1-0.3-0.2-0.4
			c-0.1-0.1-0.2-0.1-0.4-0.1c-0.2,0-0.3,0-0.4,0.1c-0.1,0.1-0.2,0.2-0.2,0.3l-0.5,0l0,0c0-0.2,0.1-0.4,0.3-0.6
			c0.2-0.2,0.5-0.3,0.8-0.3c0.3,0,0.6,0.1,0.8,0.2c0.2,0.2,0.3,0.4,0.3,0.7v1.4c0,0.1,0,0.2,0,0.3s0,0.2,0.1,0.3H125.1z M124.3,28.7
			c0.2,0,0.4,0,0.5-0.1c0.2-0.1,0.3-0.2,0.3-0.3v-0.5h-0.6c-0.2,0-0.4,0.1-0.5,0.2c-0.1,0.1-0.2,0.2-0.2,0.4c0,0.1,0,0.2,0.1,0.3
			C124,28.7,124.1,28.7,124.3,28.7z"/>
	</g>
	<text transform="matrix(1 0 0 1 57.2012 12.8398)" class="st1 st2 st3">DEPARTEMEN</text>
</g>
</svg>
