<?xml version="1.0" encoding="utf-8"?>
<!-- Generator: Adobe Illustrator 25.2.0, SVG Export Plug-In . SVG Version: 6.00 Build 0)  -->
<svg version="1.1" id="Layer_1" xmlns:v="https://vecta.io/nano"
	 xmlns="http://www.w3.org/2000/svg" xmlns:xlink="http://www.w3.org/1999/xlink" x="0px" y="0px" viewBox="0 0 154 36"
	 style="enable-background:new 0 0 154 36;" xml:space="preserve">
<style type="text/css">
	.st0{fill:#C4C6C7;}
</style>
<g>
	<g>
		<g>
			<path class="st0" d="M40.2,24.9l0.3,0.2l0.2-0.5L40.2,24.9z M40.2,24.9l0.3,0.2l0.2-0.5L40.2,24.9z M40.2,24.9l0.3,0.2l0.2-0.5
				L40.2,24.9z M45.6,26.2c0,0-0.1-0.1-0.1-0.1l-0.3,0l0,0.4l0.3,0c0.1,0,0.1,0,0.2-0.1c0,0,0.1-0.1,0.1-0.1
				C45.6,26.3,45.6,26.3,45.6,26.2z M40.2,24.9l0.3,0.2l0.2-0.5L40.2,24.9z M45.6,26.2c0,0-0.1-0.1-0.1-0.1l-0.3,0l0,0.4l0.3,0
				c0.1,0,0.1,0,0.2-0.1c0,0,0.1-0.1,0.1-0.1C45.6,26.3,45.6,26.3,45.6,26.2z M40.2,24.9l0.3,0.2l0.2-0.5L40.2,24.9z M45.6,26.2
				c0,0-0.1-0.1-0.1-0.1l-0.3,0l0,0.4l0.3,0c0.1,0,0.1,0,0.2-0.1c0,0,0.1-0.1,0.1-0.1C45.6,26.3,45.6,26.3,45.6,26.2z M47.2,26.1
				l-0.1,0.6l0.3-0.1L47.2,26.1z M40.2,24.9l0.3,0.2l0.2-0.5L40.2,24.9z M45.6,26.2c0,0-0.1-0.1-0.1-0.1l-0.3,0l0,0.4l0.3,0
				c0.1,0,0.1,0,0.2-0.1c0,0,0.1-0.1,0.1-0.1C45.6,26.3,45.6,26.3,45.6,26.2z M47.2,26.1l-0.1,0.6l0.3-0.1L47.2,26.1z M40.2,24.9
				l0.3,0.2l0.2-0.5L40.2,24.9z M45.6,26.2c0,0-0.1-0.1-0.1-0.1l-0.3,0l0,0.4l0.3,0c0.1,0,0.1,0,0.2-0.1c0,0,0.1-0.1,0.1-0.1
				C45.6,26.3,45.6,26.3,45.6,26.2z M47.2,26.1l-0.1,0.6l0.3-0.1L47.2,26.1z M52.2,22.9l0.3,0.5l0.2-0.3L52.2,22.9z M52.2,22.9
				l0.3,0.5l0.2-0.3L52.2,22.9z M40.2,24.9l0.3,0.2l0.2-0.5L40.2,24.9z M45.6,26.2c0,0-0.1-0.1-0.1-0.1l-0.3,0l0,0.4l0.3,0
				c0.1,0,0.1,0,0.2-0.1c0,0,0.1-0.1,0.1-0.1C45.6,26.3,45.6,26.3,45.6,26.2z M47.2,26.1l-0.1,0.6l0.3-0.1L47.2,26.1z M40.2,24.9
				l0.3,0.2l0.2-0.5L40.2,24.9z M45.6,26.2c0,0-0.1-0.1-0.1-0.1l-0.3,0l0,0.4l0.3,0c0.1,0,0.1,0,0.2-0.1c0,0,0.1-0.1,0.1-0.1
				C45.6,26.3,45.6,26.3,45.6,26.2z M47.2,26.1l-0.1,0.6l0.3-0.1L47.2,26.1z M52.2,22.9l0.3,0.5l0.2-0.3L52.2,22.9z M53.4,21.2
				c0-0.1-0.1-0.1-0.1-0.1c-0.1,0-0.1,0-0.2,0c-0.1,0-0.1,0.1-0.1,0.1l-0.1,0.2l0.4,0.2l0.1-0.2C53.5,21.3,53.5,21.3,53.4,21.2z
				 M53.6,19.5l0.5,0.3l0.1-0.3L53.6,19.5z M52.2,22.9l0.3,0.5l0.2-0.3L52.2,22.9z M53.4,21.2c0-0.1-0.1-0.1-0.1-0.1
				c-0.1,0-0.1,0-0.2,0c-0.1,0-0.1,0.1-0.1,0.1l-0.1,0.2l0.4,0.2l0.1-0.2C53.5,21.3,53.5,21.3,53.4,21.2z M53.6,19.5l0.5,0.3
				l0.1-0.3L53.6,19.5z M40.2,24.9l0.3,0.2l0.2-0.5L40.2,24.9z M45.6,26.2c0,0-0.1-0.1-0.1-0.1l-0.3,0l0,0.4l0.3,0
				c0.1,0,0.1,0,0.2-0.1c0,0,0.1-0.1,0.1-0.1C45.6,26.3,45.6,26.3,45.6,26.2z M47.2,26.1l-0.1,0.6l0.3-0.1L47.2,26.1z M40.2,24.9
				l0.3,0.2l0.2-0.5L40.2,24.9z M45.6,26.2c0,0-0.1-0.1-0.1-0.1l-0.3,0l0,0.4l0.3,0c0.1,0,0.1,0,0.2-0.1c0,0,0.1-0.1,0.1-0.1
				C45.6,26.3,45.6,26.3,45.6,26.2z M47.2,26.1l-0.1,0.6l0.3-0.1L47.2,26.1z M51.7,12.4l0.2,0.3l0.3-0.5L51.7,12.4z M52.2,22.9
				l0.3,0.5l0.2-0.3L52.2,22.9z M53.4,21.2c0-0.1-0.1-0.1-0.1-0.1c-0.1,0-0.1,0-0.2,0c-0.1,0-0.1,0.1-0.1,0.1l-0.1,0.2l0.4,0.2
				l0.1-0.2C53.5,21.3,53.5,21.3,53.4,21.2z M53.6,19.5l0.5,0.3l0.1-0.3L53.6,19.5z M52.2,22.9l0.3,0.5l0.2-0.3L52.2,22.9z
				 M53.4,21.2c0-0.1-0.1-0.1-0.1-0.1c-0.1,0-0.1,0-0.2,0c-0.1,0-0.1,0.1-0.1,0.1l-0.1,0.2l0.4,0.2l0.1-0.2
				C53.5,21.3,53.5,21.3,53.4,21.2z M53.6,19.5l0.5,0.3l0.1-0.3L53.6,19.5z M51.7,12.4l0.2,0.3l0.3-0.5L51.7,12.4z M40.2,24.9
				l0.3,0.2l0.2-0.5L40.2,24.9z M45.6,26.2c0,0-0.1-0.1-0.1-0.1l-0.3,0l0,0.4l0.3,0c0.1,0,0.1,0,0.2-0.1c0,0,0.1-0.1,0.1-0.1
				C45.6,26.3,45.6,26.3,45.6,26.2z M47.2,26.1l-0.1,0.6l0.3-0.1L47.2,26.1z M40.2,24.9l0.3,0.2l0.2-0.5L40.2,24.9z M45.6,26.2
				c0,0-0.1-0.1-0.1-0.1l-0.3,0l0,0.4l0.3,0c0.1,0,0.1,0,0.2-0.1c0,0,0.1-0.1,0.1-0.1C45.6,26.3,45.6,26.3,45.6,26.2z M47.2,26.1
				l-0.1,0.6l0.3-0.1L47.2,26.1z M51.7,12.4l0.2,0.3l0.3-0.5L51.7,12.4z M52.2,22.9l0.3,0.5l0.2-0.3L52.2,22.9z M53.4,21.2
				c0-0.1-0.1-0.1-0.1-0.1c-0.1,0-0.1,0-0.2,0c-0.1,0-0.1,0.1-0.1,0.1l-0.1,0.2l0.4,0.2l0.1-0.2C53.5,21.3,53.5,21.3,53.4,21.2z
				 M53.6,19.5l0.5,0.3l0.1-0.3L53.6,19.5z M52.2,22.9l0.3,0.5l0.2-0.3L52.2,22.9z M53.4,21.2c0-0.1-0.1-0.1-0.1-0.1
				c-0.1,0-0.1,0-0.2,0c-0.1,0-0.1,0.1-0.1,0.1l-0.1,0.2l0.4,0.2l0.1-0.2C53.5,21.3,53.5,21.3,53.4,21.2z M53.6,19.5l0.5,0.3
				l0.1-0.3L53.6,19.5z M51.7,12.4l0.2,0.3l0.3-0.5L51.7,12.4z M40.2,24.9l0.3,0.2l0.2-0.5L40.2,24.9z M45.6,26.2
				c0,0-0.1-0.1-0.1-0.1l-0.3,0l0,0.4l0.3,0c0.1,0,0.1,0,0.2-0.1c0,0,0.1-0.1,0.1-0.1C45.6,26.3,45.6,26.3,45.6,26.2z M47.2,26.1
				l-0.1,0.6l0.3-0.1L47.2,26.1z M40.2,24.9l0.3,0.2l0.2-0.5L40.2,24.9z M45.6,26.2c0,0-0.1-0.1-0.1-0.1l-0.3,0l0,0.4l0.3,0
				c0.1,0,0.1,0,0.2-0.1c0,0,0.1-0.1,0.1-0.1C45.6,26.3,45.6,26.3,45.6,26.2z M46.1,9.2c0,0-0.1-0.1-0.1-0.1l-0.3,0l0,0.4l0.3,0
				c0.1,0,0.1,0,0.2-0.1c0,0,0.1-0.1,0.1-0.1C46.1,9.3,46.1,9.2,46.1,9.2z M47.2,26.1l-0.1,0.6l0.3-0.1L47.2,26.1z M51.7,12.4
				l0.2,0.3l0.3-0.5L51.7,12.4z M52.2,22.9l0.3,0.5l0.2-0.3L52.2,22.9z M53.4,21.2c0-0.1-0.1-0.1-0.1-0.1c-0.1,0-0.1,0-0.2,0
				c-0.1,0-0.1,0.1-0.1,0.1l-0.1,0.2l0.4,0.2l0.1-0.2C53.5,21.3,53.5,21.3,53.4,21.2z M53.6,19.5l0.5,0.3l0.1-0.3L53.6,19.5z
				 M52.2,22.9l0.3,0.5l0.2-0.3L52.2,22.9z M53.4,21.2c0-0.1-0.1-0.1-0.1-0.1c-0.1,0-0.1,0-0.2,0c-0.1,0-0.1,0.1-0.1,0.1l-0.1,0.2
				l0.4,0.2l0.1-0.2C53.5,21.3,53.5,21.3,53.4,21.2z M53.6,19.5l0.5,0.3l0.1-0.3L53.6,19.5z M51.7,12.4l0.2,0.3l0.3-0.5L51.7,12.4z
				 M46.1,9.2c0,0-0.1-0.1-0.1-0.1l-0.3,0l0,0.4l0.3,0c0.1,0,0.1,0,0.2-0.1c0,0,0.1-0.1,0.1-0.1C46.1,9.3,46.1,9.2,46.1,9.2z
				 M40.2,24.9l0.3,0.2l0.2-0.5L40.2,24.9z M45.6,26.2c0,0-0.1-0.1-0.1-0.1l-0.3,0l0,0.4l0.3,0c0.1,0,0.1,0,0.2-0.1
				c0,0,0.1-0.1,0.1-0.1C45.6,26.3,45.6,26.3,45.6,26.2z M47.2,26.1l-0.1,0.6l0.3-0.1L47.2,26.1z M40.2,24.9l0.3,0.2l0.2-0.5
				L40.2,24.9z M45.6,26.2c0,0-0.1-0.1-0.1-0.1l-0.3,0l0,0.4l0.3,0c0.1,0,0.1,0,0.2-0.1c0,0,0.1-0.1,0.1-0.1
				C45.6,26.3,45.6,26.3,45.6,26.2z M46.1,9.2c0,0-0.1-0.1-0.1-0.1l-0.3,0l0,0.4l0.3,0c0.1,0,0.1,0,0.2-0.1c0,0,0.1-0.1,0.1-0.1
				C46.1,9.3,46.1,9.2,46.1,9.2z M47.2,26.1l-0.1,0.6l0.3-0.1L47.2,26.1z M51.7,12.4l0.2,0.3l0.3-0.5L51.7,12.4z M52.2,22.9l0.3,0.5
				l0.2-0.3L52.2,22.9z M53.4,21.2c0-0.1-0.1-0.1-0.1-0.1c-0.1,0-0.1,0-0.2,0c-0.1,0-0.1,0.1-0.1,0.1l-0.1,0.2l0.4,0.2l0.1-0.2
				C53.5,21.3,53.5,21.3,53.4,21.2z M53.6,19.5l0.5,0.3l0.1-0.3L53.6,19.5z M52.2,22.9l0.3,0.5l0.2-0.3L52.2,22.9z M53.4,21.2
				c0-0.1-0.1-0.1-0.1-0.1c-0.1,0-0.1,0-0.2,0c-0.1,0-0.1,0.1-0.1,0.1l-0.1,0.2l0.4,0.2l0.1-0.2C53.5,21.3,53.5,21.3,53.4,21.2z
				 M53.6,19.5l0.5,0.3l0.1-0.3L53.6,19.5z M51.7,12.4l0.2,0.3l0.3-0.5L51.7,12.4z M46.1,9.2c0,0-0.1-0.1-0.1-0.1l-0.3,0l0,0.4
				l0.3,0c0.1,0,0.1,0,0.2-0.1c0,0,0.1-0.1,0.1-0.1C46.1,9.3,46.1,9.2,46.1,9.2z M40.2,24.9l0.3,0.2l0.2-0.5L40.2,24.9z M45.6,26.2
				c0,0-0.1-0.1-0.1-0.1l-0.3,0l0,0.4l0.3,0c0.1,0,0.1,0,0.2-0.1c0,0,0.1-0.1,0.1-0.1C45.6,26.3,45.6,26.3,45.6,26.2z M47.2,26.1
				l-0.1,0.6l0.3-0.1L47.2,26.1z M40.2,24.9l0.3,0.2l0.2-0.5L40.2,24.9z M45.6,26.2c0,0-0.1-0.1-0.1-0.1l-0.3,0l0,0.4l0.3,0
				c0.1,0,0.1,0,0.2-0.1c0,0,0.1-0.1,0.1-0.1C45.6,26.3,45.6,26.3,45.6,26.2z M46.1,9.2c0,0-0.1-0.1-0.1-0.1l-0.3,0l0,0.4l0.3,0
				c0.1,0,0.1,0,0.2-0.1c0,0,0.1-0.1,0.1-0.1C46.1,9.3,46.1,9.2,46.1,9.2z M47.2,26.1l-0.1,0.6l0.3-0.1L47.2,26.1z M51.7,12.4
				l0.2,0.3l0.3-0.5L51.7,12.4z M52.2,22.9l0.3,0.5l0.2-0.3L52.2,22.9z M53.4,21.2c0-0.1-0.1-0.1-0.1-0.1c-0.1,0-0.1,0-0.2,0
				c-0.1,0-0.1,0.1-0.1,0.1l-0.1,0.2l0.4,0.2l0.1-0.2C53.5,21.3,53.5,21.3,53.4,21.2z M53.6,19.5l0.5,0.3l0.1-0.3L53.6,19.5z
				 M52.2,22.9l0.3,0.5l0.2-0.3L52.2,22.9z M53.4,21.2c0-0.1-0.1-0.1-0.1-0.1c-0.1,0-0.1,0-0.2,0c-0.1,0-0.1,0.1-0.1,0.1l-0.1,0.2
				l0.4,0.2l0.1-0.2C53.5,21.3,53.5,21.3,53.4,21.2z M53.6,19.5l0.5,0.3l0.1-0.3L53.6,19.5z M51.7,12.4l0.2,0.3l0.3-0.5L51.7,12.4z
				 M46.1,9.2c0,0-0.1-0.1-0.1-0.1l-0.3,0l0,0.4l0.3,0c0.1,0,0.1,0,0.2-0.1c0,0,0.1-0.1,0.1-0.1C46.1,9.3,46.1,9.2,46.1,9.2z
				 M40.2,24.9l0.3,0.2l0.2-0.5L40.2,24.9z M45.6,26.2c0,0-0.1-0.1-0.1-0.1l-0.3,0l0,0.4l0.3,0c0.1,0,0.1,0,0.2-0.1
				c0,0,0.1-0.1,0.1-0.1C45.6,26.3,45.6,26.3,45.6,26.2z M47.2,26.1l-0.1,0.6l0.3-0.1L47.2,26.1z M61.6,19c0-0.1,0.1-0.3,0.1-0.5
				c0.1-0.7,0.2-1.6,0.1-2.3c0-1-0.2-1.6-0.5-1.8c0-0.2,0-0.5-0.1-0.8c-0.1-0.7-0.4-1.5-0.6-2.2c-0.3-0.7-0.5-1.1-0.8-1.4
				c-0.1-0.1-0.2-0.2-0.3-0.2c-0.3-0.9-1.1-2.1-1.7-2.8c-0.1-0.2-0.3-0.3-0.4-0.4c-2-2.5-3.9-3.2-5.4-3.2C51,2.9,50,2.6,49,2.8
				c-0.1,0-0.2,0-0.3,0.1c0-0.2-0.1-0.4-0.2-0.6c-0.2-0.4-0.6-0.7-1.1-0.8c-0.7-0.2-1.4,0-1.8,0.5c-0.4-0.5-1.1-0.7-1.8-0.5
				c-0.5,0.1-0.8,0.4-1.1,0.8c-0.1,0.2-0.2,0.4-0.2,0.6c-0.1,0-0.2,0-0.3-0.1c-1-0.2-2,0.1-3.1,0.7c-1.6,0-3.4,0.7-5.4,3.2
				c0,0.1,0,0.1,0,0.2c0,0,0.1,0,0.1,0c0,0,0.1,0,0.1,0c0,0,0.7-0.7,2.7-0.6l0.3,0c1,0.1,1.7,0.1,3,0c-1.6,0.9-2.2,2.3-2.2,2.3
				l-0.2,0.4l0.4-0.3c0.6-0.5,1.5-0.5,2.5-0.6c0.6,0,1.2-0.1,1.8-0.2c1-0.2,1.6-0.7,2-1.1l-0.3,0.9c-4.9,0.9-8.7,5.2-8.7,10.3
				c0,2.7,1,5.2,2.8,7.1c-0.5-0.1-0.9,0-0.9,0l-0.1,0l0,0.1c0,0.6,0.1,1,0.4,1.4l0,0.2c-0.8-0.5-1.4-0.8-1.6-0.9
				c0-0.1,0.1-0.1,0.1-0.2c0,0,0-0.1,0.1-0.2c0-0.1,0.1-0.2,0.1-0.2c0.1-0.2,0.3-0.5,0.2-0.7c0-0.1-0.1-0.2-0.2-0.3
				c0.1-0.1,0.1-0.1,0.1-0.2c0-0.2,0-0.4-0.2-0.6c0,0-0.1-0.1-0.1-0.1c0-0.1-0.1-0.2-0.1-0.2c-0.1-0.3-0.2-0.5-0.5-0.6
				c-0.1,0-0.3-0.1-0.4-0.1c0-0.1-0.1-0.2-0.1-0.2c-0.1-0.2-0.3-0.2-0.6-0.2c0,0-0.1,0-0.2,0c-0.1,0-0.2,0-0.3-0.1
				c-0.2,0-0.4-0.1-0.6-0.1c0,0,0,0,0,0c0.2,0,0.3-0.1,0.4-0.3c0,0,0.1-0.1,0.1-0.1c0.1-0.1,0.1-0.1,0.2-0.2
				c0.2-0.2,0.4-0.4,0.4-0.6c0-0.1,0-0.3-0.1-0.4c0.1,0,0.1-0.1,0.2-0.2c0.1-0.2,0.1-0.4,0.1-0.6c0,0,0-0.1,0-0.2c0-0.1,0-0.2,0-0.3
				c0-0.3,0-0.6-0.2-0.7C34.1,18.1,34,18,33.9,18c0-0.1,0-0.2,0-0.3c-0.1-0.2-0.2-0.3-0.5-0.4c0,0-0.1,0-0.2-0.1
				c-0.1,0-0.1-0.1-0.2-0.1c-0.1-0.1-0.3-0.2-0.4-0.3c0,0,0,0,0,0c0.1,0,0.3,0,0.4-0.1c0,0,0.1-0.1,0.2-0.1c0.1,0,0.2-0.1,0.2-0.1
				c0.3-0.1,0.5-0.2,0.6-0.4c0.1-0.1,0.1-0.2,0.1-0.4c0.1,0,0.2,0,0.2-0.1c0.2-0.1,0.3-0.3,0.3-0.5c0,0,0-0.1,0-0.2
				c0-0.1,0.1-0.2,0.1-0.2c0.1-0.3,0.2-0.5,0.1-0.7c-0.1-0.1-0.1-0.2-0.2-0.3c0-0.1,0.1-0.2,0.1-0.2c0-0.2-0.1-0.4-0.2-0.6
				c0,0-0.1-0.1-0.1-0.1c0-0.1-0.1-0.1-0.1-0.2c-0.1-0.2-0.2-0.3-0.3-0.4c0.1,0,0.3,0,0.4,0c0,0,0.1,0,0.2,0c0.1,0,0.2,0,0.3,0
				c0.1,0,0.2,0,0.3,0c0.2,0,0.3,0,0.4-0.1c0.1-0.1,0.2-0.2,0.2-0.3c0.1,0,0.1,0,0.2,0c0,0,0.1,0,0.1,0c0.2,0,0.4-0.2,0.5-0.4
				c0,0,0-0.1,0.1-0.1c0,0,0,0,0-0.1c0.1-0.1,0.1-0.1,0.2-0.2c0.2-0.2,0.4-0.4,0.4-0.7c0-0.1,0-0.3-0.1-0.4c0.1-0.1,0.1-0.1,0.2-0.2
				c0.1-0.2,0.1-0.4,0-0.6c0,0,0-0.1,0-0.2c0-0.1,0-0.2,0-0.3c0-0.3-0.1-0.6-0.3-0.7c-0.1-0.1-0.2-0.1-0.3-0.2c0-0.1,0-0.2,0-0.3
				c-0.1-0.2-0.2-0.3-0.5-0.4c0,0-0.1,0-0.2-0.1c-0.1,0-0.1-0.1-0.2-0.1c-0.2-0.1-0.5-0.3-0.7-0.2c-0.1,0-0.2,0.1-0.3,0.2
				c-0.1-0.1-0.1-0.1-0.2-0.1c-0.2-0.1-0.4,0-0.6,0.1c0,0-0.1,0.1-0.2,0.1c-0.1,0-0.2,0.1-0.2,0.1c-0.3,0.1-0.5,0.2-0.6,0.4
				c-0.1,0.1-0.1,0.3-0.1,0.4c-0.1,0-0.2,0-0.2,0.1c-0.2,0.1-0.3,0.3-0.3,0.6c0,0,0,0.1,0,0.2c0,0.1,0,0.2-0.1,0.2
				C32,9.3,32,9.6,32.1,9.8c0.1,0.1,0.1,0.2,0.2,0.3c0,0.1-0.1,0.2-0.1,0.2c0,0.2,0.1,0.4,0.3,0.6c0,0,0.1,0.1,0.1,0.1
				c0,0.1,0.1,0.1,0.1,0.2c0.1,0.1,0.2,0.2,0.3,0.3c-0.1,0-0.2,0-0.3,0c0,0-0.1,0-0.2,0c-0.1,0-0.2,0-0.3,0c-0.3,0-0.6-0.1-0.7,0.1
				c-0.1,0.1-0.2,0.2-0.2,0.3c-0.1,0-0.2,0-0.3,0c-0.2,0-0.4,0.1-0.5,0.4c0,0-0.1,0.1-0.1,0.1c-0.1,0.1-0.1,0.1-0.2,0.2
				c-0.2,0.2-0.4,0.4-0.4,0.6c0,0.1,0,0.3,0.1,0.4c-0.1,0-0.1,0.1-0.2,0.2c-0.1,0.2-0.1,0.4,0,0.6c0,0,0,0.1,0,0.2
				c0,0.1,0,0.2,0,0.3c0,0.3,0,0.6,0.2,0.7c0.1,0.1,0.2,0.1,0.3,0.2c0,0.1,0,0.2,0,0.3c0.1,0.2,0.2,0.3,0.5,0.4c0,0,0.1,0,0.2,0.1
				c0.1,0,0.1,0.1,0.2,0.1c0.1,0.1,0.2,0.2,0.4,0.2c-0.1,0-0.2,0-0.4,0.1c0,0-0.1,0-0.2,0.1c-0.1,0-0.2,0-0.2,0.1
				c-0.3,0.1-0.5,0.1-0.7,0.4c-0.1,0.1-0.1,0.2-0.1,0.4c-0.1,0-0.2,0-0.2,0.1c-0.2,0.1-0.3,0.3-0.3,0.5c0,0,0,0.1,0,0.2
				c0,0.1-0.1,0.2-0.1,0.2c-0.1,0.3-0.2,0.5-0.1,0.7c0.1,0.1,0.1,0.2,0.2,0.3c-0.1,0.1-0.1,0.2-0.1,0.2c0,0.2,0,0.4,0.2,0.6
				c0,0,0.1,0.1,0.1,0.1c0,0.1,0.1,0.1,0.1,0.2c0.1,0.2,0.3,0.5,0.5,0.6c0.1,0,0.2,0,0.3,0c0,0,0.1,0,0.1,0c0,0.1,0.1,0.2,0.1,0.2
				c0.1,0.1,0.3,0.2,0.6,0.2c0,0,0.1,0,0.2,0c0.1,0,0.2,0,0.3,0c0.1,0,0.3,0,0.4,0c-0.1,0-0.2,0.1-0.3,0.3c0,0-0.1,0.1-0.1,0.1
				c-0.1,0.1-0.1,0.1-0.2,0.2c-0.2,0.2-0.4,0.3-0.5,0.6c0,0.1,0,0.3,0,0.4c-0.1,0-0.2,0.1-0.2,0.2c-0.1,0.2-0.2,0.4-0.1,0.6
				c0,0,0,0.1,0,0.2c0,0.1,0,0.2,0,0.3c0,0.3,0,0.6,0.2,0.7c0.1,0.1,0.2,0.2,0.3,0.2c0,0.1,0,0.2,0,0.3c0,0.2,0.2,0.4,0.4,0.5
				c0,0,0.1,0.1,0.2,0.1c0.1,0,0.1,0.1,0.2,0.2c0.2,0.2,0.4,0.3,0.6,0.3c0,0,0,0,0.1,0c0.1,0,0.3-0.1,0.4-0.1
				c0.1,0.1,0.1,0.1,0.2,0.2c0.1,0,0.2,0.1,0.2,0.1c0.1,0,0.2,0,0.4-0.1c0,0,0.1,0,0.1,0c-0.2,1,0.1,1.6,0.2,1.8L34,28.9l0.1,0.1
				c0.2,0.5,0.6,0.8,0.8,1l-0.3,0.1l0.1,0.1c0.6,0.7,1.5,1.1,2,1.2l-0.3,0.1l0.1,0.1c1.5,1.4,3.4,1.4,3.8,1.4c0,0,0.1,0,0.1,0l0,0
				c0,0,0,0,0,0c0.1,0,0.2,0,0.3,0l-0.3,0.3l0.2,0.1c0.7,0.3,1.5,0.4,2.1,0.4c0.5,0,0.9-0.1,1.3-0.1c0.4,0.3,0.9,0.5,1.5,0.8l0,0
				l0,0c0.6-0.2,1.1-0.5,1.5-0.8c0.4,0.1,0.8,0.1,1.3,0.1c0.7,0,1.4-0.1,2.1-0.4l0.2-0.1l-0.3-0.3c0.5,0,1.6,0,2.5-0.5l0.2-0.1
				l-0.3-0.2c0.3-0.1,0.8-0.3,1.2-0.7l0.1-0.1l-0.2-0.1c0,0,0,0,0,0c0,0,0,0,0,0c0.7,0,3-1.5,4.9-4c0.4-0.5,1.5-2.1,1.5-3
				c0.5-0.7,1.1-2.2,1.3-3.1C62,20.1,62,19.3,61.6,19z M61.3,14.8c0.2,0.3,0.3,1,0.3,1.5c0,0.7,0,1.6-0.1,2.2c0,0.1,0,0.3-0.1,0.4
				c0,0,0,0.1,0,0.1c0,0,0,0.1,0,0.1c-0.1,0.4-0.2,0.5-0.2,0.5c-0.1,0-0.1-0.1-0.2-0.3c0,0,0-0.1,0-0.1c0,0,0-0.1,0-0.1
				c-0.2-0.6-0.4-1.6-0.4-2.7c0-0.6,0-1.2,0.2-1.6c0.2,0.2,0.4,0.3,0.5,0.3c0,0,0.1,0,0.1,0C61.1,15,61.2,15,61.3,14.8z M59.4,23.9
				c-0.2,0.1-0.3,0.3-0.5,0.5c0.1-0.2,0.1-0.3,0.1-0.5c0-0.1,0.1-0.1,0.1-0.2c0.1-0.3,0.3-0.5,0.4-0.8
				C59.5,23.2,59.4,23.6,59.4,23.9z M59,23.5C58.9,23.5,58.9,23.6,59,23.5c-0.1,0.1-0.1,0.1-0.1,0.2c0,0.1-0.1,0.1-0.1,0.2
				c-0.3,0.7-0.6,0.8-0.6,0.8c-0.1,0-0.2-0.4-0.1-0.9c0-0.1,0-0.1,0-0.2c0-0.1,0-0.1,0-0.2c0-0.7,0.2-1.6,0.4-2.5
				c0.1-0.5,0.3-1.1,0.6-1.4c0.1,0.2,0.3,0.4,0.4,0.4h0c0.1,0,0.3,0,0.4-0.5c0.2,0.3,0.1,1,0,1.6c0,0.1,0,0.2-0.1,0.3c0,0,0,0,0,0.1
				C59.6,22,59.3,22.8,59,23.5z M51.8,30.6C51.8,30.6,51.8,30.6,51.8,30.6c-0.2,0.1-0.3,0.2-0.4,0.3c-0.1,0.1-0.1,0.1-0.2,0.2
				c0,0-0.1,0.1-0.1,0.1c-0.6,0.2-1.1,0.4-1.7,0.5c0.1-0.1,0.2-0.2,0.2-0.3c0.2-0.2,0.3-0.4,0.5-0.5c0,0,0,0,0-0.1c0,0,0,0-0.1,0
				c-0.2,0.2-0.4,0.3-0.6,0.5c-0.2,0.2-0.3,0.3-0.5,0.5c-0.1,0-0.2,0-0.3,0.1V30c0.7-0.2,1.3-0.3,1.5-0.4l-0.2,0.5l0,0l0.1,0
				l0.2-0.1c0.3-0.1,0.6-0.3,1-0.3c0.1,0,0.3-0.1,0.4-0.1c0.1,0,0.2,0,0.3,0c0.3,0,0.5-0.1,0.7-0.1L52.3,30l0.1,0l0.2-0.1l0.1,0
				c0,0,0.1,0,0.1,0c0.5-0.1,1-0.2,1.3-0.3c0,0,0.1,0,0.1,0c-0.4,0.3-0.9,0.6-1.4,0.8c-0.2,0.1-0.3,0.2-0.5,0.3
				c-0.3,0.1-0.6,0.3-0.9,0.4c0,0,0-0.1,0.1-0.1C51.6,30.9,51.7,30.7,51.8,30.6C51.9,30.6,51.9,30.6,51.8,30.6z M45.6,24.7
				c-3.7,0-6.7-3-6.7-6.7c0-3.7,3-6.7,6.7-6.7c3.7,0,6.7,3,6.7,6.7C52.3,21.7,49.3,24.7,45.6,24.7z M48.1,27.1l-0.3,0.1l-0.2-0.3
				L47.1,27l0,0.3l-0.3,0.1l0.2-1.6l0.4-0.1L48.1,27.1z M46,27.4l-0.4,0l-0.2-0.5l-0.3,0l0,0.5l-0.4,0l0-1.5l0.6,0
				c0.1,0,0.2,0,0.3,0.1c0.1,0,0.1,0.1,0.2,0.2c0,0.1,0,0.1,0,0.2c0,0.1,0,0.1,0,0.2c0,0.1-0.1,0.1-0.1,0.1c0,0-0.1,0.1-0.1,0.1
				L46,27.4z M44,26.4l-0.1,0.3l-0.6-0.1l-0.1,0.3L44,27l-0.1,0.3l-1-0.3l0.4-1.4l1,0.3l-0.1,0.3l-0.7-0.2l-0.1,0.3L44,26.4z
				 M41.5,25.2l0.1-0.3l1.1,0.5l-0.1,0.3l-0.4-0.2l-0.5,1.1l-0.3-0.2l0.5-1.1L41.5,25.2z M40,25.1l-0.3,0.2l-0.3-0.2l1.3-0.9
				l0.3,0.2l-0.5,1.5l-0.3-0.2l0.1-0.3L40,25.1z M46.5,10.4l-0.4,0l-0.2-0.5l-0.3,0l0,0.5l-0.4,0l0-1.5l0.7,0c0.1,0,0.2,0,0.3,0.1
				c0.1,0,0.1,0.1,0.2,0.2c0,0.1,0,0.1,0,0.2c0,0.1,0,0.1,0,0.2c0,0.1-0.1,0.1-0.1,0.1c0,0-0.1,0.1-0.1,0.1L46.5,10.4z M45.6,7.5
				c-0.3,0-0.5,0-0.8,0L45.6,7l0.8,0.6C46.1,7.5,45.9,7.5,45.6,7.5z M48,10.2C47.9,10.2,47.9,10.2,48,10.2c-0.1-0.1-0.1-0.1-0.2-0.1
				L47.6,10c-0.1,0-0.2-0.1-0.2-0.2c0-0.1-0.1-0.2,0-0.3c0-0.1,0.1-0.2,0.1-0.2c0.1-0.1,0.2-0.1,0.2-0.1s0.2,0,0.3,0
				c0.1,0,0.2,0.1,0.3,0.1c0.1,0.1,0.1,0.1,0.2,0.2c0,0.1,0,0.2,0,0.2l-0.3-0.1c0,0,0-0.1,0-0.1c0,0,0-0.1-0.1-0.1c0,0-0.1,0-0.1,0
				c0,0-0.1,0-0.1,0c0,0-0.1,0-0.1,0c0,0,0,0-0.1,0c0,0,0,0,0,0.1c0,0,0,0.1,0,0.1c0,0,0.1,0.1,0.1,0.1L48,9.8
				c0.1,0,0.2,0.1,0.2,0.1c0,0,0.1,0.1,0.1,0.2c0,0.1,0,0.1,0,0.1c0,0,0,0.1,0,0.1c0,0.1-0.1,0.1-0.1,0.2c-0.1,0-0.2,0.1-0.3,0.1
				c-0.1,0-0.2,0-0.3,0c-0.1,0-0.1,0-0.2-0.1c-0.1,0-0.1-0.1-0.2-0.1c0-0.1-0.1-0.1-0.1-0.2c0-0.1,0-0.1,0-0.2l0.3,0.1
				c0,0,0,0.1,0,0.1c0,0,0,0.1,0.1,0.1c0,0,0.1,0,0.1,0.1c0,0,0.1,0,0.1,0s0.1,0,0.1,0C47.9,10.4,48,10.3,48,10.2
				C48,10.3,48,10.2,48,10.2z M52.2,6.7C52.1,6.7,52.1,6.7,52.2,6.7c-0.3-0.2-0.5-0.4-0.8-0.5c0.3,0,0.6,0,0.8,0.1
				C52.1,6.4,52.1,6.5,52.2,6.7z M52.3,7.2c0.1,0.1,0.3,0.3,0.4,0.4C52.9,7.8,53,8,53.1,8.2c0,0,0,0,0,0.1c-0.1,0-0.1-0.1-0.2-0.1
				c-0.6-0.2-1.2-0.3-2-0.3c-0.6,0-1.2-0.1-1.8-0.2c-1.4-0.3-2-1.2-2.2-1.6c0,0,0,0,0,0c0.1,0,0.1,0,0.2,0c1.1-0.3,2-0.1,3,0
				c0.1,0,0.3,0,0.5,0.1C51.3,6.3,51.9,6.8,52.3,7.2z M58,10.2c0.3,0.3,0.5,0.8,0.7,1.3c0.3,0.7,0.5,1.5,0.6,2.2
				c0,0.3,0.1,0.5,0.1,0.6c0,0,0,0.1,0,0.1c0,0,0,0.1,0,0.1c0,0.2,0,0.2-0.1,0.2c0,0-0.2-0.1-0.3-0.2c0,0-0.1-0.1-0.1-0.1
				c0,0,0-0.1-0.1-0.1C58.5,13.9,58,13,57.6,12c-0.2-0.6-0.3-1-0.3-1.4c0.2,0.1,0.4,0.2,0.5,0.2c0.1,0,0.2,0,0.2-0.1
				C58,10.6,58,10.5,58,10.2z M58.7,10.8c-0.2-0.3-0.3-0.6-0.5-0.8c0.2,0.2,0.3,0.3,0.5,0.4c0,0,0,0,0,0.1
				C58.7,10.6,58.7,10.7,58.7,10.8z M59.6,14.8c0.2,0.3,0.3,1,0.3,1.5c0,0.7,0,1.6-0.1,2.2c0,0.1,0,0.3-0.1,0.4c0,0,0,0.1,0,0.1
				c0,0,0,0.1,0,0.1c-0.1,0.4-0.2,0.5-0.2,0.5c0,0,0,0,0,0c-0.1,0-0.1-0.1-0.2-0.3c0,0,0-0.1,0-0.1c0,0,0-0.1,0-0.1
				c-0.2-0.6-0.4-1.6-0.4-2.7c0-0.7,0-1.2,0.1-1.5c0,0,0-0.1,0.1-0.1c0.2,0.2,0.3,0.3,0.5,0.3c0,0,0.1,0,0.1,0
				C59.5,15,59.6,15,59.6,14.8z M59.4,13c0.2,0.4,0.4,0.8,0.6,1.1c0.1,0.2,0.2,0.4,0.3,0.5c-0.2,0.2-0.3,0.6-0.3,1.1
				c-0.1-0.6-0.2-1-0.4-1.2c0-0.2,0-0.5-0.1-0.8C59.5,13.4,59.5,13.2,59.4,13z M57.1,23.9C57,23.9,57,24,57,24
				c0,0.1-0.1,0.2-0.1,0.2c-0.2,0.3-0.3,0.4-0.4,0.4c0,0-0.2-0.2-0.1-1c0,0,0-0.1,0-0.1c0,0,0-0.1,0-0.1v0c0-0.7,0.2-1.7,0.4-2.5
				c0.2-0.6,0.4-1.1,0.6-1.4c0.2,0.4,0.3,0.4,0.4,0.4h0c0.1,0,0.3,0,0.4-0.5c0.3,0.4,0.1,1.2-0.1,1.9C57.8,22.3,57.4,23.2,57.1,23.9
				z M57.8,22.8c0,0.3-0.1,0.6-0.1,0.9c-0.2,0.2-0.4,0.4-0.7,0.7C57.4,23.9,57.6,23.3,57.8,22.8z M51.9,29.3
				c-0.4,0.1-0.9,0.2-1.3,0.3l0.1-0.3l-0.2,0c0,0-0.8,0-1.7,0.4v-0.3c0.2-0.1,0.4-0.2,0.6-0.3c0,0,0.1,0,0.1,0c0.1,0,0.2,0,0.3,0
				c0.2,0,0.4,0,0.6,0c0,0,0,0,0,0c0,0,0,0,0,0c-0.2,0-0.4-0.1-0.6-0.1c-0.1,0-0.1,0-0.2-0.1c0.4-0.2,0.9-0.5,1.4-0.8c0,0,0,0,0.1,0
				c0.1,0,0.2,0,0.2,0c0.2,0,0.3,0,0.5,0c0,0,0,0,0.1,0c0,0,0-0.1,0-0.1c-0.2,0-0.3,0-0.5-0.1c0,0-0.1,0-0.1,0c0.7-0.5,1.4-1,2-1.6
				c-0.1,1.1-0.6,1.5-0.6,1.5l-0.2,0.1l0.4,0.1c-0.4,0.6-1,0.8-1,0.8l-0.3,0.1L51.9,29.3z M50.2,25.5l-0.5-0.8l0.3-0.2l0.5,0.8
				c0.1,0.1,0.1,0.2,0.1,0.3c0,0.1,0,0.2-0.1,0.3c-0.1,0.1-0.1,0.2-0.3,0.2s-0.2,0.1-0.4,0.1c-0.1,0-0.2,0-0.3-0.1
				c-0.1-0.1-0.2-0.1-0.2-0.3L49,25.2l0.3-0.2l0.5,0.8c0.1,0.1,0.1,0.1,0.2,0.2c0.1,0,0.1,0,0.2,0c0,0,0.1-0.1,0.1-0.1
				c0,0,0-0.1,0-0.1C50.3,25.6,50.3,25.6,50.2,25.5z M52,24.8l-0.3,0.2L51,24.2l-0.3,0.3l-0.2-0.2l0.9-0.8l0.2,0.2L51.2,24L52,24.8z
				 M51.4,12.5l-0.3,0.1l-0.2-0.3l1.5-0.6l0.2,0.3l-0.7,1.4l-0.2-0.3l0.2-0.3L51.4,12.5z M50.3,10.5l0.2-0.3l1,0.7l-0.2,0.3L51,11
				l-0.7,1L50,11.7l0.7-1L50.3,10.5z M52.4,13.8c0-0.1,0.1-0.1,0.1-0.2l0.2,0.3c0,0-0.1,0.1-0.1,0.1c0,0,0,0.1,0,0.1
				c0,0,0,0.1,0,0.1c0,0,0.1,0.1,0.1,0.1c0,0,0.1,0.1,0.1,0.1c0,0,0.1,0,0.1,0c0,0,0,0,0.1-0.1c0,0,0-0.1,0-0.1c0,0,0-0.1,0-0.1
				l-0.1-0.2c0-0.1,0-0.2,0-0.3c0-0.1,0.1-0.2,0.2-0.2c0.1,0,0.2-0.1,0.3-0.1c0.1,0,0.2,0,0.2,0.1c0.1,0.1,0.1,0.1,0.2,0.2
				c0.1,0.1,0.1,0.2,0.1,0.3c0,0.1,0,0.2,0,0.3c0,0.1-0.1,0.1-0.2,0.2l-0.2-0.3c0,0,0.1-0.1,0.1-0.1c0,0,0-0.1,0-0.1
				c0,0,0-0.1,0-0.1c0,0,0-0.1-0.1-0.1c0,0,0,0-0.1,0c0,0,0,0-0.1,0c0,0,0,0-0.1,0c0,0-0.1,0-0.1,0.1c0,0,0,0.1,0,0.2l0.1,0.2
				c0,0.1,0,0.2,0,0.2c0,0.1,0,0.1,0,0.2c0,0-0.1,0.1-0.1,0.1c0,0-0.1,0.1-0.1,0.1c-0.1,0-0.1,0.1-0.2,0c-0.1,0-0.2-0.1-0.2-0.1
				c-0.1-0.1-0.1-0.1-0.2-0.3c0-0.1-0.1-0.1-0.1-0.2c0-0.1,0-0.1,0-0.2C52.3,13.9,52.3,13.8,52.4,13.8z M54.7,20.1l-0.1,0.3
				l-1.4-0.8l0.1-0.4l1.6-0.3l-0.1,0.3l-0.3,0.1l-0.1,0.5L54.7,20.1z M54.1,22l-0.1,0.3l-1.4-0.6l0.3-0.6c0-0.1,0.1-0.2,0.2-0.3
				c0.1-0.1,0.1-0.1,0.2-0.1c0.1,0,0.2,0,0.2,0c0.1,0,0.1,0.1,0.2,0.1c0,0,0.1,0.1,0.1,0.1c0,0,0,0.1,0,0.2l0.7,0l-0.1,0.3h-0.6
				l-0.1,0.2L54.1,22z M53.6,23l-0.2,0.3L53,23.2l-0.3,0.4l0.2,0.3l-0.2,0.3l-0.9-1.3l0.2-0.3L53.6,23z M51.1,27l0.3-0.1
				c0.7-0.4,1.4-0.5,1.7-0.5c-0.6,0.6-1.3,1.2-2,1.6c0-0.1,0.1-0.1,0.1-0.2c0.1-0.1,0.1-0.3,0.2-0.4c0,0,0,0,0,0c0,0,0,0-0.1,0
				c-0.1,0.1-0.2,0.2-0.3,0.3c0,0.1-0.1,0.1-0.1,0.2c0,0.1-0.1,0.1-0.1,0.2l0,0.1c-0.4,0.3-0.9,0.5-1.3,0.7c0.1-0.1,0.1-0.3,0.2-0.4
				c0.1-0.2,0.2-0.4,0.4-0.6c0,0,0,0,0-0.1c0,0,0,0-0.1,0c-0.2,0.2-0.3,0.4-0.4,0.6c-0.1,0.2-0.3,0.4-0.4,0.6l0,0.1
				c-0.1,0.1-0.3,0.1-0.4,0.2V28C49.6,27.7,50.4,27.4,51.1,27z M53.1,28.3c0,0.1,0,0.2,0.1,0.2c0,0,0.1,0.1,0.2,0.1
				c0.1,0,0.3-0.1,0.4-0.1c-0.1,0.1-0.2,0.3-0.3,0.4c-0.1,0.2-0.3,0.3-0.4,0.4c0,0-0.3,0-0.7,0.1l-0.2-0.1
				C52.4,29,52.8,28.7,53.1,28.3z M53.3,28.3c-0.2-0.1,0.4-1.7,1.6-3.3c0.3-0.4,0.7-0.9,1.1-1.1c0,1,0.2,1.1,0.3,1.1c0,0,0,0,0.1,0
				c0.1,0,0.1,0,0.2-0.1c0,0,0,0.1-0.1,0.1c-0.1,0.3-0.3,0.5-0.5,0.8c-0.5,0.6-1,1.2-1.4,1.6C54,28,53.4,28.3,53.3,28.3z M57,11
				c-0.2-0.4-0.4-0.7-0.6-0.9c-0.1-0.1-0.2-0.2-0.3-0.2c0-0.1-0.1-0.2-0.1-0.2c0.1,0.1,0.3,0.3,0.4,0.4c0.2,0.2,0.3,0.3,0.5,0.4
				c0,0,0,0,0,0.1C57,10.6,57,10.8,57,11z M56.2,10.8c0.1-0.1,0.1-0.3,0.1-0.5c0.2,0.2,0.5,0.7,0.7,1.3c0.1,0.3,0.3,0.7,0.4,1.1
				c0.1,0.4,0.2,0.7,0.3,1.1c0,0.3,0.1,0.5,0.1,0.6c0,0,0,0.1,0,0.1c0,0,0,0.1,0,0.1c0,0.2,0,0.2-0.1,0.2c0,0-0.2-0.1-0.3-0.2
				c0,0-0.1-0.1-0.1-0.1c0,0-0.1-0.1-0.1-0.1c-0.4-0.5-0.9-1.4-1.3-2.4c-0.2-0.5-0.3-1-0.3-1.4c0.2,0.1,0.4,0.2,0.5,0.2
				C56.1,10.8,56.1,10.8,56.2,10.8z M58.4,16.3c0-0.7-0.1-1.2-0.3-1.5c-0.1-0.1-0.1-0.2-0.2-0.3c0-0.2,0-0.5-0.1-0.8
				c-0.1-0.3-0.1-0.6-0.2-1c0.3,0.7,0.7,1.4,1.1,1.9c0,0.1-0.1,0.1-0.1,0.2C58.5,15.1,58.4,15.6,58.4,16.3z M57.6,15.1
				C57.6,15.1,57.7,15.1,57.6,15.1c0.1,0,0.2-0.1,0.3-0.3c0,0,0,0,0,0c0.1,0.3,0.2,0.8,0.3,1.5c0,0.7,0,1.6-0.1,2.2
				c0,0.1,0,0.3-0.1,0.4c0,0,0,0.1,0,0.1c0,0,0,0.1,0,0.1c-0.1,0.4-0.2,0.5-0.2,0.5c0,0,0,0-0.1-0.1c0-0.1-0.1-0.1-0.1-0.3
				c0,0,0-0.1,0-0.1c0,0,0-0.1,0-0.1c0-0.1-0.1-0.3-0.1-0.5c-0.2-0.7-0.3-1.5-0.3-2.2c0-0.6,0-1.2,0.2-1.6
				C57.3,15,57.5,15.1,57.6,15.1z M58.2,19.1c0-0.1,0.1-0.3,0.1-0.5c0.1-0.7,0.2-1.5,0.1-2.2c0,0.8,0.2,2,0.5,2.8
				c-0.1,0.2-0.3,0.4-0.4,0.7C58.5,19.5,58.4,19.2,58.2,19.1z M57.8,10.5c0,0-0.2,0-0.5-0.2c0,0-0.1,0-0.1-0.1c0,0-0.1,0-0.1-0.1
				c-0.1-0.1-0.2-0.2-0.4-0.3C56.4,9.6,56,9.3,55.7,9c-0.4-0.7-0.9-1.4-1.2-1.9c-0.1-0.2-0.3-0.3-0.4-0.4c0-0.2,0-0.4,0-0.5
				c0,0,0.1,0,0.1,0l0.3,0c0.1,0,0.2,0,0.4,0c0.2,0.1,0.4,0.3,0.6,0.5c0.1,0.1,0.1,0.1,0.2,0.2C55.8,7,55.9,7.1,56,7.2c0,0,0,0,0,0
				c0.3,0.3,0.5,0.6,0.7,1c0.1,0.2,0.3,0.4,0.4,0.6c0.1,0.1,0.2,0.3,0.2,0.4c0.1,0.2,0.2,0.4,0.2,0.5c0,0,0,0.1,0,0.1
				c0,0,0,0.1,0,0.1C57.8,10.3,57.8,10.5,57.8,10.5z M54.2,7.1c0.1,0.1,0.1,0.1,0.2,0.2c0.4,0.5,0.7,0.9,0.9,1.3
				c0.1,0.2,0.2,0.3,0.3,0.5c0.1,0.3,0.3,0.5,0.4,0.7c0,0,0,0.1,0,0.1c0,0,0,0.1,0,0.1c0.1,0.3,0.1,0.4,0.1,0.5
				c-0.1,0-0.2,0-0.5-0.2c0,0-0.1,0-0.1-0.1c0,0-0.1,0-0.1-0.1c-0.5-0.3-1.1-0.9-1.7-1.7l0,0c0,0-0.3-0.7-1-1.4
				c-0.1-0.1-0.1-0.2-0.1-0.4c0-0.2,0-0.4,0-0.5c0.3,0,0.6,0,0.8,0c0.2,0.1,0.4,0.3,0.6,0.6C54,6.9,54.1,7,54.2,7.1z M49.1,7.9
				C49.8,8,50.4,8,50.9,8.1c0.9,0,1.8,0.1,2.4,0.5c0.5,0.6,1.3,1.4,2,1.9c0,0.4,0.1,0.9,0.3,1.6c0.3,0.7,0.8,1.9,1.4,2.5
				c-0.2,0.3-0.3,0.9-0.3,1.8c0,0.7,0.1,1.6,0.3,2.3c0.1,0.2,0.1,0.4,0.2,0.6c0,0,0,0,0,0c-0.3,0.3-0.5,0.8-0.7,1.6
				c-0.2,0.8-0.4,1.7-0.4,2.5c0,0,0,0.1,0,0.1c-0.4,0.2-0.8,0.6-1.3,1.3c-0.4,0.6-1,1.5-1.4,2.2c0.1-0.2,0.1-0.5,0.1-0.9V26l-0.1,0
				c0,0-0.6,0-1.3,0.2c2.4-1.9,4-4.9,4-8.2c0-5.2-3.7-9.5-8.7-10.3l-0.3-0.8C47.6,7.3,48.2,7.7,49.1,7.9z M49.8,9.9l-0.6,1.3
				L48.8,11l0.6-1.3L49.8,9.9z M53.1,29.5c0.2-0.2,0.3-0.4,0.5-0.6c0.4-0.5,0.8-0.9,1.2-1.4c0.5-0.5,1.1-1.1,1.4-1.6
				c0.2-0.3,0.4-0.5,0.5-0.8c0.3-0.4,0.7-0.8,1-1.2c0,0.5,0.1,0.8,0.3,0.9c0,0,0,0,0.1,0c0.1,0,0.2,0,0.4-0.3
				c-0.1,0.1-0.1,0.3-0.2,0.4c-0.3,0.5-0.7,1.1-1.1,1.7c-0.3,0.4-0.7,0.8-1.1,1.2c-0.6,0.6-1.1,1.1-1.7,1.4
				C54.3,29.3,53.8,29.4,53.1,29.5z M59.9,19c0-0.1,0.1-0.3,0.1-0.5c0.1-0.5,0.1-1,0.1-1.5c0.1,0.7,0.2,1.6,0.4,2.2c0,0,0,0,0,0
				c-0.1,0.1-0.2,0.3-0.3,0.5C60.2,19.4,60.1,19.2,59.9,19z M59.6,10.7c0.1-0.1,0.1-0.3,0.1-0.5c0.2,0.2,0.5,0.7,0.7,1.3
				c0.3,0.7,0.5,1.5,0.6,2.2c0,0.3,0.1,0.5,0.1,0.6c0,0,0,0.1,0,0.1c0,0,0,0.1,0,0.1c0,0.2,0,0.2-0.1,0.2c0,0-0.1,0-0.3-0.2
				c0,0-0.1-0.1-0.1-0.1c0,0-0.1-0.1-0.1-0.1c-0.1-0.1-0.2-0.3-0.3-0.4c-0.4-0.6-0.7-1.3-1-2c-0.2-0.6-0.3-1-0.3-1.4
				c0.2,0.1,0.4,0.2,0.5,0.2C59.5,10.8,59.5,10.7,59.6,10.7z M57.7,7.2c0.8,1,1.3,1.9,1.6,2.6c0,0,0,0.1,0,0.1c0,0,0,0.1,0,0.1
				c0.1,0.3,0.1,0.4,0.1,0.5c-0.1,0-0.2,0-0.5-0.2c0,0-0.1,0-0.1-0.1c0,0-0.1,0-0.1-0.1c-0.3-0.2-0.7-0.6-1.1-1
				c-0.4-0.7-0.9-1.6-1.4-2.1c-0.2-0.2-0.3-0.4-0.4-0.5c0-0.1,0-0.2,0-0.3c1,0.1,1.4,0.5,1.5,0.6C57.5,6.9,57.6,7,57.7,7.2z
				 M52.3,3.7c0.1,0,0.2,0,0.2,0c1.2,0.1,2.5,0.6,4,2.1C56.5,5.9,56.6,6,56.7,6c0,0.1,0.1,0.1,0.1,0.2c-0.1,0-0.2-0.1-0.3-0.1
				c-0.1,0-0.3-0.1-0.4-0.1c-0.1,0-0.2,0-0.2,0c-0.1,0-0.1,0-0.2,0c-0.2,0-0.4,0-0.7,0h0c-0.1,0-0.2,0-0.3,0c-0.1,0-0.1,0-0.2,0
				l-0.3,0c0,0,0,0,0,0c-0.1,0-0.1,0-0.2,0c-0.2,0-0.5,0-0.7,0c-0.1,0-0.2,0-0.3,0c-0.2,0-0.4,0-0.6,0c-0.1,0-0.1,0-0.2,0
				c-0.3,0-0.7,0-1.1-0.1c-0.2,0-0.5-0.1-0.7-0.1c-0.1,0-0.3,0-0.4-0.1c-0.9-0.1-1.7-0.3-2.8-0.1l0,0l0.7-0.5l0.1-0.1L48.4,5
				l0.4-0.3c0.1,0,0.1-0.1,0.2-0.1c0.8-0.4,1.9-0.9,3.1-0.9C52.1,3.7,52.2,3.7,52.3,3.7z M48.7,3.1c0,0,0.1,0,0.1,0
				c0.1,0,0.2,0,0.3-0.1c0.8-0.1,1.7,0,2.6,0.4c-1.1,0.1-2,0.5-2.8,0.9c-0.1,0-0.2,0.1-0.3,0.1h-2c0,0,0,0,0,0
				c0.1-0.1,0.2-0.2,0.4-0.4c0,0,0.1-0.1,0.1-0.1c0,0,0.1-0.1,0.1-0.1c0.3-0.3,0.7-0.5,1.2-0.7C48.6,3.2,48.6,3.2,48.7,3.1z
				 M46.9,1.6c0.1,0,0.3,0,0.4,0.1c0.4,0.1,0.7,0.4,0.9,0.7c0.1,0.2,0.2,0.3,0.2,0.5c-0.5,0.1-0.9,0.4-1.2,0.6
				c-0.1-0.7-0.7-1.3-1.4-1.4C46.1,1.8,46.5,1.6,46.9,1.6z M45.7,2.3c0,0,0.1,0,0.1,0C46.5,2.5,47,3,47,3.7
				c-0.3,0.3-0.5,0.5-0.7,0.7c0,0,0,0,0,0l0,0L46,3.2l-0.1-0.4L45.7,2.3L45.7,2.3z M45.5,2.3l-0.2,0.5l-0.1,0.4l-0.4,1.1l0,0
				c0,0,0,0,0,0c-0.1-0.2-0.3-0.4-0.6-0.6c0-0.7,0.5-1.3,1.2-1.4C45.4,2.3,45.5,2.3,45.5,2.3L45.5,2.3z M42.9,2.4
				c0.2-0.3,0.5-0.6,0.9-0.7c0.1,0,0.3-0.1,0.4-0.1c0.4,0,0.8,0.2,1.1,0.5C44.6,2.2,44,2.8,44,3.6c-0.3-0.2-0.7-0.5-1.2-0.6
				C42.8,2.8,42.8,2.6,42.9,2.4z M42.1,3.1c0.1,0,0.2,0,0.3,0.1c0,0,0.1,0,0.1,0c0,0,0.1,0,0.1,0c0.5,0.2,0.9,0.4,1.2,0.7
				C44,3.9,44,4,44.1,4c0.1,0,0.1,0.1,0.2,0.1c0.1,0.1,0.2,0.2,0.3,0.3c0,0,0,0,0,0h-2c-0.1,0-0.2-0.1-0.3-0.1
				c-0.7-0.3-1.7-0.8-2.8-0.9C40.5,3.1,41.3,2.9,42.1,3.1z M36.9,5.9l-0.3,0c-1.1-0.1-1.8,0.1-2.3,0.3c1.6-1.8,3.1-2.4,4.4-2.5
				c0.1,0,0.2,0,0.2,0c0,0,0,0,0,0c0.1,0,0.1,0,0.2,0c1.2,0,2.2,0.5,3.1,0.9c0.1,0.1,0.3,0.1,0.4,0.2L42.9,5L43,5.1l0.1,0.1l0.7,0.5
				l0,0c-1.1-0.2-2-0.1-2.9,0c-0.1,0-0.3,0-0.4,0.1c-0.2,0-0.5,0.1-0.7,0.1C38.6,6,37.9,6,36.9,5.9z M42.1,7.6
				c-0.6,0.1-1.2,0.1-1.8,0.2c-0.8,0-1.6,0.1-2.2,0.4c0.2-0.4,0.6-0.9,1.2-1.4c0.4-0.3,0.9-0.6,1.4-0.8c0.1,0,0.3,0,0.4-0.1
				c0.9-0.1,1.7-0.3,2.8,0c0.1,0,0.2,0,0.3,0.1c0,0,0,0,0,0C44.1,6.4,43.5,7.4,42.1,7.6z M44,7.8l0-0.1l0.5-1.7l0,0l0,0l-0.1-0.1
				l-0.9-0.7L43.4,5l-0.1-0.1L43,4.8h2l0.1-0.2l0.1-0.2l0.1-0.2l0.2-0.5l0.1-0.2l0.1-0.2l0.1-0.4l0.1,0.4l0.1,0.2l0.1,0.2l0.2,0.5
				l0.1,0.2l0.1,0.2l0.1,0.2h2L48,4.9l-0.1,0.1l-0.1,0.1l-1,0.7l-0.1,0l0,0l0.1,0.2l0.5,1.5l0,0.1l0,0.1l-0.1-0.1l-0.2-0.2l-1.3-0.9
				l-1.3,0.9l-0.2,0.2L44,7.8L44,7.8z M44.3,9l0.1,0.3l-0.7,0.1l0.1,0.3l0.6-0.1l0.1,0.3L43.8,10l0.1,0.3l0.7-0.1l0.1,0.3l-1,0.2
				l-0.3-1.5L44.3,9z M41.4,9.9l0.8,0.8l-0.1-1.1l0.3-0.1l0.2,1.6l-0.4,0.2L41.1,10L41.4,9.9z M40.4,10.5l0.9,1.2L41,11.9l-0.9-1.2
				L40.4,10.5z M38.7,12l1.1,0.2l-0.7-0.6l0.2-0.3l1.1,1l-0.2,0.2l-1.1-0.2l0.7,0.7l-0.2,0.3l-1.1-1L38.7,12z M37.4,13.9l0.8,0.4
				c0.1,0.1,0.2,0.1,0.2,0c0.1,0,0.1-0.1,0.2-0.1c0,0,0-0.1,0-0.1s0-0.1,0-0.1c0,0-0.1-0.1-0.1-0.1l-0.8-0.4l0.2-0.3l0.8,0.4
				c0.1,0.1,0.2,0.1,0.3,0.2c0.1,0.1,0.1,0.2,0.1,0.3c0,0.1,0,0.2-0.1,0.4c-0.1,0.1-0.2,0.2-0.2,0.3c-0.1,0.1-0.2,0.1-0.3,0.1
				c-0.1,0-0.2,0-0.3-0.1l-0.8-0.4L37.4,13.9z M36.8,20.3c-0.1,0-0.1-0.1-0.2-0.2c-0.1-0.1-0.1-0.2-0.1-0.3c0-0.1,0-0.1,0-0.2
				s0-0.1,0-0.2c0-0.1,0.1-0.1,0.1-0.2c0,0,0.1-0.1,0.2-0.1l0.1,0.4c0,0-0.1,0-0.1,0.1c0,0,0,0.1,0,0.1c0,0,0,0.1,0,0.1
				c0,0,0,0.1,0,0.1c0,0,0,0.1,0.1,0.1c0,0,0.1,0,0.1,0c0,0,0.1,0,0.1,0c0,0,0-0.1,0-0.1c0,0,0-0.1,0-0.1l0-0.2c0-0.1,0-0.2,0.1-0.3
				c0.1-0.1,0.1-0.1,0.3-0.2c0.1,0,0.2,0,0.3,0c0.1,0,0.1,0.1,0.2,0.2s0.1,0.2,0.1,0.3c0,0.1,0,0.2,0,0.3c0,0.1-0.1,0.2-0.1,0.2
				c-0.1,0.1-0.1,0.1-0.2,0.1l-0.1-0.3c0,0,0.1,0,0.1-0.1c0,0,0-0.1,0-0.1c0,0,0-0.1,0-0.1c0,0,0-0.1,0-0.1c0,0,0,0,0-0.1
				c0,0,0,0-0.1,0c0,0,0,0-0.1,0c0,0-0.1,0-0.1,0.1c0,0,0,0.1,0,0.2l0,0.2c0,0.1,0,0.2,0,0.2c0,0.1-0.1,0.1-0.1,0.1
				c0,0-0.1,0.1-0.1,0.1c0,0-0.1,0-0.1,0C36.9,20.4,36.9,20.4,36.8,20.3z M37.3,22.1c-0.1-0.1-0.2-0.2-0.2-0.3
				C37,21.7,37,21.6,37,21.5c0-0.1,0.1-0.2,0.1-0.3c0.1-0.1,0.2-0.1,0.3-0.2l0.8-0.4l0.1,0.3l-0.8,0.4c-0.1,0-0.2,0.1-0.2,0.2
				c0,0.1,0,0.1,0,0.2c0,0,0,0.1,0.1,0.1c0,0,0.1,0,0.1,0c0,0,0.1,0,0.2,0l0.8-0.4l0.1,0.3l-0.8,0.4c-0.1,0-0.2,0.1-0.3,0.1
				S37.4,22.2,37.3,22.1z M37.8,23.2l1.2-0.9l0.3,0.4l-0.6,0.8l1-0.4l0.3,0.4l-1.2,0.9l-0.2-0.3l0.9-0.7L38.4,24l-0.2-0.2l0.7-0.9
				L38,23.5L37.8,23.2z M38.2,25.4c1.2,1.2,2.6,2.1,4.2,2.6v0.4c-0.1,0-0.1,0-0.2,0c-0.2-0.1-0.4-0.2-0.7-0.2
				c-1.3-0.5-3.1-1.3-4.4-2.8C37.5,25.3,37.8,25.3,38.2,25.4z M41,30.8c0.2,0.2,0.3,0.4,0.5,0.5c0,0,0,0,0,0c0,0,0.1,0.1,0.1,0.1
				c0,0,0.1,0.1,0.1,0.1c0,0,0,0,0,0c-0.1,0-0.1,0-0.2,0c-0.1,0-0.3-0.1-0.5-0.1c-0.1,0-0.1,0-0.2,0c-0.1,0-0.1,0-0.2,0
				c-0.2-0.1-0.5-0.1-0.7-0.2c0,0-0.1-0.1-0.1-0.1c-0.1-0.1-0.1-0.1-0.2-0.2c0,0,0,0,0,0c-0.1-0.1-0.2-0.2-0.4-0.3c0,0,0,0,0,0
				c0,0,0,0,0,0.1c0.1,0.1,0.2,0.2,0.3,0.4c0,0,0,0,0,0c0,0,0,0,0,0c0,0,0,0,0,0.1c-0.4-0.1-0.8-0.3-1.1-0.5
				c-0.2-0.1-0.3-0.2-0.5-0.2c0,0-0.1,0-0.1-0.1c0,0-0.1-0.1-0.1-0.1c-0.3-0.2-0.6-0.4-0.9-0.6c0.2,0,0.4,0.1,0.7,0.1
				c0,0,0.1,0,0.1,0c0.2,0,0.5,0.1,0.7,0.2c0,0,0.1,0,0.1,0l0.1,0l0,0l0.1,0l0,0l0-0.1l0,0l-0.2-0.4c0,0,0,0,0.1,0c0,0,0.1,0,0.2,0
				c0,0,0.1,0,0.1,0c0,0,0.1,0,0.1,0c0.1,0,0.2,0,0.4,0c0,0,0,0,0,0c0,0,0.1,0,0.1,0c0,0,0.1,0,0.1,0c0,0,0,0,0.1,0c0,0,0.1,0,0.1,0
				c0.3,0.1,0.6,0.2,0.9,0.3l0.2,0.1l0.1,0l0-0.1l-0.1-0.4l0-0.1c0.1,0,0.3,0,0.5,0.1c0,0,0,0,0.1,0c0.1,0,0.1,0,0.2,0
				c0,0,0.1,0,0.1,0c0,0,0.1,0,0.1,0c0,0,0,0,0.1,0c0,0,0.1,0,0.1,0c0.1,0,0.1,0,0.2,0.1c0.1,0,0.1,0,0.2,0.1v1.8c0,0-0.1,0-0.1,0
				c0,0,0,0-0.1,0c0,0-0.1,0-0.1,0c0,0,0,0-0.1,0c0,0,0,0,0,0c0,0,0-0.1-0.1-0.1c0,0-0.1-0.1-0.1-0.1c0,0-0.1-0.1-0.1-0.1
				c-0.1-0.1-0.1-0.1-0.2-0.2C41.5,31.1,41.3,30.9,41,30.8C41.1,30.7,41,30.7,41,30.8C41,30.8,41,30.8,41,30.8z M38.6,28.6
				c0-0.1-0.1-0.2-0.1-0.3c0.2,0.2,0.4,0.3,0.7,0.5c0.1,0,0.1,0.1,0.2,0.1c0.4,0.3,0.8,0.5,1.3,0.7l0,0.1c-0.3-0.1-0.7-0.2-1-0.3
				c0,0,0,0-0.1,0c-0.1,0-0.1,0-0.2,0c0,0,0,0-0.1,0c-0.1,0-0.2,0-0.2,0c0,0,0,0,0,0c-0.1,0-0.1,0-0.2,0c0-0.1-0.1-0.1-0.1-0.2
				c0,0,0,0,0-0.1c0-0.1-0.1-0.1-0.1-0.2C38.6,28.7,38.6,28.7,38.6,28.6z M42.4,29.7c-0.1,0-0.3-0.1-0.4-0.1c-0.1,0-0.1,0-0.2-0.1
				c-0.1,0-0.1,0-0.2,0c0,0,0,0,0,0c0,0-0.1,0-0.1,0c0,0-0.1-0.1-0.1-0.1c-0.1-0.1-0.3-0.3-0.4-0.4c0,0,0,0,0,0c0,0,0,0,0,0.1
				c0.1,0.1,0.2,0.3,0.3,0.4c0,0,0,0,0,0c-0.2,0-0.4,0-0.5-0.1c-0.4-0.2-0.8-0.4-1.1-0.6c0,0-0.1,0-0.1-0.1
				c-0.1-0.1-0.2-0.1-0.3-0.2c-0.1-0.1-0.3-0.2-0.4-0.3c0,0-0.1-0.1-0.1-0.1c0.1,0,0.3,0,0.4,0.1c0.3,0.1,0.6,0.1,0.9,0.2
				c0.1,0,0.2,0,0.3,0.1c0,0,0,0,0,0l0.3,0.1l-0.1-0.3l-0.1-0.2c0,0,0,0,0.1,0c0.1,0,0.2,0,0.2,0c0.2,0,0.5,0.1,0.8,0.2
				c0.2,0.1,0.4,0.1,0.6,0.2c0.1,0,0.2,0.1,0.3,0.1L42.4,29.7C42.4,29.7,42.4,29.7,42.4,29.7z M37.1,25.5c0.6,0.7,1.3,1.3,2,1.7
				c0,0-0.1,0-0.1,0c0,0-0.1,0-0.1,0c0,0-0.1,0-0.1,0c0,0-0.1,0-0.1,0l0,0c0,0,0,0,0,0c0,0,0,0,0,0c0,0,0,0.1,0,0.1c0,0,0.1,0,0.1,0
				c0,0,0.1,0,0.1,0c0,0,0.1,0,0.1,0c0,0,0.1,0,0.1,0c0,0,0,0,0,0c0,0,0,0,0,0c0,0,0.1,0,0.1,0c0,0,0,0,0,0c0,0,0,0,0,0
				c0,0,0.1,0,0.1-0.1c0.2,0.1,0.5,0.3,0.7,0.4c0.1,0,0.2,0.1,0.3,0.1c0,0-0.1,0-0.1,0c-0.1,0-0.1,0-0.1,0l-0.1,0l-0.1,0l0.1,0.2
				l0.1,0.2c-0.3-0.1-0.6-0.2-0.8-0.2c0,0-0.1,0-0.1,0c-0.4-0.1-0.7-0.1-0.8-0.1c-0.1-0.1-0.2-0.1-0.3-0.2l0.3-0.1l-0.2-0.2
				c-0.2-0.2-0.5-0.4-0.7-0.7c-0.1-0.1-0.1-0.2-0.2-0.2c0-0.1-0.1-0.1-0.1-0.2C37.2,26,37.1,25.8,37.1,25.5z M37.3,27.1l0.2,0.1
				l0-0.4c0.2,0.2,0.3,0.4,0.5,0.6l-0.3,0.1l0.1,0.1c0.1,0.1,0.2,0.2,0.4,0.3c0,0.1,0,0.3,0.1,0.4c0,0.1,0,0.1,0,0.2
				c0,0.1,0,0.1,0.1,0.2c0,0,0,0,0,0c0,0,0,0-0.1-0.1c-0.2-0.1-0.3-0.3-0.5-0.4c0,0-0.1-0.1-0.1-0.1c-0.6-0.5-1.2-1.2-1.7-1.9
				C36.3,26.5,36.8,26.8,37.3,27.1z M37,28c0.3,0.2,0.5,0.5,0.8,0.7c0,0,0,0,0,0l0,0l-0.1,0l-0.1,0c0,0,0,0,0,0
				c-0.1,0-0.3,0-0.4,0.1c0,0,0,0,0,0c0,0,0,0.1,0,0.1c0.1,0.1,0.3,0.1,0.5,0.1c0.1,0,0.1,0,0.2,0c0,0,0.1,0,0.1,0c0,0,0,0,0,0
				c0,0,0.1,0,0.1,0c0.2,0.1,0.3,0.3,0.5,0.4c0,0,0,0,0,0c-0.1,0-0.1,0-0.1,0l-0.2,0l0.2,0.4c-1.1-0.3-1.8-0.3-1.9-0.3l-0.1,0
				l0.5-0.1L36.6,29c0,0-0.5-0.3-0.8-0.9l0.2,0l0.1,0l0.2,0L36,27.9c0,0,0,0,0,0c0,0-0.1-0.1-0.1-0.2c0-0.1-0.1-0.2-0.1-0.4
				c-0.1-0.2-0.1-0.5,0-0.9C36.1,27,36.6,27.5,37,28z M35.5,27.5c-0.4-0.3-0.8-0.5-1-0.6c0.2,0,0.4-0.1,0.5-0.3
				c0.1-0.1,0.1-0.2,0.1-0.3c0.1,0,0.2,0,0.3-0.1c0,0,0,0,0,0C35.4,26.8,35.4,27.2,35.5,27.5z M35.7,27.9l-0.2,0l0.1,0.1
				c0.2,0.5,0.6,0.8,0.8,1l-0.1,0c-0.6-0.5-1.2-1.2-1.7-1.9C34.8,27.4,35.2,27.6,35.7,27.9z M35.9,24.7c0,0.1-0.1,0.3-0.2,0.5
				c0,0,0,0.1-0.1,0.1c0,0,0,0.1-0.1,0.1c0,0,0,0,0,0c0,0,0,0.1,0,0.1c0,0,0,0.1,0,0.1c0,0.1-0.1,0.3-0.2,0.3c0,0-0.1,0-0.2,0
				c-0.1,0-0.1,0-0.2,0c-0.1,0-0.2-0.1-0.3-0.1c-0.1,0-0.1-0.1-0.2-0.1c-0.1,0-0.1-0.1-0.2-0.1c0,0,0,0,0,0c0,0-0.1-0.1-0.1-0.1
				c-0.1-0.1-0.2-0.2-0.3-0.3c0,0,0.1,0,0.1,0c0,0,0.1-0.1,0.1-0.1c0,0,0.1-0.1,0.1-0.1c0,0,0,0,0-0.1c0,0,0,0,0,0c0,0,0,0,0-0.1
				c0,0,0,0,0,0c0.1,0,0.2,0,0.3,0c0.3,0,0.5-0.1,0.9-0.2c0.1-0.1,0.2-0.1,0.3-0.2C35.8,24.5,35.9,24.6,35.9,24.7z M34.8,23
				c0-0.1,0.1-0.3,0.1-0.4c0.1,0,0.2,0,0.3,0c0.1,0,0.2,0.3,0.3,0.5c0,0,0,0.1,0.1,0.1c0,0,0,0.1,0.1,0.1c0,0,0,0.1,0.1,0.1
				c0,0,0,0.1,0.1,0.1c0.1,0.1,0.2,0.2,0.1,0.4c0,0.1,0,0.1-0.1,0.2c0,0-0.1,0.1-0.1,0.1c-0.1,0.1-0.2,0.1-0.3,0.2
				c-0.1,0-0.1,0.1-0.2,0.1c-0.3,0.1-0.6,0.1-0.8,0.2c0,0,0-0.1,0-0.1c0,0,0-0.1,0-0.1c0,0,0-0.1,0-0.1v0c0,0,0,0,0-0.1
				c0,0,0-0.1,0-0.1c0.1-0.1,0.1-0.2,0.2-0.3C34.6,23.6,34.7,23.4,34.8,23z M33.2,22c0.1,0,0.3,0,0.4,0.1c0,0,0.1,0,0.1,0
				c0,0,0.1,0,0.1,0c0,0,0.1,0,0.1,0c0,0,0.1,0,0.1,0c0.1,0,0.3,0,0.4,0.1c0,0,0.1,0.1,0.1,0.2c0,0,0,0.1,0,0.2c0,0.1,0,0.2,0,0.3
				c0,0.1,0,0.1-0.1,0.2c-0.1,0.3-0.2,0.5-0.4,0.7c0,0,0,0-0.1-0.1c0,0-0.1,0-0.1-0.1c0,0,0,0,0,0c0,0-0.1,0-0.1,0c0,0,0,0-0.1,0
				c0,0-0.1,0-0.1,0c0-0.1-0.1-0.2-0.1-0.3c-0.1-0.2-0.2-0.5-0.4-0.8c-0.1-0.1-0.2-0.2-0.2-0.3c0,0,0,0,0,0c0-0.1,0.1-0.1,0.2-0.2
				c0,0,0,0,0,0C33.1,22,33.2,22,33.2,22z M33.7,20.9c0,0-0.1,0.1-0.1,0.1c0,0-0.1,0.1-0.1,0.1c0,0,0,0,0,0c0,0-0.1,0.1-0.1,0.1
				c0,0,0,0.1-0.1,0.1c-0.1,0.1-0.2,0.2-0.3,0.2c-0.1,0-0.1,0-0.2,0c0,0-0.1,0-0.1-0.1c-0.1-0.1-0.1-0.1-0.2-0.2
				c-0.1-0.1-0.1-0.1-0.1-0.2c-0.1-0.1-0.2-0.2-0.2-0.4c0,0,0,0,0,0c0,0,0-0.1,0-0.1c0,0,0,0,0-0.1c0,0,0,0,0-0.1c0,0,0,0,0-0.1
				c0,0,0.1,0,0.1,0c0,0,0.1,0,0.1,0c0,0,0.1,0,0.1-0.1c0,0,0,0,0.1,0c0,0,0,0,0,0c0,0,0,0,0,0c0,0,0,0,0,0c0.1,0,0.2,0.1,0.3,0.1
				c0.2,0.1,0.5,0.1,0.8,0.1c0,0,0.1,0,0.1,0c0.1,0,0.3,0,0.4,0c0,0.1,0,0.2,0,0.3C34.1,20.6,33.9,20.8,33.7,20.9z M31.9,20
				C31.9,20,31.9,20,31.9,20c0,0-0.1,0-0.1,0h0c0,0,0,0-0.1,0c0,0,0,0-0.1,0c0,0,0,0-0.1,0c0,0-0.1,0-0.1-0.1c0,0,0,0-0.1-0.1
				c0,0,0,0,0,0c0,0,0,0,0,0c0,0,0,0,0-0.1c0,0,0,0,0-0.1c0,0,0,0,0-0.1c0,0,0,0,0,0c0,0,0,0,0-0.1c0,0,0-0.1,0-0.1c0,0,0-0.1,0-0.1
				c0,0,0,0,0,0c0,0,0,0,0,0c0,0,0-0.1,0-0.1c0,0,0,0,0-0.1c0,0,0,0,0-0.1c0,0,0,0,0,0c0,0,0,0,0-0.1c0,0,0.1-0.1,0.1-0.1
				c0,0,0,0,0,0c0,0,0,0,0.1,0c0,0,0,0,0,0c0,0,0.1,0,0.1,0c0,0,0,0,0.1,0c0,0,0,0,0.1,0c0,0,0,0,0,0c0,0,0,0,0.1,0c0,0,0,0,0,0
				c0,0,0.1,0,0.1,0c0,0,0,0,0,0c0,0,0.1,0,0.1,0c0,0,0,0,0,0c0,0,0.1,0,0.1,0.1c0,0,0,0,0.1,0c0,0,0,0,0,0c0,0,0,0,0,0c0,0,0,0,0,0
				c0,0,0,0,0,0c0,0,0,0.1,0.1,0.1c0,0,0,0.1,0,0.1c0,0,0,0,0,0c0,0,0,0.1,0,0.1c0,0,0,0,0,0.1c0,0,0,0,0,0.1c0,0,0,0,0,0v0
				c0,0,0,0,0,0.1c0,0,0,0.1,0,0.1c0,0,0,0.1,0,0.1c0,0,0,0,0,0c0,0,0,0.1-0.1,0.1c0,0,0,0-0.1,0c0,0,0,0,0,0c0,0,0,0,0,0
				c0,0,0,0,0,0c0,0,0,0,0,0c0,0,0,0-0.1,0C32.1,20,32.1,20,31.9,20C32,20,32,20,31.9,20z M33.8,18.2c0.1,0,0.2,0.1,0.2,0.1
				c0.1,0.1,0.1,0.3,0.1,0.5c0,0,0,0.1,0,0.1c0,0,0,0.1,0,0.1c0,0,0,0.1,0,0.1c0,0,0,0.1,0,0.1c0,0.1,0.1,0.3,0,0.4
				c0,0-0.1,0.1-0.1,0.1c0,0-0.1,0-0.2,0.1c-0.1,0-0.2,0-0.3,0c-0.1,0-0.1,0-0.2,0c-0.3,0-0.6-0.1-0.8-0.2c0,0,0-0.1,0-0.1
				c0,0,0-0.1,0-0.1c0,0,0-0.1,0-0.1c0,0,0,0,0,0c0,0,0,0,0-0.1c0,0,0-0.1,0-0.1c0.1,0,0.2-0.1,0.3-0.2c0.2-0.2,0.4-0.4,0.6-0.6
				C33.7,18.5,33.8,18.4,33.8,18.2z M32.9,17.3c0,0,0.1,0.1,0.1,0.1c0,0,0.1,0,0.1,0.1c0,0,0.1,0,0.1,0.1c0,0,0.1,0,0.1,0
				c0.1,0,0.3,0.1,0.3,0.3c0,0.1,0,0.1,0,0.2c0,0,0,0.1-0.1,0.2c0,0.1-0.1,0.2-0.2,0.3c0,0.1-0.1,0.1-0.1,0.2
				c-0.2,0.2-0.4,0.4-0.6,0.5c0,0,0-0.1,0-0.1c0,0,0-0.1-0.1-0.1c0,0-0.1-0.1-0.1-0.1c0,0,0,0-0.1-0.1c0,0-0.1,0-0.1-0.1
				c0-0.1,0-0.2,0-0.3c0-0.3,0-0.6-0.1-0.9c0-0.1-0.1-0.3-0.1-0.4c0.1,0,0.1-0.1,0.2-0.1c0,0,0,0,0,0C32.6,17.1,32.8,17.2,32.9,17.3
				z M33.9,16c-0.1,0.1-0.3,0.2-0.5,0.3c0,0-0.1,0-0.1,0c0,0-0.1,0-0.1,0c0,0-0.1,0-0.1,0c0,0-0.1,0-0.1,0c-0.1,0.1-0.3,0.1-0.4,0.1
				c-0.1,0-0.1-0.1-0.1-0.1c0,0-0.1-0.1-0.1-0.1c0-0.1-0.1-0.2-0.1-0.3c0-0.1,0-0.1-0.1-0.2c-0.1-0.3-0.1-0.6,0-0.8c0,0,0.1,0,0.1,0
				c0,0,0.1,0,0.1,0c0,0,0,0,0,0c0,0,0.1,0,0.1,0c0,0,0,0,0.1,0c0,0,0.1,0,0.1,0c0.1,0.1,0.2,0.1,0.2,0.2c0.2,0.2,0.4,0.3,0.8,0.4
				c0.1,0.1,0.2,0.1,0.4,0.1C34,15.9,34,15.9,33.9,16z M32.9,14C32.9,14,32.9,14,32.9,14c0,0.1,0,0.1,0,0.2c0,0,0,0.1,0,0.1
				c0,0,0,0,0,0c0,0,0,0.1,0,0.1c0,0,0,0,0,0.1c0,0,0,0,0,0c0,0,0,0,0,0c0,0,0,0,0,0c0,0,0,0,0,0.1c0,0-0.1,0.1-0.1,0.1
				c0,0-0.1,0-0.1,0.1c0,0,0,0,0,0c0,0-0.1,0-0.1,0.1c0,0,0,0,0,0c0,0,0,0-0.1,0c0,0,0,0-0.1,0c0,0,0,0,0,0c0,0,0,0-0.1,0
				c0,0-0.1,0-0.1,0c0,0-0.1,0-0.1,0c0,0,0,0,0,0c0,0-0.1,0-0.1,0c0,0,0,0-0.1,0c0,0,0,0,0,0c0,0,0,0,0,0c0,0,0,0,0,0
				c0,0,0-0.1-0.1-0.1c0,0,0-0.1,0-0.1c0,0,0,0,0,0c0,0,0,0,0,0c0,0,0-0.1,0-0.1c0,0,0,0,0-0.1v-0.1c0,0,0,0,0-0.1c0,0,0-0.1,0-0.1
				c0,0,0,0,0,0c0,0,0,0,0-0.1c0,0,0,0,0,0c0,0,0-0.1,0.1-0.1c0,0,0,0,0,0c0,0,0,0,0,0h0c0,0,0,0,0.1,0c0,0,0,0,0.1,0c0,0,0,0,0,0
				c0,0,0.1,0,0.1,0h0c0,0,0,0,0.1,0c0,0,0,0,0,0c0,0,0,0,0.1,0c0,0,0,0,0.1,0h0c0,0,0,0,0.1,0c0,0,0,0,0,0c0,0,0.1,0,0.1,0.1
				c0,0,0.1,0,0.1,0.1c0,0,0,0,0,0c0,0,0.1,0.1,0.1,0.1C32.9,13.9,32.9,13.9,32.9,14C32.9,13.9,32.9,13.9,32.9,14
				C32.9,14,32.9,14,32.9,14C32.9,14,32.9,14,32.9,14z M34.8,14.1c0.1,0.1,0,0.3-0.1,0.5c0,0,0,0.1-0.1,0.1c0,0,0,0.1,0,0.1
				c0,0,0,0,0,0c0,0,0,0.1,0,0.1c0,0,0,0.1,0,0.1c0,0.1-0.1,0.3-0.2,0.4c0,0-0.1,0-0.2,0c0,0-0.1,0-0.2,0c-0.1,0-0.2,0-0.3-0.1
				c-0.1,0-0.1-0.1-0.2-0.1c-0.1,0-0.2-0.1-0.2-0.1c0,0,0,0,0,0c-0.1,0-0.1-0.1-0.2-0.1c0,0,0,0,0,0c0,0-0.1-0.1-0.1-0.1
				c0,0-0.1-0.1-0.1-0.1c0,0,0,0,0.1-0.1c0,0,0.1-0.1,0.1-0.1c0,0,0-0.1,0.1-0.1c0,0,0,0,0-0.1c0,0,0,0,0,0c0,0,0,0,0-0.1
				c0.1,0,0.2,0,0.3-0.1c0.2-0.1,0.5-0.2,0.8-0.3c0.1-0.1,0.2-0.1,0.3-0.2C34.7,13.9,34.7,14,34.8,14.1z M34.2,12.7
				c0,0,0,0.1,0.1,0.1c0,0,0,0.1,0.1,0.1c0,0,0,0.1,0.1,0.1c0,0,0,0.1,0.1,0.1c0.1,0.1,0.2,0.2,0.2,0.4c0,0.1,0,0.1-0.1,0.2
				c0,0-0.1,0.1-0.1,0.1c-0.1,0.1-0.2,0.1-0.3,0.2C34.1,13.9,34,14,34,14c-0.3,0.1-0.6,0.2-0.8,0.2c0,0,0-0.1,0-0.1c0,0,0-0.1,0-0.1
				c0,0,0-0.1,0-0.1c0,0,0,0,0,0c0,0,0,0,0-0.1c0,0,0-0.1,0-0.1c0.1-0.1,0.1-0.2,0.2-0.3c0.1-0.2,0.2-0.5,0.3-0.8c0-0.1,0-0.3,0-0.4
				c0.1,0,0.2,0,0.3,0C33.9,12.3,34,12.5,34.2,12.7z M35.5,11.8c-0.1,0.1-0.3,0.1-0.6,0.1c0,0-0.1,0-0.1,0c0,0-0.1,0-0.1,0h0
				c0,0-0.1,0-0.1,0c0,0-0.1,0-0.1,0c-0.1,0-0.3,0-0.4-0.1c0,0,0,0,0,0c0,0-0.1-0.1-0.1-0.1c0,0,0-0.1,0-0.1c0,0,0,0,0,0
				c0-0.1,0-0.2,0-0.3c0-0.1,0-0.1,0-0.2c0.1-0.3,0.2-0.6,0.3-0.8c0,0,0,0,0.1,0.1c0,0,0.1,0,0.1,0.1c0,0,0.1,0,0.1,0
				c0,0,0.1,0,0.1,0c0,0,0.1,0,0.1,0c0,0.1,0.1,0.2,0.1,0.3c0.1,0.2,0.3,0.5,0.5,0.7c0.1,0.1,0.2,0.2,0.3,0.2
				C35.6,11.7,35.6,11.8,35.5,11.8z M35.2,9.1C35.2,9.1,35.2,9.1,35.2,9.1C35.2,9.1,35.2,9.1,35.2,9.1c0.1,0.1,0.1,0.2,0.1,0.2
				c0,0,0,0,0,0c0,0,0,0.1,0,0.1c0,0,0,0,0,0.1c0,0,0,0,0,0.1v0c0,0,0,0,0,0.1c0,0,0,0.1,0,0.1c0,0,0,0.1,0,0.1c0,0,0,0,0,0
				c0,0,0,0.1-0.1,0.1c0,0,0,0,0,0.1c0,0,0,0,0,0c0,0,0,0,0,0c0,0,0,0,0,0c0,0,0,0-0.1,0c0,0-0.1,0-0.1,0.1c0,0-0.1,0-0.1,0
				c0,0,0,0,0,0c0,0-0.1,0-0.1,0h0c0,0,0,0-0.1,0c0,0,0,0-0.1,0c0,0,0,0-0.1,0c0,0-0.1,0-0.1-0.1c0,0-0.1,0-0.1-0.1c0,0,0,0,0,0
				c0,0,0,0,0,0c0,0,0,0,0,0c0,0,0,0,0-0.1c0,0,0,0,0-0.1c0,0,0,0,0,0c0,0,0,0,0-0.1c0,0,0-0.1,0-0.1c0,0,0-0.1,0-0.1c0,0,0,0,0,0
				c0,0,0,0,0,0c0,0,0-0.1,0-0.1c0,0,0,0,0-0.1c0,0,0,0,0-0.1v0c0,0,0,0,0-0.1c0,0,0-0.1,0.1-0.1c0,0,0,0,0,0c0,0,0,0,0.1,0
				c0,0,0,0,0,0c0,0,0.1,0,0.1-0.1c0,0,0,0,0.1,0c0,0,0,0,0.1,0l0,0c0,0,0,0,0.1,0c0,0,0,0,0.1,0c0,0,0,0,0,0c0,0,0,0,0,0
				c0,0,0.1,0,0.1,0c0,0,0,0,0,0c0,0,0.1,0,0.1,0c0,0,0,0,0.1,0C35.1,9,35.1,9,35.2,9.1C35.1,9,35.1,9,35.2,9.1
				C35.2,9,35.2,9,35.2,9.1z M36.7,10.9c0,0-0.1,0.1-0.1,0.1c0,0-0.1,0.1-0.1,0.1c0,0,0,0,0,0c0,0,0,0.1-0.1,0.1c0,0,0,0.1-0.1,0.1
				c-0.1,0.1-0.2,0.2-0.3,0.3c-0.1,0-0.1,0-0.2,0c0,0-0.1,0-0.1-0.1c-0.1,0-0.2-0.1-0.2-0.2c-0.1-0.1-0.1-0.1-0.1-0.2
				c-0.1-0.1-0.2-0.3-0.3-0.4c0,0,0,0,0,0c0,0,0-0.1-0.1-0.1c0,0,0,0,0-0.1c0,0,0,0,0,0c0,0,0-0.1,0-0.1c0,0,0.1,0,0.1,0
				c0,0,0.1,0,0.1-0.1c0,0,0.1,0,0.1-0.1c0,0,0,0,0.1,0c0,0,0,0,0,0c0,0,0,0,0-0.1c0.1,0,0.2,0.1,0.3,0.1c0.2,0,0.3,0,0.5,0
				c0.1,0,0.2,0,0.4,0c0.1,0,0.3,0,0.4-0.1c0,0.1,0.1,0.2,0.1,0.3C37,10.5,36.9,10.7,36.7,10.9z M36.6,8.1c0.1,0,0.2,0.1,0.2,0.1
				C37,8.3,37,8.6,37,8.8c0,0,0,0.1,0,0.1c0,0,0,0.1,0,0.1c0,0,0,0.1,0,0.1c0,0,0,0.1,0,0.1c0,0.1,0.1,0.3,0,0.4
				c0,0-0.1,0.1-0.1,0.1c0,0-0.1,0-0.1,0.1c-0.1,0-0.2,0.1-0.3,0.1c-0.1,0-0.1,0-0.2,0c-0.3,0-0.6,0-0.8-0.1c0,0,0-0.1,0-0.1
				c0,0,0-0.1,0-0.1c0,0,0-0.1,0-0.1c0,0,0,0,0,0c0,0,0,0,0-0.1c0,0,0-0.1,0-0.1c0.1-0.1,0.2-0.1,0.3-0.2c0.2-0.2,0.4-0.4,0.6-0.7
				C36.5,8.4,36.6,8.3,36.6,8.1z M35.1,7.1C35.1,7.1,35.1,7.1,35.1,7.1c0.2,0,0.4,0.1,0.5,0.2c0,0,0.1,0.1,0.1,0.1
				c0,0,0.1,0,0.1,0.1c0,0,0.1,0,0.1,0.1c0,0,0.1,0,0.1,0c0.1,0,0.3,0.1,0.3,0.2c0,0.1,0,0.1,0,0.2c0,0,0,0.1,0,0.2
				c0,0.1-0.1,0.2-0.1,0.3c0,0.1-0.1,0.1-0.1,0.2c-0.2,0.3-0.4,0.5-0.6,0.6c0,0,0-0.1,0-0.1c0,0,0-0.1-0.1-0.1c0,0,0,0,0,0
				c0,0,0,0-0.1-0.1c0,0,0,0-0.1-0.1c0,0-0.1,0-0.1,0c0-0.1,0-0.2,0-0.3c0-0.3-0.1-0.6-0.2-0.9c0-0.1-0.1-0.2-0.2-0.3
				C34.9,7.1,35,7.1,35.1,7.1z M33.1,7.7c0.1-0.1,0.3-0.2,0.5-0.3c0,0,0.1,0,0.1-0.1c0,0,0.1,0,0.1,0c0,0,0.1,0,0.1-0.1
				c0,0,0.1,0,0.1-0.1c0.1-0.1,0.2-0.1,0.3-0.1c0,0,0.1,0,0.1,0c0.1,0,0.1,0,0.1,0.1c0,0,0.1,0.1,0.1,0.1c0,0.1,0.1,0.2,0.1,0.3
				c0,0.1,0,0.1,0.1,0.2c0.1,0.3,0.1,0.6,0.1,0.8c0,0-0.1,0-0.1,0c0,0,0,0-0.1,0c0,0,0,0-0.1,0c0,0-0.1,0-0.1,0c0,0-0.1,0-0.1,0
				c0,0-0.1,0-0.1,0c-0.1-0.1-0.2-0.1-0.3-0.2c-0.2-0.2-0.5-0.3-0.8-0.4C33.2,8,33.1,8,33,8C33,7.9,33,7.8,33.1,7.7z M32.3,9.7
				c-0.1-0.1,0-0.3,0.1-0.6c0,0,0-0.1,0-0.1c0,0,0-0.1,0-0.1c0,0,0-0.1,0-0.1c0,0,0-0.1,0-0.1c0-0.1,0-0.3,0.2-0.4
				c0,0,0.1,0,0.2-0.1c0,0,0,0,0.1,0c0,0,0.1,0,0.1,0c0.1,0,0.2,0,0.3,0.1c0.1,0,0.1,0.1,0.2,0.1c0.3,0.1,0.5,0.3,0.7,0.4
				c0,0,0,0,0,0c0,0,0,0,0,0c0,0-0.1,0.1-0.1,0.1S34,9,34,9.1c0,0,0,0,0,0.1c0,0,0,0.1,0,0.1c-0.1,0-0.2,0-0.3,0.1
				c-0.2,0.1-0.5,0.2-0.8,0.4c-0.1,0.1-0.2,0.2-0.3,0.2C32.4,9.9,32.3,9.8,32.3,9.7z M33,11.1c0,0-0.1-0.1-0.1-0.1
				c0,0,0-0.1-0.1-0.1c0,0-0.1-0.1-0.1-0.1c0,0,0-0.1-0.1-0.1c-0.1-0.1-0.2-0.2-0.2-0.4c0-0.1,0-0.1,0.1-0.2c0,0,0.1-0.1,0.1-0.1
				c0.1-0.1,0.1-0.1,0.3-0.2c0.1,0,0.1-0.1,0.2-0.1c0.3-0.2,0.6-0.2,0.8-0.3c0,0,0,0.1,0,0.1c0,0,0,0.1,0,0.1c0,0,0,0.1,0,0.1
				c0,0,0,0,0,0.1c0,0,0,0.1,0,0.1c0,0.1-0.1,0.2-0.1,0.3c-0.1,0.2-0.2,0.5-0.2,0.9c0,0.1,0,0.2,0,0.3c0,0,0,0,0,0c0,0-0.1,0-0.2,0
				c0,0-0.1,0-0.1,0C33.2,11.5,33.1,11.3,33,11.1z M31.7,11.8c0.1,0,0.1-0.1,0.2-0.1c0.1,0,0.2,0,0.3,0c0,0,0.1,0,0.1,0
				c0,0,0.1,0,0.1,0c0,0,0.1,0,0.1,0c0,0,0.1,0,0.1,0c0.1,0,0.3,0,0.4,0.1c0,0,0.1,0.1,0.1,0.2c0,0,0,0.1,0,0.2c0,0.1,0,0.2,0,0.3
				c0,0.1,0,0.1,0,0.2c-0.1,0.3-0.2,0.6-0.3,0.7c0,0,0,0-0.1-0.1c0,0-0.1,0-0.1-0.1c0,0,0,0,0,0c0,0-0.1,0-0.1,0c0,0,0,0-0.1,0
				c0,0-0.1,0-0.1,0c0-0.1-0.1-0.2-0.1-0.3c-0.1-0.2-0.3-0.5-0.5-0.7c-0.1-0.1-0.2-0.2-0.3-0.3C31.6,12,31.6,11.9,31.7,11.8z
				 M30.4,12.8c0,0,0.1-0.1,0.1-0.1c0,0,0.1-0.1,0.1-0.1c0,0,0.1-0.1,0.1-0.1c0,0,0-0.1,0.1-0.1c0.1-0.1,0.2-0.2,0.3-0.2
				c0.1,0,0.1,0,0.2,0c0,0,0.1,0,0.1,0.1c0.1,0.1,0.1,0.1,0.2,0.2c0.1,0.1,0.1,0.1,0.1,0.2c0.2,0.2,0.3,0.5,0.4,0.7c0,0-0.1,0-0.1,0
				c0,0,0,0-0.1,0c0,0,0,0-0.1,0c0,0-0.1,0-0.1,0.1c0,0,0,0-0.1,0c0,0-0.1,0-0.1,0.1c-0.1,0-0.2-0.1-0.3-0.1
				c-0.3-0.1-0.5-0.1-0.9-0.1c-0.1,0-0.3,0-0.4,0.1c0-0.1,0-0.2,0-0.3C30.1,13.1,30.3,12.9,30.4,12.8z M30.4,15.4
				c-0.1,0-0.2-0.1-0.2-0.1C30.1,15.2,30,15,30,14.8c0,0,0-0.1,0-0.1c0,0,0-0.1,0-0.1c0,0,0-0.1,0-0.1c0,0,0-0.1,0-0.1
				c0-0.1-0.1-0.3,0-0.4c0,0,0.1-0.1,0.1-0.1c0,0,0.1,0,0.2-0.1c0.1,0,0.2,0,0.3,0c0.1,0,0.1,0,0.2,0c0,0,0,0,0,0
				c0.3,0,0.6,0.1,0.8,0.1c0,0,0,0,0,0c0,0,0,0,0,0c0,0,0,0.1,0,0.1c0,0,0,0.1,0,0.1c0,0,0,0.1,0,0.1c0,0,0,0.1,0,0.1
				c-0.1,0.1-0.2,0.1-0.3,0.2c-0.2,0.2-0.4,0.4-0.6,0.6C30.5,15.2,30.5,15.3,30.4,15.4z M31.4,16.4c0,0-0.1-0.1-0.1-0.1
				c0,0-0.1,0-0.1-0.1c0,0-0.1,0-0.1-0.1c0,0-0.1,0-0.1,0c-0.1,0-0.3-0.1-0.3-0.3c0,0,0-0.1,0-0.2c0,0,0-0.1,0-0.2
				c0-0.1,0.1-0.2,0.2-0.3c0-0.1,0.1-0.1,0.1-0.2c0.2-0.2,0.4-0.4,0.6-0.5c0,0,0,0.1,0,0.1c0,0,0,0.1,0.1,0.1c0,0,0.1,0.1,0.1,0.1
				c0,0,0,0,0.1,0c0,0,0.1,0,0.1,0.1c0,0.1,0,0.2,0,0.3c0,0.3,0,0.6,0.1,0.9c0,0.1,0.1,0.3,0.1,0.3c0,0,0,0,0,0c0,0-0.1,0.1-0.2,0.1
				c0,0,0,0-0.1,0C31.7,16.6,31.5,16.5,31.4,16.4z M30.4,17.5c0.1-0.1,0.3-0.2,0.5-0.2c0,0,0.1,0,0.1,0c0,0,0.1,0,0.1,0
				c0,0,0.1,0,0.1,0c0,0,0.1,0,0.1,0c0.1,0,0.2-0.1,0.3-0.1c0,0,0.1,0,0.1,0c0,0,0.1,0.1,0.1,0.1c0,0,0.1,0.1,0.1,0.1
				c0,0.1,0.1,0.2,0.1,0.3c0,0.1,0,0.1,0,0.2c0.1,0.3,0.1,0.6,0,0.8c0,0-0.1,0-0.1,0c0,0,0,0-0.1,0c0,0,0,0-0.1,0c0,0-0.1,0-0.1,0
				c0,0-0.1,0-0.1,0c0,0-0.1,0-0.1,0c-0.1-0.1-0.1-0.1-0.2-0.2c-0.2-0.2-0.4-0.3-0.7-0.5c-0.1-0.1-0.2-0.1-0.4-0.1
				C30.3,17.7,30.3,17.6,30.4,17.5z M29.4,19.4c-0.1-0.1,0-0.3,0.1-0.5c0,0,0-0.1,0.1-0.1c0,0,0-0.1,0-0.1c0,0,0-0.1,0-0.1
				c0,0,0-0.1,0-0.1c0-0.1,0.1-0.3,0.2-0.4c0,0,0.1,0,0.2,0c0,0,0,0,0,0c0,0,0.1,0,0.2,0c0.1,0,0.2,0,0.3,0.1c0.1,0,0.1,0.1,0.2,0.1
				c0.3,0.1,0.5,0.3,0.6,0.5c0,0,0,0,0,0c0,0,0,0,0,0c0,0-0.1,0.1-0.1,0.1c0,0-0.1,0.1-0.1,0.1c0,0,0,0,0,0.1c0,0,0,0.1,0,0.1
				c-0.1,0-0.2,0-0.3,0c-0.3,0-0.5,0.1-0.8,0.3c-0.1,0.1-0.2,0.1-0.3,0.2C29.5,19.6,29.5,19.5,29.4,19.4z M30.7,21
				c0,0.1,0,0.3,0,0.4c-0.1,0-0.2,0-0.3,0c-0.1,0-0.2-0.2-0.4-0.4c0,0,0-0.1-0.1-0.1c0,0,0-0.1-0.1-0.1c0,0,0-0.1-0.1-0.1
				c0,0,0-0.1-0.1-0.1c-0.1-0.1-0.2-0.2-0.2-0.4c0-0.1,0-0.1,0.1-0.2c0,0,0.1-0.1,0.1-0.1c0.1-0.1,0.2-0.1,0.3-0.2
				c0.1,0,0.1-0.1,0.2-0.1c0.3-0.1,0.6-0.2,0.8-0.2c0,0,0,0.1,0,0.1c0,0,0,0.1,0,0.1c0,0,0,0.1,0,0.1c0,0,0,0,0,0.1c0,0,0,0.1,0,0.1
				C31.1,19.9,31,20,31,20.1C30.8,20.4,30.7,20.6,30.7,21z M31.8,21.8c0,0-0.1,0-0.1,0c0,0-0.1,0-0.1,0c0,0-0.1,0-0.1,0c0,0,0,0,0,0
				c0,0-0.1,0-0.1,0c-0.1,0-0.3,0-0.4-0.1c0,0-0.1-0.1-0.1-0.2c0,0,0-0.1,0-0.2c0-0.1,0-0.2,0-0.3c0-0.1,0-0.2,0.1-0.2
				c0.1-0.3,0.2-0.5,0.3-0.7c0,0,0,0,0.1,0.1c0,0,0.1,0,0.1,0.1c0,0,0.1,0,0.1,0.1c0,0,0,0,0.1,0c0,0,0.1,0,0.1,0
				c0,0.1,0.1,0.2,0.1,0.3c0.1,0.2,0.2,0.5,0.5,0.8c0.1,0.1,0.2,0.2,0.2,0.2c0,0,0,0,0,0c0,0-0.1,0.1-0.1,0.1c0,0,0,0-0.1,0
				C32.3,21.9,32.1,21.8,31.8,21.8z M31.3,23.3c0-0.1,0.2-0.3,0.4-0.4c0,0,0.1-0.1,0.1-0.1c0,0,0.1-0.1,0.1-0.1c0,0,0.1-0.1,0.1-0.1
				c0,0,0-0.1,0.1-0.1c0.1-0.1,0.2-0.2,0.3-0.2c0,0,0,0,0,0c0.1,0,0.1,0,0.2,0c0,0,0.1,0.1,0.1,0.1c0.1,0.1,0.1,0.1,0.2,0.2
				c0,0.1,0.1,0.1,0.1,0.2c0.2,0.3,0.3,0.5,0.3,0.8c0,0-0.1,0-0.1,0c0,0,0,0-0.1,0c0,0,0,0-0.1,0c0,0-0.1,0-0.1,0c0,0,0,0-0.1,0
				c0,0-0.1,0-0.1,0.1c-0.1,0-0.2-0.1-0.3-0.1c-0.2-0.1-0.5-0.2-0.9-0.2c-0.1,0-0.3,0-0.4,0C31.3,23.5,31.3,23.4,31.3,23.3z
				 M31.4,25.5c-0.1,0-0.1-0.1-0.2-0.2c-0.1-0.1-0.1-0.3-0.1-0.6c0,0,0-0.1,0-0.1c0,0,0-0.1,0-0.1c0,0,0-0.1,0-0.1c0,0,0-0.1,0-0.1
				c0-0.1,0-0.3,0-0.4c0,0,0.1-0.1,0.1-0.1c0,0,0.1,0,0.2,0c0.1,0,0.1,0,0.2,0c0,0,0.1,0,0.1,0c0.1,0,0.1,0,0.2,0
				c0.3,0,0.6,0.1,0.8,0.2c0,0,0,0.1,0,0.1c0,0,0,0.1-0.1,0.1c0,0,0,0.1,0,0.1c0,0,0,0.1,0,0.1c0,0,0,0.1,0,0.1
				c-0.1,0-0.2,0.1-0.3,0.2c-0.2,0.1-0.5,0.3-0.7,0.6C31.5,25.3,31.4,25.4,31.4,25.5z M32.7,26.8c-0.1,0-0.3-0.1-0.5-0.3
				c0,0-0.1-0.1-0.1-0.1c0,0-0.1-0.1-0.1-0.1c0,0-0.1,0-0.1-0.1s-0.1,0-0.1,0c-0.1-0.1-0.3-0.1-0.3-0.3c0-0.1,0-0.1,0-0.2
				c0,0,0-0.1,0.1-0.2c0-0.1,0.1-0.2,0.2-0.3c0-0.1,0.1-0.1,0.1-0.2c0.2-0.2,0.5-0.4,0.7-0.5c0,0,0,0.1,0,0.1c0,0,0,0.1,0.1,0.1
				c0,0,0,0.1,0.1,0.1c0,0,0,0,0.1,0.1c0,0,0,0,0.1,0.1c0,0.1,0,0.2-0.1,0.3c0,0.3,0,0.6,0,0.9c0,0.1,0.1,0.3,0.1,0.4
				C32.9,26.8,32.8,26.8,32.7,26.8z M33,25C33,24.9,33,24.9,33,25c-0.1-0.1-0.1-0.1-0.1-0.1c0,0,0-0.1-0.1-0.1c0,0,0-0.1,0-0.1
				c0,0,0,0,0,0c0,0,0,0,0,0c0,0,0-0.1,0-0.1c0,0,0,0,0-0.1c0,0,0,0,0-0.1c0,0,0,0,0,0c0,0,0,0,0-0.1c0,0,0-0.1,0-0.1c0,0,0,0,0,0
				c0,0,0,0,0-0.1c0,0,0,0,0,0c0,0,0.1-0.1,0.1-0.1c0,0,0,0,0.1,0c0,0,0,0,0.1,0c0,0,0,0,0,0c0,0,0,0,0.1,0c0,0,0.1,0,0.1,0
				c0,0,0,0,0,0c0,0,0.1,0,0.1,0h0c0,0,0,0,0,0c0,0,0.1,0,0.1,0c0,0,0,0,0.1,0c0,0,0,0,0.1,0c0,0,0,0,0.1,0c0,0,0,0,0,0
				c0,0,0.1,0,0.1,0.1c0,0,0,0,0.1,0.1c0,0,0,0,0,0c0,0,0,0.1,0.1,0.1c0,0,0,0,0,0.1c0,0,0,0,0,0.1c0,0,0,0,0,0c0,0,0,0,0,0
				c0,0,0,0,0,0.1c0,0,0,0.1,0,0.1c0,0,0,0.1,0,0.1c0,0,0,0,0,0c0,0,0,0.1,0,0.1c0,0,0,0,0,0.1c0,0,0,0,0,0c0,0,0,0,0,0c0,0,0,0,0,0
				c0,0,0,0,0,0c0,0,0,0,0,0.1c0,0-0.1,0.1-0.1,0.1c0,0-0.1,0-0.1,0.1c0,0,0,0,0,0c0,0-0.1,0-0.1,0c0,0,0,0,0,0c0,0,0,0-0.1,0
				c0,0,0,0-0.1,0h0c0,0,0,0-0.1,0c0,0-0.1,0-0.1,0c0,0-0.1,0-0.1,0c0,0,0,0,0,0c0,0,0,0,0,0C33.1,25,33.1,25,33,25
				C33.1,25,33,25,33,25z M34.1,26.8C34.1,26.8,34.1,26.8,34.1,26.8C34.1,26.8,34,26.8,34.1,26.8c-0.1,0-0.2,0-0.2,0.1
				c0,0-0.1,0-0.1,0c-0.1,0.1-0.3,0.1-0.4,0c0,0-0.1-0.1-0.1-0.1c0,0-0.1-0.1-0.1-0.1c0-0.1-0.1-0.2-0.1-0.3c0-0.1,0-0.1,0-0.2
				c0-0.3,0-0.6,0-0.8c0,0,0.1,0,0.1,0c0,0,0.1,0,0.1,0c0,0,0.1,0,0.1,0h0c0,0,0.1,0,0.1,0c0,0,0.1,0,0.1,0c0.1,0.1,0.1,0.2,0.2,0.2
				c0.2,0.2,0.4,0.4,0.7,0.5c0.1,0.1,0.2,0.1,0.4,0.1c0,0.1,0,0.2-0.1,0.3c-0.1,0.1-0.3,0.2-0.5,0.2C34.3,26.7,34.2,26.7,34.1,26.8
				C34.1,26.8,34.1,26.8,34.1,26.8z M34.9,30.3l0.5-0.2L35.1,30c0,0-0.5-0.3-0.8-0.9l0.4-0.1l-0.2-0.2c0,0-0.4-0.4-0.3-1.6
				c0.5,0.7,1,1.3,1.5,1.8c0,0,0,0,0,0c-0.1,0-0.1,0-0.2,0c-0.1,0-0.3,0-0.4,0.1h0c0,0,0,0,0,0c0,0,0,0.1,0,0.1c0.1,0,0.2,0,0.2,0
				c0.1,0,0.2,0,0.2,0c0.1,0,0.2,0,0.2,0c0.1,0,0.1,0,0.2-0.1c0.2,0.1,0.3,0.3,0.5,0.4c0.2,1,0.6,1.5,0.9,1.7l-0.1,0.1L37,31.4
				C37,31.4,35.8,31.2,34.9,30.3z M38.2,32.6c-0.5-0.2-1-0.5-1.4-0.8l0.4-0.2l0.1,0.1c0.4,0.5,0.9,0.7,1.2,0.7L38.2,32.6z
				 M40.9,33.4l0.5-0.5L41,33c0,0-0.1,0-0.2,0c-0.1,0-0.1,0-0.2,0c-0.1,0-0.2,0-0.3,0c-0.5,0-1.2-0.1-1.8-0.4l0.4-0.4l-0.3,0
				c0,0-0.6-0.1-1.2-0.6l0.4-0.2l-0.2-0.1c0,0-0.2-0.1-0.4-0.3c0,0-0.1-0.1-0.1-0.1c-0.1-0.2-0.3-0.5-0.4-0.9c0,0,0,0,0,0
				c0-0.1,0-0.1,0-0.2c0,0,0,0,0,0c0.1,0.1,0.2,0.1,0.3,0.2c0.3,0.2,0.6,0.4,0.9,0.6c0,0,0,0,0.1,0c0,0,0,0,0,0c0,0,0.1,0,0.1,0.1
				c0,0,0,0,0,0c0,0,0.1,0,0.1,0.1c0,0,0,0,0,0c0.5,0.3,1,0.5,1.5,0.6c0,0,0,0,0,0c0,0-0.1,0.1-0.1,0.1c0,0,0,0-0.1,0c0,0,0,0,0,0
				c0,0-0.1,0.1-0.1,0.1c0,0,0,0,0,0c0,0-0.1,0-0.1,0.1c0,0-0.1,0-0.1,0c0,0,0,0,0,0.1c0,0,0,0,0.1,0c0.1,0,0.2,0,0.2-0.1
				c0,0,0.1,0,0.1,0c0,0,0,0,0.1,0c0,0,0,0,0,0c0,0,0.1,0,0.1-0.1c0,0,0.1,0,0.1,0c0,0,0,0,0,0c0.1,0,0.1-0.1,0.2-0.1
				c0.3,0.1,0.6,0.2,0.9,0.3c0,0,0.1,0,0.1,0c0,0,0.1,0,0.1,0c0.2,0,0.4,0.1,0.5,0.1c0,0,0,0,0,0c0,0,0,0-0.1,0
				c-0.1,0-0.1,0.1-0.2,0.1c0,0,0,0,0,0c-0.1,0-0.1,0.1-0.2,0.1c0,0,0,0,0,0c0,0-0.1,0-0.1,0.1c0,0-0.1,0-0.1,0.1c0,0,0,0,0,0
				c0,0,0,0,0,0.1c0,0,0,0,0,0c0,0,0,0,0,0c0,0,0.1,0,0.1,0c0,0,0.1,0,0.1,0c0.1,0,0.2-0.1,0.3-0.1c0,0,0,0,0.1,0
				c0.1,0,0.2-0.1,0.2-0.1c0.1,0,0.1-0.1,0.2-0.1c0,0,0,0,0,0c0,0,0,0,0,0c0.1,0,0.1,0,0.2,0c0,0,0.1,0,0.1,0c0,0,0.1,0,0.1,0v0.6
				l0,0c0,0,0.5,0.5,1.3,1C43,33.8,42,33.8,40.9,33.4z M47.1,33.6c0,0-0.1,0.1-0.2,0.1c0,0-0.1,0.1-0.2,0.1
				c-0.4,0.2-0.7,0.4-1.2,0.6c-0.4-0.2-0.8-0.4-1.2-0.6c-0.1,0-0.1-0.1-0.2-0.1c-0.1,0-0.1-0.1-0.2-0.1c-0.8-0.5-1.3-0.9-1.4-1v-4.5
				c0.1,0,0.2,0.1,0.3,0.1c0,0,0,0,0,0c0.2,0,0.3,0.1,0.5,0.1c0,0,0,0,0,0c0,0,0,0,0.1,0c0,0,0.1,0,0.1,0c0.1,0,0.1,0,0.2,0
				c0,0,0.1,0,0.1,0c0.1,0,0.1,0,0.2,0c0.1,0,0.2,0,0.3,0c0.1,0,0.2,0,0.3,0c0.1,0,0.1,0,0.2,0c0.1,0,0.2,0,0.3,0c0.1,0,0.1,0,0.2,0
				c0.1,0,0.3,0,0.4,0c0.1,0,0.1,0,0.2,0c0.1,0,0.2,0,0.3,0c0,0,0,0,0.1,0c0.1,0,0.1,0,0.2,0c0,0,0,0,0.1,0c0.1,0,0.1,0,0.2,0
				c0,0,0,0,0,0c0.1,0,0.2,0,0.3,0c0.1,0,0.1,0,0.2,0c0.1,0,0.2,0,0.3-0.1c0,0,0.1,0,0.1,0c0.2,0,0.3-0.1,0.5-0.1c0,0,0,0,0,0
				c0.1,0,0.2,0,0.3-0.1v4.5C48.4,32.7,47.9,33.1,47.1,33.6z M54,31c-0.1,0.1-0.2,0.2-0.2,0.2c-0.1,0.1-0.1,0.1-0.1,0.1l-0.2,0.1
				l0.4,0.2c-0.6,0.5-1.2,0.6-1.2,0.6l-0.3,0l0.4,0.4c-1.2,0.6-2.5,0.4-2.5,0.4l-0.4-0.1l0.5,0.5c-1,0.4-2.1,0.4-2.8,0.2
				c0.8-0.5,1.2-0.9,1.3-1l0,0v-0.6c0.1,0,0.2,0,0.4-0.1c0.1,0.1,0.2,0.1,0.2,0.1c0.1,0,0.2,0.1,0.3,0.1c0.2,0.1,0.4,0.1,0.6,0.2
				c0,0,0,0,0,0c0,0,0,0,0-0.1c-0.2-0.1-0.4-0.2-0.5-0.3c-0.1,0-0.2-0.1-0.3-0.1c0,0,0,0,0,0c0.5-0.1,1.1-0.3,1.7-0.5
				c0.1,0,0.1,0.1,0.2,0.1c0.1,0,0.1,0.1,0.2,0.1c0.2,0.1,0.3,0.1,0.5,0.1c0,0,0.1,0,0.1,0c0,0,0-0.1,0-0.1
				c-0.1-0.1-0.3-0.1-0.4-0.2c-0.1,0-0.1-0.1-0.2-0.1c0,0,0,0,0,0c1-0.4,2.1-0.9,3.1-1.6c0,0.1-0.1,0.3-0.1,0.4
				c-0.1,0.2-0.1,0.4-0.2,0.5C54.1,30.8,54,30.9,54,31z M58.7,27.3c-1.8,2.3-3.9,3.6-4.6,3.8c0.2-0.2,0.3-0.5,0.5-0.9
				c0.1-0.2,0.3-0.4,0.5-0.6c0.4-0.5,0.9-1.1,1.3-1.6c0.4-0.4,0.7-0.8,1.1-1.2c0.2-0.2,0.7-0.9,1.1-1.7c0.3-0.4,0.6-0.7,0.9-0.9
				c0,0.3,0.1,0.6,0.3,0.6c0,0,0,0,0.1,0c0.1,0,0.2,0,0.3-0.1C60,25.4,59.5,26.3,58.7,27.3z M61.4,21.3c-0.3,1.2-0.8,2.3-1.1,2.8
				c0,0-0.1,0.1-0.1,0.1c0,0.1-0.1,0.1-0.1,0.1c-0.1,0.2-0.2,0.2-0.3,0.2c-0.1,0-0.1-0.2-0.1-0.5c0,0,0-0.1,0-0.1c0,0,0-0.1,0-0.1
				c0-0.6,0.1-1.5,0.3-2.5c0-0.1,0-0.2,0.1-0.3c0,0,0-0.1,0-0.1c0.2-0.6,0.4-1.1,0.6-1.4c0.1,0.2,0.3,0.4,0.4,0.4h0
				c0.1,0,0.3,0,0.4-0.5C61.8,19.7,61.6,20.5,61.4,21.3z M54.1,19.8l0.1-0.3l-0.6,0.1L54.1,19.8z M53.3,21.1c-0.1,0-0.1,0-0.2,0
				c-0.1,0-0.1,0.1-0.1,0.1l-0.1,0.2l0.4,0.2l0.1-0.2c0-0.1,0-0.1,0-0.2C53.4,21.2,53.4,21.1,53.3,21.1z M52.7,23.1l-0.5-0.2
				l0.3,0.5L52.7,23.1z M52.2,12.1l-0.5,0.2l0.2,0.3L52.2,12.1z M47.2,26.1l-0.1,0.6l0.3-0.1L47.2,26.1z M45.9,9.1l-0.3,0l0,0.4
				l0.3,0c0.1,0,0.1,0,0.2-0.1c0,0,0.1-0.1,0.1-0.1c0-0.1,0-0.1-0.1-0.1C46,9.2,46,9.1,45.9,9.1z M45.4,26.2l-0.3,0l0,0.4l0.3,0
				c0.1,0,0.1,0,0.2-0.1c0,0,0.1-0.1,0.1-0.1c0-0.1,0-0.1-0.1-0.1C45.5,26.2,45.5,26.2,45.4,26.2z M40.7,24.6l-0.5,0.3l0.3,0.2
				L40.7,24.6z M47.2,26.1l-0.1,0.6l0.3-0.1L47.2,26.1z M45.6,26.2c0,0-0.1-0.1-0.1-0.1l-0.3,0l0,0.4l0.3,0c0.1,0,0.1,0,0.2-0.1
				c0,0,0.1-0.1,0.1-0.1C45.6,26.3,45.6,26.3,45.6,26.2z M40.2,24.9l0.3,0.2l0.2-0.5L40.2,24.9z M46.1,9.2c0,0-0.1-0.1-0.1-0.1
				l-0.3,0l0,0.4l0.3,0c0.1,0,0.1,0,0.2-0.1c0,0,0.1-0.1,0.1-0.1C46.1,9.3,46.1,9.2,46.1,9.2z M51.7,12.4l0.2,0.3l0.3-0.5L51.7,12.4
				z M53.6,19.5l0.5,0.3l0.1-0.3L53.6,19.5z M53.4,21.2c0-0.1-0.1-0.1-0.1-0.1c-0.1,0-0.1,0-0.2,0c-0.1,0-0.1,0.1-0.1,0.1l-0.1,0.2
				l0.4,0.2l0.1-0.2C53.5,21.3,53.5,21.3,53.4,21.2z M52.2,22.9l0.3,0.5l0.2-0.3L52.2,22.9z M53.6,19.5l0.5,0.3l0.1-0.3L53.6,19.5z
				 M53.4,21.2c0-0.1-0.1-0.1-0.1-0.1c-0.1,0-0.1,0-0.2,0c-0.1,0-0.1,0.1-0.1,0.1l-0.1,0.2l0.4,0.2l0.1-0.2
				C53.5,21.3,53.5,21.3,53.4,21.2z M52.2,22.9l0.3,0.5l0.2-0.3L52.2,22.9z M51.7,12.4l0.2,0.3l0.3-0.5L51.7,12.4z M47.2,26.1
				l-0.1,0.6l0.3-0.1L47.2,26.1z M46.1,9.2c0,0-0.1-0.1-0.1-0.1l-0.3,0l0,0.4l0.3,0c0.1,0,0.1,0,0.2-0.1c0,0,0.1-0.1,0.1-0.1
				C46.1,9.3,46.1,9.2,46.1,9.2z M45.6,26.2c0,0-0.1-0.1-0.1-0.1l-0.3,0l0,0.4l0.3,0c0.1,0,0.1,0,0.2-0.1c0,0,0.1-0.1,0.1-0.1
				C45.6,26.3,45.6,26.3,45.6,26.2z M40.2,24.9l0.3,0.2l0.2-0.5L40.2,24.9z M47.2,26.1l-0.1,0.6l0.3-0.1L47.2,26.1z M45.6,26.2
				c0,0-0.1-0.1-0.1-0.1l-0.3,0l0,0.4l0.3,0c0.1,0,0.1,0,0.2-0.1c0,0,0.1-0.1,0.1-0.1C45.6,26.3,45.6,26.3,45.6,26.2z M40.2,24.9
				l0.3,0.2l0.2-0.5L40.2,24.9z M46.1,9.2c0,0-0.1-0.1-0.1-0.1l-0.3,0l0,0.4l0.3,0c0.1,0,0.1,0,0.2-0.1c0,0,0.1-0.1,0.1-0.1
				C46.1,9.3,46.1,9.2,46.1,9.2z M51.7,12.4l0.2,0.3l0.3-0.5L51.7,12.4z M53.6,19.5l0.5,0.3l0.1-0.3L53.6,19.5z M53.4,21.2
				c0-0.1-0.1-0.1-0.1-0.1c-0.1,0-0.1,0-0.2,0c-0.1,0-0.1,0.1-0.1,0.1l-0.1,0.2l0.4,0.2l0.1-0.2C53.5,21.3,53.5,21.3,53.4,21.2z
				 M52.2,22.9l0.3,0.5l0.2-0.3L52.2,22.9z M53.6,19.5l0.5,0.3l0.1-0.3L53.6,19.5z M53.4,21.2c0-0.1-0.1-0.1-0.1-0.1
				c-0.1,0-0.1,0-0.2,0c-0.1,0-0.1,0.1-0.1,0.1l-0.1,0.2l0.4,0.2l0.1-0.2C53.5,21.3,53.5,21.3,53.4,21.2z M52.2,22.9l0.3,0.5
				l0.2-0.3L52.2,22.9z M51.7,12.4l0.2,0.3l0.3-0.5L51.7,12.4z M47.2,26.1l-0.1,0.6l0.3-0.1L47.2,26.1z M46.1,9.2
				c0,0-0.1-0.1-0.1-0.1l-0.3,0l0,0.4l0.3,0c0.1,0,0.1,0,0.2-0.1c0,0,0.1-0.1,0.1-0.1C46.1,9.3,46.1,9.2,46.1,9.2z M45.6,26.2
				c0,0-0.1-0.1-0.1-0.1l-0.3,0l0,0.4l0.3,0c0.1,0,0.1,0,0.2-0.1c0,0,0.1-0.1,0.1-0.1C45.6,26.3,45.6,26.3,45.6,26.2z M40.2,24.9
				l0.3,0.2l0.2-0.5L40.2,24.9z M47.2,26.1l-0.1,0.6l0.3-0.1L47.2,26.1z M45.6,26.2c0,0-0.1-0.1-0.1-0.1l-0.3,0l0,0.4l0.3,0
				c0.1,0,0.1,0,0.2-0.1c0,0,0.1-0.1,0.1-0.1C45.6,26.3,45.6,26.3,45.6,26.2z M40.2,24.9l0.3,0.2l0.2-0.5L40.2,24.9z M51.7,12.4
				l0.2,0.3l0.3-0.5L51.7,12.4z M53.6,19.5l0.5,0.3l0.1-0.3L53.6,19.5z M53.4,21.2c0-0.1-0.1-0.1-0.1-0.1c-0.1,0-0.1,0-0.2,0
				c-0.1,0-0.1,0.1-0.1,0.1l-0.1,0.2l0.4,0.2l0.1-0.2C53.5,21.3,53.5,21.3,53.4,21.2z M52.2,22.9l0.3,0.5l0.2-0.3L52.2,22.9z
				 M53.6,19.5l0.5,0.3l0.1-0.3L53.6,19.5z M53.4,21.2c0-0.1-0.1-0.1-0.1-0.1c-0.1,0-0.1,0-0.2,0c-0.1,0-0.1,0.1-0.1,0.1l-0.1,0.2
				l0.4,0.2l0.1-0.2C53.5,21.3,53.5,21.3,53.4,21.2z M52.2,22.9l0.3,0.5l0.2-0.3L52.2,22.9z M51.7,12.4l0.2,0.3l0.3-0.5L51.7,12.4z
				 M47.2,26.1l-0.1,0.6l0.3-0.1L47.2,26.1z M45.6,26.2c0,0-0.1-0.1-0.1-0.1l-0.3,0l0,0.4l0.3,0c0.1,0,0.1,0,0.2-0.1
				c0,0,0.1-0.1,0.1-0.1C45.6,26.3,45.6,26.3,45.6,26.2z M40.2,24.9l0.3,0.2l0.2-0.5L40.2,24.9z M47.2,26.1l-0.1,0.6l0.3-0.1
				L47.2,26.1z M45.6,26.2c0,0-0.1-0.1-0.1-0.1l-0.3,0l0,0.4l0.3,0c0.1,0,0.1,0,0.2-0.1c0,0,0.1-0.1,0.1-0.1
				C45.6,26.3,45.6,26.3,45.6,26.2z M40.2,24.9l0.3,0.2l0.2-0.5L40.2,24.9z M51.7,12.4l0.2,0.3l0.3-0.5L51.7,12.4z M53.6,19.5
				l0.5,0.3l0.1-0.3L53.6,19.5z M53.4,21.2c0-0.1-0.1-0.1-0.1-0.1c-0.1,0-0.1,0-0.2,0c-0.1,0-0.1,0.1-0.1,0.1l-0.1,0.2l0.4,0.2
				l0.1-0.2C53.5,21.3,53.5,21.3,53.4,21.2z M52.2,22.9l0.3,0.5l0.2-0.3L52.2,22.9z M53.6,19.5l0.5,0.3l0.1-0.3L53.6,19.5z
				 M53.4,21.2c0-0.1-0.1-0.1-0.1-0.1c-0.1,0-0.1,0-0.2,0c-0.1,0-0.1,0.1-0.1,0.1l-0.1,0.2l0.4,0.2l0.1-0.2
				C53.5,21.3,53.5,21.3,53.4,21.2z M52.2,22.9l0.3,0.5l0.2-0.3L52.2,22.9z M51.7,12.4l0.2,0.3l0.3-0.5L51.7,12.4z M47.2,26.1
				l-0.1,0.6l0.3-0.1L47.2,26.1z M45.6,26.2c0,0-0.1-0.1-0.1-0.1l-0.3,0l0,0.4l0.3,0c0.1,0,0.1,0,0.2-0.1c0,0,0.1-0.1,0.1-0.1
				C45.6,26.3,45.6,26.3,45.6,26.2z M40.2,24.9l0.3,0.2l0.2-0.5L40.2,24.9z M47.2,26.1l-0.1,0.6l0.3-0.1L47.2,26.1z M45.6,26.2
				c0,0-0.1-0.1-0.1-0.1l-0.3,0l0,0.4l0.3,0c0.1,0,0.1,0,0.2-0.1c0,0,0.1-0.1,0.1-0.1C45.6,26.3,45.6,26.3,45.6,26.2z M40.2,24.9
				l0.3,0.2l0.2-0.5L40.2,24.9z M53.6,19.5l0.5,0.3l0.1-0.3L53.6,19.5z M53.4,21.2c0-0.1-0.1-0.1-0.1-0.1c-0.1,0-0.1,0-0.2,0
				c-0.1,0-0.1,0.1-0.1,0.1l-0.1,0.2l0.4,0.2l0.1-0.2C53.5,21.3,53.5,21.3,53.4,21.2z M52.2,22.9l0.3,0.5l0.2-0.3L52.2,22.9z
				 M53.6,19.5l0.5,0.3l0.1-0.3L53.6,19.5z M53.4,21.2c0-0.1-0.1-0.1-0.1-0.1c-0.1,0-0.1,0-0.2,0c-0.1,0-0.1,0.1-0.1,0.1l-0.1,0.2
				l0.4,0.2l0.1-0.2C53.5,21.3,53.5,21.3,53.4,21.2z M52.2,22.9l0.3,0.5l0.2-0.3L52.2,22.9z M47.2,26.1l-0.1,0.6l0.3-0.1L47.2,26.1z
				 M45.6,26.2c0,0-0.1-0.1-0.1-0.1l-0.3,0l0,0.4l0.3,0c0.1,0,0.1,0,0.2-0.1c0,0,0.1-0.1,0.1-0.1C45.6,26.3,45.6,26.3,45.6,26.2z
				 M40.2,24.9l0.3,0.2l0.2-0.5L40.2,24.9z M47.2,26.1l-0.1,0.6l0.3-0.1L47.2,26.1z M45.6,26.2c0,0-0.1-0.1-0.1-0.1l-0.3,0l0,0.4
				l0.3,0c0.1,0,0.1,0,0.2-0.1c0,0,0.1-0.1,0.1-0.1C45.6,26.3,45.6,26.3,45.6,26.2z M40.2,24.9l0.3,0.2l0.2-0.5L40.2,24.9z
				 M53.4,21.2c0-0.1-0.1-0.1-0.1-0.1c-0.1,0-0.1,0-0.2,0c-0.1,0-0.1,0.1-0.1,0.1l-0.1,0.2l0.4,0.2l0.1-0.2
				C53.5,21.3,53.5,21.3,53.4,21.2z M52.2,22.9l0.3,0.5l0.2-0.3L52.2,22.9z M53.4,21.2c0-0.1-0.1-0.1-0.1-0.1c-0.1,0-0.1,0-0.2,0
				c-0.1,0-0.1,0.1-0.1,0.1l-0.1,0.2l0.4,0.2l0.1-0.2C53.5,21.3,53.5,21.3,53.4,21.2z M52.2,22.9l0.3,0.5l0.2-0.3L52.2,22.9z
				 M47.2,26.1l-0.1,0.6l0.3-0.1L47.2,26.1z M45.6,26.2c0,0-0.1-0.1-0.1-0.1l-0.3,0l0,0.4l0.3,0c0.1,0,0.1,0,0.2-0.1
				c0,0,0.1-0.1,0.1-0.1C45.6,26.3,45.6,26.3,45.6,26.2z M40.2,24.9l0.3,0.2l0.2-0.5L40.2,24.9z M47.2,26.1l-0.1,0.6l0.3-0.1
				L47.2,26.1z M45.6,26.2c0,0-0.1-0.1-0.1-0.1l-0.3,0l0,0.4l0.3,0c0.1,0,0.1,0,0.2-0.1c0,0,0.1-0.1,0.1-0.1
				C45.6,26.3,45.6,26.3,45.6,26.2z M40.2,24.9l0.3,0.2l0.2-0.5L40.2,24.9z M47.2,26.1l-0.1,0.6l0.3-0.1L47.2,26.1z M45.6,26.2
				c0,0-0.1-0.1-0.1-0.1l-0.3,0l0,0.4l0.3,0c0.1,0,0.1,0,0.2-0.1c0,0,0.1-0.1,0.1-0.1C45.6,26.3,45.6,26.3,45.6,26.2z M40.2,24.9
				l0.3,0.2l0.2-0.5L40.2,24.9z M47.2,26.1l-0.1,0.6l0.3-0.1L47.2,26.1z M45.6,26.2c0,0-0.1-0.1-0.1-0.1l-0.3,0l0,0.4l0.3,0
				c0.1,0,0.1,0,0.2-0.1c0,0,0.1-0.1,0.1-0.1C45.6,26.3,45.6,26.3,45.6,26.2z M40.2,24.9l0.3,0.2l0.2-0.5L40.2,24.9z M47.2,26.1
				l-0.1,0.6l0.3-0.1L47.2,26.1z M45.6,26.2c0,0-0.1-0.1-0.1-0.1l-0.3,0l0,0.4l0.3,0c0.1,0,0.1,0,0.2-0.1c0,0,0.1-0.1,0.1-0.1
				C45.6,26.3,45.6,26.3,45.6,26.2z M40.2,24.9l0.3,0.2l0.2-0.5L40.2,24.9z M40.2,24.9l0.3,0.2l0.2-0.5L40.2,24.9z M40.2,24.9
				l0.3,0.2l0.2-0.5L40.2,24.9z M40.2,24.9l0.3,0.2l0.2-0.5L40.2,24.9z M40.2,24.9l0.3,0.2l0.2-0.5L40.2,24.9z"/>
			<path class="st0" d="M45.6,0.5c-9.7,0-17.5,7.9-17.5,17.5s7.9,17.5,17.5,17.5c9.7,0,17.5-7.9,17.5-17.5S55.3,0.5,45.6,0.5z
				 M45.6,35.3c-9.5,0-17.3-7.7-17.3-17.3c0-9.5,7.7-17.3,17.3-17.3c9.5,0,17.3,7.7,17.3,17.3C62.9,27.5,55.1,35.3,45.6,35.3z"/>
			<path class="st0" d="M43.8,17.2c0,0.1-0.1,0.1-0.1,0.2c-0.1,0.2-0.2,0.4-0.1,0.6c0,0.1,0.1,0.2,0.1,0.2c0,0.1-0.1,0.1-0.1,0.2
				c0,0.2,0,0.3,0.2,0.5c0,0,0,0.1,0.1,0.1c0,0.1,0.1,0.1,0.1,0.2c0.1,0.2,0.2,0.4,0.4,0.5c0.1,0,0.2,0,0.2,0c0,0,0,0,0,0
				c0,0.1,0,0.1,0.1,0.2c0.1,0.1,0.3,0.2,0.5,0.2c0,0,0.1,0,0.1,0c0.1,0,0.1,0,0.2,0c0.1,0,0.2,0.1,0.3,0.1c0.1,0,0.2,0,0.2-0.1
				c0.1-0.1,0.1-0.1,0.2-0.2c0.1,0,0.1,0,0.2,0c0,0,0,0,0,0c0.2,0,0.3-0.1,0.4-0.3c0,0,0-0.1,0.1-0.1l0,0c0,0,0.1-0.1,0.1-0.1
				c0.2-0.1,0.3-0.3,0.4-0.5c0-0.1,0-0.2,0-0.3c0.1,0,0.1-0.1,0.1-0.1c0.1-0.1,0.1-0.3,0.1-0.5c0,0,0-0.1,0-0.1c0-0.1,0-0.1,0-0.2
				c0-0.2,0-0.4-0.1-0.6c-0.1-0.1-0.1-0.1-0.2-0.1c0-0.1,0-0.1,0-0.2c0-0.2-0.2-0.3-0.3-0.4c0,0-0.1,0-0.1-0.1
				c-0.1,0-0.1-0.1-0.2-0.1c-0.2-0.1-0.3-0.3-0.5-0.2c-0.1,0-0.2,0-0.3,0.1c0,0-0.1-0.1-0.1-0.1c-0.1-0.1-0.3-0.1-0.5,0
				c0,0-0.1,0-0.1,0c-0.1,0-0.1,0-0.2,0c-0.2,0-0.4,0.1-0.5,0.3c-0.1,0.1-0.1,0.2-0.1,0.3c-0.1,0-0.1,0-0.2,0
				c-0.1,0.1-0.2,0.2-0.3,0.4C43.8,17.2,43.8,17.2,43.8,17.2z M44.6,19.1c0,0.1,0,0.2,0,0.3c0,0-0.1,0-0.2,0c-0.1,0-0.2-0.2-0.2-0.3
				c0,0,0,0,0-0.1c0,0,0-0.1-0.1-0.1c0,0,0-0.1-0.1-0.1c0,0,0,0,0,0c-0.1-0.1-0.1-0.2-0.1-0.3c0,0,0-0.1,0-0.1
				c0-0.1,0.1-0.1,0.2-0.2c0,0,0.1,0,0.1-0.1c0.2-0.1,0.4-0.1,0.6-0.2c0.1,0,0.1,0,0.2,0c0,0,0,0,0,0c0,0,0,0.1,0,0.1
				c0,0,0,0.1,0,0.1c0,0,0,0,0,0c0,0,0,0.1,0,0.1c-0.1,0.1-0.1,0.2-0.2,0.3C44.7,18.7,44.7,18.9,44.6,19.1z M45.9,19.8
				c-0.1,0.1-0.2,0-0.4,0c0,0-0.1,0-0.1,0c0,0-0.1,0-0.1,0c0,0-0.1,0-0.1,0c0,0,0,0,0,0c0,0,0,0,0,0c-0.1,0-0.2,0-0.3-0.1
				c0,0,0-0.1,0-0.1c0-0.1,0-0.1,0-0.2c0,0,0-0.1,0-0.1c0.1-0.2,0.1-0.4,0.2-0.6c0,0,0.1-0.1,0.1-0.1c0,0,0,0,0,0
				c0,0,0.1,0.1,0.1,0.1c0,0,0.1,0,0.1,0.1c0,0,0,0,0,0c0,0,0.1,0,0.1,0c0,0.1,0.1,0.2,0.1,0.3c0.1,0.2,0.2,0.3,0.3,0.5
				c0.1,0.1,0.1,0.1,0.2,0.2C46,19.7,46,19.8,45.9,19.8z M45.7,18.5c0,0,0,0.1,0,0.1c0,0,0,0,0,0C45.7,18.5,45.7,18.5,45.7,18.5z
				 M47.2,18.9c0,0.1-0.1,0.2-0.3,0.3c0,0,0,0-0.1,0.1c0,0-0.1,0.1-0.1,0.1c0,0,0,0,0,0c0,0-0.1,0.1-0.1,0.1c0,0,0,0,0,0
				c-0.1,0.1-0.1,0.2-0.2,0.2c0,0,0,0,0,0c0,0-0.1,0-0.1,0c-0.1,0-0.1-0.1-0.2-0.1c0,0-0.1-0.1-0.1-0.1c-0.1-0.2-0.2-0.4-0.3-0.5
				c0,0,0-0.1,0-0.1c0,0,0,0,0,0c0,0,0,0,0,0c0,0,0.1,0,0.1,0c0,0,0.1,0,0.1-0.1c0,0,0,0,0,0c0,0,0,0,0,0c0,0,0,0,0,0
				c0.1,0,0.2,0.1,0.3,0.1c0.2,0,0.4,0.1,0.6,0.1c0,0,0,0,0,0c0.1,0,0.2,0,0.2,0C47.2,18.8,47.2,18.8,47.2,18.9z M47.2,17.2
				c0,0,0.1,0,0.1,0.1c0.1,0.1,0.1,0.2,0.1,0.4c0,0,0,0.1,0,0.1c0,0,0,0.1,0,0.1c0,0,0,0.1,0,0.1c0,0,0,0,0,0.1c0,0.1,0,0.2,0,0.3
				c0,0,0,0-0.1,0.1c-0.1,0-0.1,0-0.2,0.1c0,0-0.1,0-0.1,0c-0.2,0-0.4,0-0.6-0.1c-0.1,0-0.1,0-0.1-0.1c0,0,0,0,0,0c0,0,0-0.1,0-0.1
				c0,0,0-0.1,0-0.1h0c0,0,0,0,0,0c0,0,0,0,0,0c0,0,0-0.1,0-0.1c0.1,0,0.2-0.1,0.3-0.2c0.1-0.1,0.3-0.2,0.4-0.4
				C47.1,17.4,47.1,17.3,47.2,17.2z M46.1,16.3C46.1,16.3,46.1,16.3,46.1,16.3c0.1,0,0.2,0.1,0.4,0.2c0,0,0,0,0.1,0.1
				c0,0,0.1,0.1,0.1,0.1c0,0,0.1,0,0.1,0.1c0,0,0,0,0,0c0.1,0,0.2,0.1,0.2,0.2c0,0,0,0.1,0,0.1c0,0.1,0,0.1-0.1,0.2
				c0,0,0,0.1-0.1,0.1c-0.1,0.2-0.3,0.3-0.4,0.4c0,0-0.1,0.1-0.1,0.1c0,0,0,0,0,0c0,0,0-0.1-0.1-0.1c0,0,0-0.1-0.1-0.1c0,0,0,0,0,0
				c0,0,0,0-0.1-0.1c0-0.1,0-0.2,0-0.3c0-0.2,0-0.4,0-0.6c0-0.1,0-0.2-0.1-0.3C46,16.3,46.1,16.3,46.1,16.3z M45.9,17.7
				C45.9,17.7,45.9,17.7,45.9,17.7C46,17.7,46,17.7,45.9,17.7C46,17.7,46,17.8,45.9,17.7c0.1,0.1,0.1,0.2,0.2,0.2c0,0,0,0,0,0
				c0,0,0,0,0,0c0,0,0,0.1,0,0.1c0,0,0,0,0,0c0,0,0,0.1,0,0.1c0,0,0,0,0,0c0,0,0,0,0,0c0,0,0,0,0,0c0,0,0,0.1,0,0.1c0,0,0,0,0,0
				c0,0,0,0,0,0c0,0,0,0.1-0.1,0.1c0,0,0,0,0,0c0,0,0,0-0.1,0c0,0,0,0,0,0c0,0,0,0,0,0c0,0,0,0,0,0c0,0-0.1,0-0.1,0c0,0,0,0,0,0
				c0,0,0,0,0,0h0c0,0-0.1,0-0.1,0c0,0,0,0,0,0c0,0,0,0,0,0c0,0-0.1,0-0.1,0c0,0,0,0,0,0c0,0,0,0,0,0c0,0-0.1,0-0.1-0.1c0,0,0,0,0,0
				c0,0,0,0,0,0c0,0,0,0,0-0.1c0,0,0,0,0,0c0,0,0,0,0,0c0,0,0-0.1,0-0.1c0,0,0,0,0,0c0,0,0,0,0,0c0,0,0-0.1,0-0.1c0,0,0,0,0,0
				c0,0,0,0,0,0c0,0,0,0,0,0c0,0,0-0.1,0-0.1c0,0,0,0,0,0c0,0,0-0.1,0.1-0.1c0,0,0,0,0,0c0,0,0,0,0,0c0,0,0.1-0.1,0.1-0.1
				c0,0,0,0,0,0c0,0,0,0,0,0c0,0,0.1,0,0.1,0c0,0,0,0,0,0c0,0,0.1,0,0.1,0c0,0,0,0,0,0c0,0,0,0,0,0c0,0,0,0,0,0c0,0,0,0,0.1,0
				c0,0,0,0,0.1,0c0,0,0,0,0,0c0,0,0,0,0,0C45.8,17.6,45.8,17.6,45.9,17.7C45.9,17.6,45.9,17.7,45.9,17.7z M44.6,16.5
				c0-0.1,0.2-0.1,0.4-0.2c0,0,0.1,0,0.1,0c0,0,0.1,0,0.1,0c0,0,0.1,0,0.1,0c0,0,0,0,0,0c0.1,0,0.1-0.1,0.2-0.1c0,0,0.1,0,0.1,0
				c0,0,0.1,0,0.1,0.1c0,0,0.1,0.1,0.1,0.2c0,0,0,0.1,0,0.1c0,0.2,0.1,0.4,0,0.6c0,0.1,0,0.1,0,0.1c0,0,0,0,0,0c0,0,0,0-0.1,0
				c0,0,0,0,0,0c0,0-0.1,0-0.1,0c0,0,0,0,0,0c0,0-0.1,0-0.1,0c-0.1-0.1-0.1-0.2-0.2-0.2c-0.1-0.1-0.3-0.2-0.5-0.3
				c-0.1,0-0.2-0.1-0.2-0.1C44.5,16.6,44.5,16.6,44.6,16.5z M43.9,17.4c0,0,0-0.1,0.1-0.1c0,0,0-0.1,0-0.1c0,0,0,0,0-0.1
				c0-0.1,0.1-0.2,0.1-0.2c0,0,0.1,0,0.1,0c0,0,0,0,0,0c0.1,0,0.1,0,0.2,0.1c0,0,0.1,0,0.1,0.1c0.2,0.1,0.4,0.2,0.5,0.3
				c0,0,0.1,0.1,0.1,0.1c0,0,0,0,0,0c0,0-0.1,0.1-0.1,0.1c0,0-0.1,0.1-0.1,0.1c0,0,0,0,0,0c0,0,0,0,0,0.1c-0.1,0-0.2,0-0.3,0
				c-0.2,0-0.4,0.1-0.5,0.2c-0.1,0-0.2,0.1-0.2,0.1c0,0-0.1-0.1-0.1-0.1C43.8,17.8,43.8,17.7,43.9,17.4
				C43.9,17.5,43.9,17.5,43.9,17.4z"/>
			<path class="st0" d="M45.9,14.5c-0.1,0-0.2,0-0.3,0c-0.1,0-0.2,0-0.3,0c-0.1,0-0.2-0.1-0.2-0.1s-0.1-0.1-0.1-0.2h-0.6
				c0,0.1,0.1,0.3,0.1,0.4c0.1,0.1,0.2,0.2,0.3,0.3c0.1,0.1,0.2,0.1,0.4,0.2c0.1,0,0.3,0.1,0.4,0.1c0.2,0,0.4,0,0.6-0.1
				c0.2-0.1,0.3-0.2,0.4-0.3c0.1-0.1,0.1-0.3,0.1-0.4c0-0.1,0-0.2,0-0.2s-0.1-0.2-0.1-0.3c-0.1-0.1-0.1-0.2-0.2-0.2
				c-0.1-0.1-0.2-0.1-0.4-0.2l-0.5-0.1c-0.2,0-0.3-0.1-0.3-0.1c-0.1-0.1-0.1-0.1-0.1-0.2c0-0.1,0-0.1,0-0.1c0,0,0.1-0.1,0.1-0.1
				c0,0,0.1-0.1,0.2-0.1c0.1,0,0.1,0,0.2,0c0.1,0,0.2,0,0.3,0c0.1,0,0.1,0.1,0.2,0.1c0.1,0.1,0.1,0.1,0.1,0.2h0.6
				c0-0.2,0-0.3-0.1-0.4c-0.1-0.1-0.2-0.2-0.4-0.3c-0.2-0.1-0.4-0.1-0.6-0.1c-0.2,0-0.4,0-0.6,0.1c-0.2,0.1-0.3,0.2-0.4,0.3
				c-0.1,0.1-0.1,0.3-0.1,0.5c0,0.2,0.1,0.4,0.2,0.5c0.1,0.1,0.3,0.2,0.5,0.3l0.5,0.1c0.1,0,0.2,0,0.2,0.1c0.1,0,0.1,0.1,0.2,0.1
				c0,0,0.1,0.1,0.1,0.2c0,0.1,0,0.1-0.1,0.2C46.1,14.4,46,14.5,45.9,14.5z"/>
			<path class="st0" d="M42.7,18.5h-0.6v1.8c0,0.1,0,0.3-0.1,0.4c0,0.1-0.1,0.2-0.2,0.2c-0.1,0-0.2,0.1-0.3,0.1
				c-0.2,0-0.3,0-0.4-0.1c-0.1-0.1-0.2-0.3-0.2-0.5v-1.8h-0.6v1.8c0,0.2,0,0.4,0.1,0.6c0.1,0.2,0.2,0.3,0.4,0.4
				c0.2,0.1,0.4,0.1,0.7,0.1c0.3,0,0.5,0,0.7-0.1c0.2-0.1,0.3-0.2,0.4-0.4c0.1-0.2,0.1-0.4,0.1-0.6V18.5z"/>
			<path class="st0" d="M50.3,20.3c0,0.1,0,0.3-0.1,0.4c0,0.1-0.1,0.2-0.2,0.2c-0.1,0-0.2,0.1-0.3,0.1c-0.2,0-0.3,0-0.4-0.1
				c-0.1-0.1-0.2-0.3-0.2-0.5v-1.8h-0.6v1.8c0,0.2,0,0.4,0.1,0.6c0.1,0.2,0.2,0.3,0.4,0.4c0.2,0.1,0.4,0.1,0.7,0.1
				c0.3,0,0.5,0,0.7-0.1c0.2-0.1,0.3-0.2,0.4-0.4c0.1-0.2,0.1-0.4,0.1-0.6v-1.8h-0.6V20.3z"/>
			<path class="st0" d="M48.3,21.8c-0.8,0.6-1.7,0.9-2.7,0.9s-1.9-0.3-2.7-0.9c-0.1-0.1-0.2,0-0.2,0s0,0.2,0,0.2
				c0.8,0.6,1.9,0.9,2.9,0.9c1,0,2-0.3,2.9-0.9c0.1-0.1,0.1-0.2,0-0.2S48.4,21.8,48.3,21.8z"/>
			<path class="st0" d="M47.4,13.7c1.6,0.7,2.7,2.2,2.9,4c0,0.1,0.1,0.2,0.2,0.2c0,0,0,0,0,0c0.1,0,0.2-0.1,0.2-0.2
				c-0.1-1.9-1.3-3.5-3.1-4.3c-0.1,0-0.2,0-0.2,0.1C47.3,13.6,47.3,13.7,47.4,13.7z"/>
			<path class="st0" d="M46.4,32.6h-0.6h0v-0.2v0c0,0,0,0,0,0c0,0,0,0,0,0c0.1,0.1,0.4,0.1,0.6,0c0.1,0,0.1,0,0.2-0.1
				c0.2-0.1,0.3-0.2,0.4-0.3c0.1-0.1,0.2-0.2,0.2-0.3c0,0-0.1,0-0.1,0c0,0-0.1,0-0.1,0c0,0-0.1,0-0.1,0c-0.2,0-0.4,0-0.6,0.1
				c0,0-0.1,0-0.1,0c-0.1,0-0.2,0.1-0.3,0.2c0,0,0,0-0.1,0.1v-0.2v-0.2v-0.1c0,0,0.1,0,0.2,0.1c0,0,0.1,0,0.2,0c0.1,0,0.1,0,0.2,0
				c0,0,0.1,0,0.1,0c0,0,0.1,0,0.1,0c0.1,0,0.2-0.1,0.3-0.1c0.1-0.1,0.2-0.1,0.3-0.2c0,0,0.1-0.1,0.1-0.1c0,0,0,0,0-0.1
				c0,0,0,0-0.1,0c0,0-0.1,0-0.1,0c0,0,0,0,0,0c0,0-0.1,0-0.1,0c-0.1,0-0.1,0-0.2,0c0,0,0,0-0.1,0c-0.1,0-0.3,0-0.4,0.1
				c0,0-0.1,0-0.1,0c-0.2,0.1-0.3,0.1-0.3,0.2v-0.3v-0.2c0.2,0.1,0.4,0.1,0.6,0c0,0,0,0,0,0c0.2,0,0.3-0.1,0.4-0.2
				c0,0,0.1,0,0.1-0.1c0,0,0.1-0.1,0.1-0.1c0.1-0.1,0.1-0.1,0.2-0.2c-0.1,0-0.1,0-0.2-0.1c-0.1,0-0.2,0-0.3,0c-0.1,0-0.1,0-0.2,0
				c-0.1,0-0.1,0-0.2,0c-0.1,0-0.1,0-0.2,0c-0.2,0.1-0.3,0.2-0.4,0.3v-0.2c0,0,0,0,0,0c0,0,0,0,0,0c0.1-0.1,0.2-0.2,0.2-0.3
				c0,0,0-0.1,0-0.1c0,0,0-0.1,0-0.1c0,0,0,0,0-0.1c0-0.1,0-0.3-0.1-0.4c0,0,0-0.1-0.1-0.1c0,0,0-0.1-0.1-0.1
				c-0.1-0.1-0.2-0.2-0.3-0.3c-0.2,0.1-0.3,0.2-0.4,0.4c0,0,0,0.1-0.1,0.1c0,0,0,0.1,0,0.1c0,0.1,0,0.2,0,0.3c0,0.1,0,0.2,0.1,0.3
				c0,0,0,0.1,0.1,0.1c0,0,0.1,0.1,0.1,0.1c0,0,0.1,0.1,0.1,0.1c0,0,0,0,0.1,0v0.2c-0.1-0.1-0.1-0.1-0.2-0.2c0,0-0.1,0-0.1,0
				c0,0-0.1,0-0.1,0c0,0,0,0,0,0c-0.3-0.1-0.7-0.1-1,0c0.1,0.1,0.2,0.2,0.3,0.3c0.2,0.1,0.3,0.2,0.6,0.3c0,0,0.1,0,0.1,0
				c0,0,0.1,0,0.1,0c0,0,0.1,0,0.1,0c0.1,0,0.2,0,0.3-0.1v0.2v0.3v0c-0.1-0.1-0.2-0.2-0.3-0.2c0,0-0.1,0-0.1,0c0,0,0,0,0,0
				c-0.1,0-0.3-0.1-0.4-0.1c-0.1,0-0.1,0-0.2,0c-0.1,0-0.1,0-0.2,0c-0.1,0-0.1,0-0.2,0.1c0.2,0.3,0.5,0.5,0.8,0.6c0,0,0.1,0,0.1,0
				c0.1,0,0.1,0,0.2,0c0.1,0,0.1,0,0.2,0c0.1,0,0.1,0,0.2-0.1v0.3V32c0,0,0,0-0.1-0.1c-0.1-0.1-0.2-0.1-0.3-0.2c0,0-0.1,0-0.1,0
				c-0.3-0.1-0.7-0.1-1,0c0.1,0.1,0.1,0.2,0.2,0.3c0.1,0.1,0.1,0.1,0.2,0.2c0.1,0,0.1,0.1,0.2,0.1c0,0,0,0,0,0c0,0,0.1,0,0.1,0
				c0.2,0.1,0.4,0.1,0.6,0c0,0,0,0,0.1,0v0v0.2h0h-0.6c-0.3,0-0.5,0.1-0.8,0.1l0,0c0.3,0.2,0.7,0.3,1,0.3h0.2h0.1h0.1h0.1h0h0.1H46
				h0.2c0.4,0,0.7-0.1,1-0.3l0,0C46.9,32.7,46.7,32.6,46.4,32.6z"/>
			<path class="st0" d="M43.8,13.7c-1.6,0.7-2.7,2.2-2.9,4c0,0.1-0.1,0.2-0.2,0.2c0,0,0,0,0,0c-0.1,0-0.2-0.1-0.2-0.2
				c0.1-1.9,1.3-3.5,3.1-4.3c0.1,0,0.2,0,0.2,0.1C44,13.6,43.9,13.7,43.8,13.7z"/>
		</g>
	</g>
	<g>
		<path class="st0" d="M70.2,6.6H77l0,1.7h-4.8v2.5h4.1v1.7h-4.1v4.2h-2V6.6z"/>
		<path class="st0" d="M80.3,16.8c-0.5,0-0.9-0.1-1.2-0.3c-0.4-0.2-0.7-0.4-0.9-0.7c-0.2-0.3-0.3-0.7-0.3-1.2c0-0.8,0.3-1.4,0.9-1.8
			c0.6-0.4,1.5-0.6,2.8-0.6l0.9,0v-0.4c0-0.3-0.1-0.6-0.3-0.8c-0.2-0.2-0.5-0.3-0.9-0.3c-0.3,0-0.6,0.1-0.8,0.2
			c-0.3,0.1-0.4,0.4-0.5,0.7h-1.7c0-0.5,0.2-0.9,0.4-1.3c0.3-0.3,0.6-0.6,1.1-0.7c0.5-0.2,1-0.2,1.6-0.2c0.7,0,1.3,0.1,1.8,0.3
			c0.4,0.2,0.8,0.4,1,0.8c0.2,0.3,0.3,0.7,0.3,1.2v5h-1.7l-0.2-1.2c-0.2,0.5-0.5,0.9-0.9,1.1C81.3,16.7,80.8,16.8,80.3,16.8z
			 M81,15.5c0.2,0,0.4,0,0.5-0.1c0.2-0.1,0.3-0.2,0.5-0.3c0.1-0.1,0.2-0.2,0.3-0.4c0.1-0.1,0.1-0.3,0.1-0.4v-1.1l-0.7,0
			c-0.3,0-0.7,0-0.9,0.1c-0.3,0.1-0.5,0.2-0.7,0.4c-0.2,0.2-0.3,0.4-0.3,0.7c0,0.3,0.1,0.6,0.3,0.8C80.4,15.4,80.7,15.5,81,15.5z"/>
		<path class="st0" d="M93.1,16.7h-2l-1.9-3.1l-0.9,1v2.1h-2V6.4h2v6.1l2.6-3H93l-2.6,2.9L93.1,16.7z"/>
		<path class="st0" d="M96.8,16.8c-0.3,0-0.7-0.1-1-0.2c-0.3-0.1-0.6-0.3-0.9-0.4c-0.3-0.2-0.5-0.4-0.6-0.7c-0.2-0.3-0.2-0.6-0.2-1
			V9.5h2v4.7c0,0.3,0.1,0.6,0.3,0.8c0.2,0.2,0.5,0.3,1,0.3c0.4,0,0.7-0.1,0.9-0.3c0.2-0.2,0.3-0.5,0.3-0.9V9.5h2v7.2h-1.5l-0.2-1.4
			c-0.1,0.4-0.2,0.7-0.5,1c-0.2,0.2-0.5,0.4-0.8,0.5C97.3,16.7,97.1,16.8,96.8,16.8z"/>
		<path class="st0" d="M104.6,16.8c-0.5,0-0.9-0.1-1.3-0.2c-0.3-0.1-0.5-0.3-0.7-0.5c-0.1-0.2-0.2-0.4-0.3-0.7
			c0-0.3-0.1-0.5-0.1-0.8V6.4h2v8c0,0.3,0.1,0.5,0.2,0.6c0.1,0.2,0.3,0.3,0.6,0.3l0.3,0v1.2c-0.1,0-0.3,0.1-0.4,0.1
			C104.9,16.8,104.7,16.8,104.6,16.8z"/>
		<path class="st0" d="M110.8,10.9h-1.6l0,3.8c0,0.2,0,0.3,0.1,0.4c0,0.1,0.1,0.1,0.2,0.2c0.1,0,0.2,0,0.4,0h1v1.2
			c-0.1,0-0.2,0.1-0.4,0.1c-0.2,0-0.5,0.1-0.8,0.1c-0.6,0-1.1-0.1-1.5-0.2c-0.3-0.2-0.6-0.4-0.7-0.7c-0.1-0.3-0.2-0.6-0.2-1v-3.9
			H106V9.5h1.2l0.5-2.2h1.4v2.2h1.6V10.9z"/>
		<path class="st0" d="M114.3,16.8c-0.5,0-0.9-0.1-1.2-0.3c-0.4-0.2-0.7-0.4-0.9-0.7c-0.2-0.3-0.3-0.7-0.3-1.2
			c0-0.8,0.3-1.4,0.9-1.8c0.6-0.4,1.5-0.6,2.8-0.6l0.9,0v-0.4c0-0.3-0.1-0.6-0.3-0.8c-0.2-0.2-0.5-0.3-0.9-0.3
			c-0.3,0-0.6,0.1-0.8,0.2c-0.3,0.1-0.4,0.4-0.5,0.7h-1.7c0-0.5,0.2-0.9,0.4-1.3c0.3-0.3,0.6-0.6,1.1-0.7s1-0.2,1.6-0.2
			c0.7,0,1.3,0.1,1.8,0.3c0.4,0.2,0.8,0.4,1,0.8c0.2,0.3,0.3,0.7,0.3,1.2v5h-1.7l-0.2-1.2c-0.2,0.5-0.6,0.9-0.9,1.1
			C115.2,16.7,114.8,16.8,114.3,16.8z M115,15.5c0.2,0,0.4,0,0.5-0.1c0.2-0.1,0.3-0.2,0.5-0.3c0.1-0.1,0.2-0.2,0.3-0.4
			c0.1-0.1,0.1-0.3,0.1-0.4v-1.1l-0.7,0c-0.3,0-0.7,0-0.9,0.1c-0.3,0.1-0.5,0.2-0.7,0.4c-0.2,0.2-0.3,0.4-0.3,0.7
			c0,0.3,0.1,0.6,0.3,0.8C114.4,15.4,114.7,15.5,115,15.5z"/>
		<path class="st0" d="M122.9,16.8c-0.5,0-1-0.1-1.4-0.2s-0.9-0.4-1.2-0.8c-0.3-0.4-0.5-0.8-0.6-1.4h1.8c0.1,0.3,0.2,0.5,0.3,0.6
			c0.2,0.1,0.3,0.3,0.5,0.3c0.2,0.1,0.4,0.1,0.6,0.1c0.4,0,0.7-0.1,0.9-0.2c0.2-0.1,0.4-0.3,0.4-0.6c0-0.2-0.1-0.3-0.2-0.5
			s-0.4-0.2-0.7-0.3l-1.3-0.3c-0.6-0.1-1.1-0.4-1.5-0.7c-0.4-0.3-0.6-0.8-0.6-1.4c0-0.4,0.1-0.8,0.3-1.2c0.2-0.3,0.6-0.6,1-0.8
			c0.4-0.2,1-0.3,1.6-0.3c0.9,0,1.6,0.2,2.1,0.6c0.5,0.4,0.8,0.9,0.8,1.6h-1.7c-0.1-0.3-0.2-0.5-0.4-0.6c-0.2-0.1-0.5-0.2-0.8-0.2
			c-0.4,0-0.6,0.1-0.9,0.2c-0.2,0.1-0.3,0.3-0.3,0.6c0,0.2,0.1,0.3,0.3,0.4c0.2,0.1,0.5,0.2,0.9,0.3l1.2,0.3c0.4,0.1,0.7,0.2,1,0.4
			c0.3,0.2,0.4,0.4,0.6,0.6c0.1,0.2,0.2,0.4,0.3,0.6c0.1,0.2,0.1,0.4,0.1,0.5c0,0.5-0.1,0.9-0.4,1.2s-0.6,0.6-1.1,0.8
			C124,16.7,123.5,16.8,122.9,16.8z"/>
	</g>
	<g>
		<path class="st0" d="M76.6,24.2h-4.4v4.3h-2v-10h2v4h4.4v-4h2v10h-2V24.2z"/>
		<path class="st0" d="M83.2,28.6c-0.3,0-0.7-0.1-1-0.2c-0.3-0.1-0.6-0.3-0.9-0.4c-0.3-0.2-0.5-0.4-0.6-0.7c-0.2-0.3-0.2-0.6-0.2-1
			v-4.9h2V26c0,0.3,0.1,0.6,0.3,0.8c0.2,0.2,0.5,0.3,1,0.3c0.4,0,0.7-0.1,0.9-0.3c0.2-0.2,0.3-0.5,0.3-0.9v-4.7h2v7.2h-1.5l-0.2-1.4
			c-0.1,0.4-0.2,0.7-0.5,1c-0.2,0.2-0.5,0.4-0.8,0.5C83.8,28.6,83.5,28.6,83.2,28.6z"/>
		<path class="st0" d="M95.7,28.5h-2l-1.9-3.1l-0.9,1v2.1h-2V18.2h2v6.1l2.6-3h2.2L93,24.2L95.7,28.5z"/>
		<path class="st0" d="M99.3,28.6c-0.3,0-0.7-0.1-1-0.2c-0.3-0.1-0.6-0.3-0.9-0.4c-0.3-0.2-0.5-0.4-0.6-0.7c-0.2-0.3-0.2-0.6-0.2-1
			v-4.9h2V26c0,0.3,0.1,0.6,0.3,0.8c0.2,0.2,0.5,0.3,1,0.3c0.4,0,0.7-0.1,0.9-0.3c0.2-0.2,0.3-0.5,0.3-0.9v-4.7h2v7.2h-1.5l-0.2-1.4
			c-0.1,0.4-0.2,0.7-0.5,1c-0.2,0.2-0.5,0.4-0.8,0.5C99.9,28.6,99.6,28.6,99.3,28.6z"/>
		<path class="st0" d="M104.9,28.5v-7.2h2v1c0.2-0.3,0.5-0.6,0.9-0.8c0.4-0.2,0.8-0.3,1.4-0.3c0.2,0,0.5,0,0.7,0.1
			c0.3,0.1,0.5,0.2,0.7,0.4c0.2,0.2,0.4,0.4,0.5,0.6c0.2-0.3,0.5-0.6,0.9-0.8c0.4-0.2,0.8-0.3,1.3-0.3c0.3,0,0.5,0,0.8,0.1
			c0.3,0.1,0.5,0.2,0.8,0.4c0.2,0.2,0.4,0.5,0.6,0.8c0.1,0.3,0.2,0.7,0.2,1.2v4.7h-2V24c0-0.3-0.1-0.5-0.2-0.7
			c-0.1-0.2-0.3-0.3-0.4-0.4c-0.2-0.1-0.4-0.1-0.6-0.1c-0.2,0-0.4,0-0.5,0.1c-0.2,0.1-0.3,0.2-0.5,0.3c-0.1,0.2-0.2,0.4-0.2,0.6v4.6
			h-2v-4.7c0-0.2-0.1-0.4-0.2-0.5c-0.1-0.1-0.3-0.3-0.4-0.3c-0.2-0.1-0.3-0.1-0.5-0.1c-0.2,0-0.4,0-0.6,0.1
			c-0.2,0.1-0.3,0.2-0.5,0.4c-0.1,0.2-0.2,0.4-0.2,0.6v4.6H104.9z"/>
	</g>
</g>
</svg>
