<?xml version="1.0" encoding="utf-8"?>
<!-- Generator: Adobe Illustrator 25.2.0, SVG Export Plug-In . SVG Version: 6.00 Build 0)  -->
<svg version="1.1" id="Layer_1" xmlns:v="https://vecta.io/nano"
	 xmlns="http://www.w3.org/2000/svg" xmlns:xlink="http://www.w3.org/1999/xlink" x="0px" y="0px" viewBox="0 0 48 48"
	 style="enable-background:new 0 0 48 48;" xml:space="preserve">
<style type="text/css">
	.st0{fill:url(#SVGID_1_);}
	.st1{fill:url(#SVGID_2_);}
	.st2{fill:url(#SVGID_3_);}
	.st3{fill:url(#SVGID_4_);}
</style>
<g>
	<linearGradient id="SVGID_1_" gradientUnits="userSpaceOnUse" x1="1.0393" y1="24" x2="46.9607" y2="24">
		<stop  offset="0" style="stop-color:#6366F1"/>
		<stop  offset="0.5" style="stop-color:#8B5CF6"/>
		<stop  offset="1" style="stop-color:#D946EF"/>
	</linearGradient>
	<path class="st0" d="M25.8,36.6c0,1.2,0,2.4,0,3.6c1.2,0,2.3,0,3.5,0c0.6,0,1.2,0,1.8,0c1.1,0,1.9,0.8,1.9,1.8c0,1-0.8,1.7-1.9,1.8
		c-2.5,0-5,0-7.5,0c-2.2,0-4.4,0-6.7,0c-1.2,0-1.9-0.8-1.9-1.8c0-1,0.8-1.8,1.9-1.8c1.6,0,3.1,0,4.7,0c0.2,0,0.3,0,0.5,0
		c0-1.2,0-2.3,0-3.5c-0.3,0-0.6,0-0.8,0c-4.8,0-9.6,0-14.4,0c-3.6,0-5.9-2.2-5.9-5.9C1,23.8,1,16.9,1,10c0-3.4,2.3-5.7,5.6-5.7
		c11.5,0,23.1,0,34.6,0c3.3,0,5.6,2.3,5.6,5.7c0,7,0,14,0,20.9c0,3.4-2.3,5.7-5.7,5.7c-4.9,0-9.7,0-14.6,0
		C26.4,36.6,26.2,36.6,25.8,36.6z M24,7.9c-5.7,0-11.4,0-17.1,0c-1.6,0-2.2,0.6-2.2,2.2c0,6.9,0,13.7,0,20.6c0,1.7,0.6,2.3,2.3,2.3
		c11.4,0,22.8,0,34.2,0c1.6,0,2.2-0.6,2.2-2.3c0-6.8,0-13.7,0-20.5c0-1.7-0.6-2.3-2.3-2.3C35.4,7.9,29.7,7.9,24,7.9z"/>
	<linearGradient id="SVGID_2_" gradientUnits="userSpaceOnUse" x1="20.4331" y1="20.4123" x2="27.553" y2="20.4123">
		<stop  offset="0" style="stop-color:#6366F1"/>
		<stop  offset="0.5" style="stop-color:#8B5CF6"/>
		<stop  offset="1" style="stop-color:#D946EF"/>
	</linearGradient>
	<path class="st1" d="M22.2,29.4c-1.2,0-2-1.1-1.7-2.3c0.8-3.2,1.6-6.5,2.4-9.7c0.4-1.4,0.7-2.8,1.1-4.2c0.3-1.2,1.2-1.8,2.2-1.6
		c1,0.2,1.6,1.2,1.3,2.4c-1.2,4.6-2.3,9.3-3.5,13.9C23.7,28.8,23.1,29.4,22.2,29.4z"/>
	<linearGradient id="SVGID_3_" gradientUnits="userSpaceOnUse" x1="11.4367" y1="20.413" x2="18.6168" y2="20.413">
		<stop  offset="0" style="stop-color:#6366F1"/>
		<stop  offset="0.5" style="stop-color:#8B5CF6"/>
		<stop  offset="1" style="stop-color:#D946EF"/>
	</linearGradient>
	<path class="st2" d="M15.7,20.4c0.8,0.8,1.5,1.4,2.2,2.2c0.8,0.8,0.9,1.9,0.2,2.7c-0.7,0.8-1.8,0.7-2.7-0.1
		c-1.1-1.1-2.2-2.2-3.3-3.3c-0.9-0.9-0.9-1.9,0-2.8c1.1-1.1,2.2-2.2,3.3-3.3c0.8-0.8,1.9-0.8,2.7-0.1c0.7,0.7,0.7,1.8-0.1,2.6
		C17.3,18.9,16.5,19.6,15.7,20.4z"/>
	<linearGradient id="SVGID_4_" gradientUnits="userSpaceOnUse" x1="29.3845" y1="20.4136" x2="36.5629" y2="20.4136">
		<stop  offset="0" style="stop-color:#6366F1"/>
		<stop  offset="0.5" style="stop-color:#8B5CF6"/>
		<stop  offset="1" style="stop-color:#D946EF"/>
	</linearGradient>
	<path class="st3" d="M32.2,20.3c-0.7-0.7-1.4-1.4-2.1-2.1c-0.8-0.8-0.9-1.9-0.1-2.7c0.7-0.7,1.8-0.7,2.6,0.1
		c1.1,1.1,2.3,2.3,3.4,3.4c0.8,0.8,0.8,1.8,0,2.7c-1.1,1.2-2.3,2.3-3.4,3.4c-0.8,0.8-1.9,0.8-2.6,0.1c-0.7-0.7-0.7-1.8,0.1-2.6
		c0.7-0.7,1.4-1.4,2.1-2.1C32.1,20.5,32.1,20.4,32.2,20.3z"/>
</g>
</svg>
