<?xml version="1.0" encoding="utf-8"?>
<!-- Generator: Adobe Illustrator 25.2.0, SVG Export Plug-In . SVG Version: 6.00 Build 0)  -->
<svg version="1.1" id="Layer_1" xmlns:v="https://vecta.io/nano"
	 xmlns="http://www.w3.org/2000/svg" xmlns:xlink="http://www.w3.org/1999/xlink" x="0px" y="0px" viewBox="0 0 48 48"
	 style="enable-background:new 0 0 48 48;" xml:space="preserve">
<style type="text/css">
	.st0{fill:url(#SVGID_1_);}
	.st1{fill:url(#SVGID_2_);}
	.st2{fill:url(#SVGID_3_);}
	.st3{fill:url(#SVGID_4_);}
</style>
<g>
	<linearGradient id="SVGID_1_" gradientUnits="userSpaceOnUse" x1="1.4179" y1="24" x2="46.5821" y2="24">
		<stop  offset="0" style="stop-color:#6366F1"/>
		<stop  offset="0.5" style="stop-color:#8B5CF6"/>
		<stop  offset="1" style="stop-color:#D946EF"/>
	</linearGradient>
	<path class="st0" d="M29.2,28.1c-1.5,0-2.9,0-4.4,0c-0.2,0-0.4,0.2-0.6,0.3c-1.3,1.6-2.9,2-4.8,1.1c-1.2-0.6-2.4-1.2-3.6-1.8
		c-0.1-0.1-0.2-0.1-0.5-0.2c0,0.3,0,0.6,0,0.8c0,4.5,0,9,0,13.5c0,1.3-0.4,1.8-1.8,1.8c-2.5,0-5,0-7.5,0c-1.4,0-1.8-0.4-1.8-1.8
		c0-2.1,0-4.2,0-6.3c0-0.4-0.1-0.6-0.5-0.8c-1.5-0.8-2.3-2-2.3-3.7c0-1.5,0-3,0-4.4c0.1-2.9,1.4-5.2,3.8-6.8
		c0.1-0.1,0.3-0.2,0.4-0.3c-1.5-1.4-2.2-3.2-2.1-5.2c0.1-1.6,0.8-3,2-4.1C7.9,8,11.4,7.9,13.9,10c2.7,2.3,2.9,5.6,0.6,9.2
		c1.3,0.6,2.6,1.3,3.9,2c0-0.3,0-0.6,0-0.8c0-3.8,0-7.6,0-11.4c0-3.1,1.7-4.7,4.7-4.7c6.3,0,12.5,0,18.8,0c3,0,4.7,1.7,4.7,4.7
		c0,4.9,0,9.8,0,14.7c0,2.9-1.7,4.5-4.6,4.6c-1.8,0-3.6,0-5.4,0c-0.3,0-0.5,0-0.9,0c0.1,0.3,0.2,0.6,0.3,0.8c1.5,4.1,3,8.3,4.6,12.4
		c0.1,0.3,0.2,0.5,0.3,0.8c0.1,0.6-0.2,1.2-0.8,1.4c-0.6,0.2-1.2,0.1-1.6-0.4c-0.2-0.3-0.3-0.6-0.4-0.9c-1.7-4.5-3.3-9-5-13.5
		c-0.1-0.4-0.2-0.7-0.7-0.7c-0.5,0-0.5,0.4-0.7,0.7c-1.6,4.5-3.3,9-4.9,13.6c-0.1,0.2-0.1,0.4-0.2,0.6c-0.4,0.7-1,0.9-1.6,0.7
		c-0.7-0.3-1-0.9-0.8-1.6c0.2-0.7,0.5-1.4,0.7-2.1c1.3-3.7,2.7-7.3,4-11C29,28.8,29.1,28.5,29.2,28.1z M22.9,23.2
		c0.1-0.2,0.2-0.4,0.3-0.6c0.8-1.6,1.6-3.2,2.4-4.7c0.3-0.6,0.7-1,1.5-0.9c1,0.1,1.4,1.1,0.9,2.1c-0.9,1.9-1.9,3.8-2.8,5.7
		c-0.1,0.2-0.2,0.4-0.3,0.7c0.2,0,0.3,0,0.5,0c5.6,0,11.3,0,16.9,0c1.2,0,1.7-0.6,1.7-1.8c0-5,0-9.9,0-14.9c0-1.4-0.5-1.9-1.9-1.9
		c-6.3,0-12.6,0-19,0c-1.5,0-2,0.5-2,1.9c0,4,0.1,7.9,0,11.9C21,22.1,21.3,23,22.9,23.2z M12.8,41.1c0-0.4,0-0.6,0-0.9
		c0-4.8,0-9.5,0-14.3c0-1.6,0.9-2.2,2.3-1.5c1.7,0.9,3.4,1.7,5.2,2.6c0.2,0.1,0.3,0.2,0.5,0.2c0.6,0.3,1.2,0.1,1.4-0.4
		c0.2-0.6-0.1-0.9-0.6-1.2c-2.4-1.2-4.9-2.4-7.2-3.6c-1.5-0.8-3.1-1.1-4.8-0.9c-3,0.2-5.3,2.6-5.4,5.7c0,1.4,0,2.8,0,4.2
		c0,0.9,0.5,1.5,1.4,1.6c1.1,0.2,1.5,0.6,1.5,1.7c0,2,0,4,0,6.1c0,0.2,0,0.5,0,0.7C8.9,41.1,10.8,41.1,12.8,41.1z M13.5,14.8
		c0-2-1.6-3.6-3.6-3.6c-2,0-3.6,1.6-3.6,3.6c0,2,1.6,3.6,3.6,3.6C11.8,18.4,13.4,16.8,13.5,14.8z"/>
	<linearGradient id="SVGID_2_" gradientUnits="userSpaceOnUse" x1="24.118" y1="11.2402" x2="40.9154" y2="11.2402">
		<stop  offset="0" style="stop-color:#6366F1"/>
		<stop  offset="0.5" style="stop-color:#8B5CF6"/>
		<stop  offset="1" style="stop-color:#D946EF"/>
	</linearGradient>
	<path class="st1" d="M32.4,12.6c-2.3,0-4.5,0-6.8,0c-1,0-1.6-0.5-1.6-1.3c0-0.8,0.6-1.3,1.6-1.3c4.5,0,9.1,0,13.6,0
		c0.9,0,1.5,0.5,1.6,1.2c0.1,0.8-0.6,1.4-1.5,1.4C37.1,12.6,34.8,12.6,32.4,12.6z"/>
	<linearGradient id="SVGID_3_" gradientUnits="userSpaceOnUse" x1="31.196" y1="16.1957" x2="40.9148" y2="16.1957">
		<stop  offset="0" style="stop-color:#6366F1"/>
		<stop  offset="0.5" style="stop-color:#8B5CF6"/>
		<stop  offset="1" style="stop-color:#D946EF"/>
	</linearGradient>
	<path class="st2" d="M36,17.5c-1.1,0-2.2,0-3.3,0c-0.9,0-1.5-0.5-1.5-1.3c0-0.8,0.6-1.4,1.5-1.4c2.2,0,4.5,0,6.7,0
		c0.9,0,1.5,0.6,1.5,1.3c0,0.8-0.6,1.3-1.5,1.3C38.3,17.5,37.2,17.5,36,17.5z"/>
	<linearGradient id="SVGID_4_" gradientUnits="userSpaceOnUse" x1="31.1957" y1="21.159" x2="40.9146" y2="21.159">
		<stop  offset="0" style="stop-color:#6366F1"/>
		<stop  offset="0.5" style="stop-color:#8B5CF6"/>
		<stop  offset="1" style="stop-color:#D946EF"/>
	</linearGradient>
	<path class="st3" d="M36,22.5c-1.1,0-2.3,0-3.4,0c-0.9,0-1.4-0.5-1.5-1.3c0-0.8,0.5-1.4,1.4-1.4c2.3,0,4.5,0,6.8,0
		c0.9,0,1.4,0.6,1.4,1.3c0,0.8-0.6,1.3-1.5,1.3C38.3,22.5,37.2,22.5,36,22.5z"/>
</g>
</svg>
