<?xml version="1.0" encoding="utf-8"?>
<!-- Generator: Adobe Illustrator 25.2.0, SVG Export Plug-In . SVG Version: 6.00 Build 0)  -->
<svg version="1.1" id="Layer_1" xmlns:v="https://vecta.io/nano"
	 xmlns="http://www.w3.org/2000/svg" xmlns:xlink="http://www.w3.org/1999/xlink" x="0px" y="0px" viewBox="0 0 32 32"
	 style="enable-background:new 0 0 32 32;" xml:space="preserve">
<style type="text/css">
	.st0{fill:#B4B7C9;}
	.st1{fill:#6366F1;}
</style>
<g>
	<path class="st0" d="M16,5.4c0.2-0.3,0.4-0.4,0.5-0.6c2.7-3.2,7.7-4,11.3-1.8C30,4.3,31,6.3,31.4,8.7c0.6,3.1-0.2,5.9-1.8,8.5
		c-0.9,1.4-1.9,2.8-2.9,4.1c-0.5,0.6-1.2,0.7-1.8,0.2c-0.5-0.5-0.6-1.2-0.1-1.8c1.4-1.7,2.7-3.6,3.6-5.6c0.9-2,0.9-4.1,0.3-6.1
		c-0.7-2.2-2.2-3.4-4.4-3.7c-3.3-0.4-5.8,1-7.2,4.1C16.9,9,16.5,9.3,16,9.3c-0.6,0-0.9-0.4-1.1-0.9c-1.4-3.9-5.3-4.8-8.4-3.8
		C4.4,5.3,3.4,6.9,3,8.9c-0.5,2.5,0.1,4.8,1.3,7c1,1.8,2.3,3.4,3.6,4.9c2.1,2.4,4.4,4.5,6.9,6.5c0.8,0.6,1.5,0.7,2.3,0
		c1.2-1,2.4-2.1,3.6-3.1c0.5-0.4,1.1-0.5,1.5-0.1c0.4,0.3,0.7,0.9,0.5,1.4c-0.1,0.2-0.2,0.4-0.4,0.6c-1.3,1.1-2.5,2.3-3.8,3.3
		c-1.4,1.1-3.4,1.2-4.8,0.1c-4.3-3.4-8.2-7.2-11.1-11.9C1.5,15.8,0.6,14,0.4,12c-0.2-2.1,0-4.2,1.1-6.1c1.7-3.1,4.4-4.2,7.8-4.1
		c2.7,0.1,5,1.2,6.6,3.4C15.9,5.3,15.9,5.3,16,5.4z"/>
	<path class="st1" d="M15.3,18.1c-0.8,0-1.5,0-2.2,0c-1.2,0-1.8-0.9-1.2-2c0.8-1.5,1.7-3,2.5-4.5c0.1-0.3,0.3-0.4,0.6-0.4
		c1.3,0,2.5,0,3.9,0c-0.7,1.2-1.5,2.4-2.2,3.6c0.5,0,0.9,0,1.3,0c0.5,0,1-0.1,1.6,0c0.3,0,0.6,0.2,0.8,0.5c0.1,0.2,0,0.6-0.1,0.9
		c0,0.1-0.1,0.2-0.2,0.3c-1.8,2-3.6,4.1-5.4,6.1c-0.1,0.1-0.2,0.3-0.3,0.3c-0.2,0.1-0.4,0.1-0.6,0c-0.1,0-0.1-0.3,0-0.5
		c0.4-1.3,0.9-2.5,1.4-3.8C15.1,18.6,15.2,18.4,15.3,18.1z"/>
</g>
</svg>
