<?xml version="1.0" encoding="utf-8"?>
<!-- Generator: Adobe Illustrator 25.2.0, SVG Export Plug-In . SVG Version: 6.00 Build 0)  -->
<svg version="1.1" id="Layer_1" xmlns:v="https://vecta.io/nano"
	 xmlns="http://www.w3.org/2000/svg" xmlns:xlink="http://www.w3.org/1999/xlink" x="0px" y="0px" viewBox="0 0 32 32"
	 style="enable-background:new 0 0 32 32;" xml:space="preserve">
<style type="text/css">
	.st0{fill:#6366F1;}
	.st1{fill:#B4B7C9;}
</style>
<g>
	<path class="st0" d="M18.6,14.9c1.4,0.8,2.4,1.9,2.9,3.5c0.4,1.2,0.3,2.4,0.3,3.6c0,0.4-0.3,0.6-0.7,0.7c-0.2,0-0.4,0-0.6,0
		c-3.1,0-6.1,0-9.2,0c-1,0-1.3-0.3-1.3-1.3c0-0.8,0-1.6,0.1-2.4c0.3-1.6,1.2-2.9,2.5-3.8c0.2-0.1,0.3-0.2,0.5-0.3
		c-1.2-2-0.9-3.8,0.6-5c1.3-1,3.2-0.9,4.4,0.2C19.4,11.2,20,13.2,18.6,14.9z M12,20.9c2.7,0,5.3,0,8,0c0.3-1.5-0.3-3.1-1.6-4
		c-1.3-0.9-3.1-1-4.4-0.2C12.4,17.7,11.8,19.1,12,20.9z M17.6,12.7c0-0.9-0.7-1.6-1.6-1.6c-0.9,0-1.6,0.7-1.6,1.6
		c0,0.9,0.7,1.6,1.6,1.6C16.9,14.3,17.6,13.6,17.6,12.7z"/>
	<path class="st1" d="M25.8,9.4c-0.1-0.2-0.2-0.4-0.3-0.5c-1.1-1.5-2.5-2.6-4.1-3.5c-0.1-0.1-0.2-0.1-0.3-0.2
		c-0.5-0.3-0.7-0.8-0.4-1.2c0.2-0.5,0.8-0.7,1.2-0.4c0.8,0.5,1.7,0.9,2.4,1.5C25.2,6,26.1,7,27,7.9c0.1,0.1,0.2,0.2,0.3,0.4
		c0.1-0.3,0.2-0.5,0.3-0.8c0.2-0.5,0.7-0.7,1.1-0.5c0.5,0.2,0.7,0.6,0.6,1.1c-0.3,0.9-0.6,1.8-1,2.6c-0.2,0.4-0.5,0.6-0.9,0.6
		c-0.9-0.1-1.8-0.2-2.8-0.3c-0.5-0.1-0.8-0.5-0.8-1c0.1-0.5,0.4-0.8,1-0.8C25.1,9.4,25.4,9.4,25.8,9.4z"/>
	<path class="st1" d="M8.3,4.7C8.1,4.6,7.8,4.5,7.6,4.4C7.1,4.1,6.9,3.7,7.1,3.2c0.2-0.4,0.6-0.7,1.1-0.5c0.9,0.3,1.8,0.6,2.7,1
		c0.4,0.2,0.6,0.5,0.5,0.9c-0.1,0.9-0.2,1.8-0.3,2.7c-0.1,0.5-0.5,0.8-1,0.8c-0.5,0-0.9-0.5-0.8-1c0-0.3,0-0.5,0.1-0.9
		C9.2,6.3,9.1,6.4,9,6.5c-1.5,1.1-2.7,2.5-3.5,4.1c-0.1,0.1-0.1,0.3-0.2,0.4c-0.3,0.5-0.8,0.6-1.2,0.4c-0.5-0.2-0.6-0.7-0.4-1.2
		c0.6-1.3,1.4-2.5,2.4-3.5C6.8,6,7.5,5.3,8.3,4.7z"/>
	<path class="st1" d="M4.7,23.6c-0.1,0.3-0.2,0.5-0.3,0.7c-0.2,0.5-0.7,0.7-1.2,0.5c-0.5-0.2-0.7-0.7-0.5-1.1c0.3-0.9,0.6-1.7,1-2.6
		c0.2-0.4,0.5-0.6,1-0.6c0.9,0.1,1.8,0.2,2.7,0.3c0.5,0.1,0.9,0.5,0.8,1c0,0.5-0.4,0.8-1,0.8c-0.3,0-0.6,0-0.9-0.1
		c0.8,1.2,1.7,2.1,2.7,2.9c0.6,0.4,1.2,0.8,1.9,1.1c0.6,0.3,0.8,0.8,0.5,1.3c-0.3,0.5-0.8,0.6-1.4,0.3c-2-1-3.6-2.4-4.9-4.1
		C4.9,23.9,4.8,23.8,4.7,23.6z"/>
	<path class="st1" d="M22.6,25.8c0.5-0.4,0.8-0.6,1.2-0.9c1.2-1.1,2.2-2.3,2.9-3.7c0.4-0.7,1.1-0.8,1.6-0.3c0.3,0.4,0.2,0.7,0,1.1
		c-1,2-2.4,3.6-4.1,4.9c-0.1,0.1-0.3,0.2-0.5,0.3c0.3,0.1,0.5,0.2,0.8,0.3c0.5,0.2,0.6,0.7,0.5,1.1c-0.2,0.5-0.6,0.7-1.1,0.6
		c-0.9-0.3-1.8-0.6-2.6-1c-0.4-0.2-0.6-0.5-0.6-0.9c0.1-0.9,0.2-1.9,0.3-2.8c0.1-0.5,0.5-0.8,1-0.8c0.5,0.1,0.8,0.4,0.8,0.9
		C22.6,25.1,22.6,25.4,22.6,25.8z"/>
	<path class="st1" d="M16,5.9c-0.6,0-1.2,0-1.8,0c-0.6,0-0.9-0.3-0.9-0.9c0-1.2,0-2.4,0-3.6c0-0.6,0.4-0.9,1-0.9c1.2,0,2.4,0,3.5,0
		c0.6,0,0.9,0.4,1,0.9c0,1.2,0,2.4,0,3.6c0,0.6-0.4,0.9-1,0.9C17.2,5.9,16.6,5.9,16,5.9z M16.9,4.1c0-0.6,0-1.2,0-1.8
		c-0.6,0-1.2,0-1.7,0c0,0.6,0,1.2,0,1.8C15.7,4.1,16.3,4.1,16.9,4.1z"/>
	<path class="st1" d="M16,26.1c0.6,0,1.2,0,1.7,0c0.6,0,1,0.3,1,1c0,1.1,0,2.3,0,3.4c0,0.7-0.4,1-1,1c-1.1,0-2.3,0-3.4,0
		c-0.7,0-1-0.3-1-1.1c0-1.1,0-2.3,0-3.4c0-0.7,0.3-1,1-1C14.9,26.1,15.4,26.1,16,26.1z M16.9,29.7c0-0.6,0-1.2,0-1.7
		c-0.6,0-1.2,0-1.7,0c0,0.6,0,1.2,0,1.7C15.7,29.7,16.3,29.7,16.9,29.7z"/>
	<path class="st1" d="M28.8,18.7c-1.6,0-2.7-1.2-2.7-2.7c0-1.5,1.2-2.7,2.7-2.7c1.5,0,2.7,1.2,2.7,2.7
		C31.5,17.5,30.3,18.7,28.8,18.7z M28.8,16.9c0.5,0,0.9-0.4,0.9-0.9c0-0.5-0.4-0.9-0.9-0.9c-0.5,0-0.9,0.4-0.9,0.9
		C27.9,16.5,28.3,16.9,28.8,16.9z"/>
	<path class="st1" d="M0.5,16c0-1.5,1.2-2.7,2.8-2.7c1.5,0,2.7,1.2,2.7,2.7c0,1.5-1.2,2.7-2.7,2.7C1.6,18.7,0.5,17.5,0.5,16z
		 M4.1,16c0-0.5-0.4-0.9-0.9-0.9c-0.5,0-0.9,0.4-0.9,0.9c0,0.5,0.4,0.9,0.9,0.9C3.7,16.9,4.1,16.5,4.1,16z"/>
</g>
</svg>
