<?xml version="1.0" encoding="utf-8"?>
<!-- Generator: Adobe Illustrator 25.2.0, SVG Export Plug-In . SVG Version: 6.00 Build 0)  -->
<svg version="1.1" id="Layer_1" xmlns:v="https://vecta.io/nano"
	 xmlns="http://www.w3.org/2000/svg" xmlns:xlink="http://www.w3.org/1999/xlink" x="0px" y="0px" viewBox="0 0 32 32"
	 style="enable-background:new 0 0 32 32;" xml:space="preserve">
<style type="text/css">
	.st0{fill:#B4B7C9;}
	.st1{fill:#6366F1;}
</style>
<g>
	<path class="st0" d="M8.3,30.3c0-1.9,0-3.8,0-5.8c-2.6,0-5.1,0-7.7,0c0-0.4,0-0.7,0-1c0-1.7,0-3.4,0-5.2c0-2.4,1.2-4,3.4-4.7
		c0,0,0.1,0,0.2-0.1c-1.6-1.2-2.4-2.8-2.3-4.8c0.1-1.6,0.7-2.9,1.9-3.9c2.3-2,5.8-1.8,7.9,0.4c2,2.2,2.1,6-0.9,8.3
		c2.3,0.8,3.5,2.4,3.6,4.9c0.4-0.3,0.7-0.4,0.9-0.7c0.7-0.6,1-1.4,0.9-2.4c-0.1-0.4,0-0.9,0-1.3c0-1.5,1.2-2.4,2.6-2.2
		c2.1,0.3,3.6,1.9,3.6,4c0,0.6,0,1.3,0,2c0.4,0,0.8,0.1,1.1,0.1c1.9,0.4,3.2,2,3.2,3.8c0,1.9,0,3.9,0,5.8c0,2.2-1.8,3.9-4,3.9
		c-2.4,0-4.8,0-7.2,0c-0.3,0-0.6-0.1-0.8-0.3c-1-0.8-2.1-1-3.4-0.9C10.3,30.3,9.3,30.3,8.3,30.3z M20.5,19.7c0-0.3,0-0.4,0-0.6
		c0-1.1,0-2.1,0-3.2c0-1.2-0.8-2.1-1.9-2.2c-0.5-0.1-0.7,0-0.7,0.6c0,0.8,0,1.6,0,2.5c0,0.5-0.1,0.8-0.4,1.2c-0.8,1-1.7,1.9-2.9,2.4
		c-0.1,0-0.3,0.3-0.3,0.5c0,2.6,0,5.2,0,7.8c0,0.1,0,0.3,0.1,0.4c0.6,0.3,1,0.8,1.7,0.8c2.2,0,4.3,0,6.5,0c1.4,0,2.3-0.9,2.3-2.3
		c0-1.8,0-3.6,0-5.4c0-1.4-0.9-2.3-2.3-2.3C21.8,19.7,21.2,19.7,20.5,19.7z M8.3,18.9c0.7,0,1.4,0,2,0c0.7,0,1.3,0,2,0
		c0.4-2.2-0.9-3.7-3-3.7c-1.3,0-2.6,0-3.9,0c-1.9,0-3,1.2-3.1,3c0,1.3,0,2.5,0,3.8c0,0.2,0,0.4,0,0.6c2,0,3.9,0,5.9,0
		C8.3,21.4,8.3,20.2,8.3,18.9z M11.2,8.9c0-2.1-1.7-3.8-3.8-3.8c-2.1,0-3.8,1.7-3.8,3.8c0,2.1,1.7,3.8,3.8,3.8
		C9.5,12.7,11.2,11,11.2,8.9z M12.4,28.4c0-2.6,0-5.1,0-7.7c-0.8,0-1.5,0-2.2,0c0,2.6,0,5.1,0,7.7C10.9,28.4,11.6,28.4,12.4,28.4z"
		/>
	<path class="st1" d="M23.2,4.6c0.2,0.6-0.1,0.9-0.6,1.2c-1,0.6-1.8,1.5-2.4,2.5c-0.1,0.3-0.3,0.3-0.6,0.4c-0.8,0.1-1.4-0.1-1.8-0.9
		c-0.5-1-1.4-1.6-2.3-2.2c-0.3-0.1-0.3-0.3-0.4-0.6C15,4.2,15.2,3.7,16,3.2c1-0.5,1.7-1.4,2.2-2.3c0.1-0.3,0.3-0.4,0.6-0.4
		c0.8-0.1,1.4,0.1,1.8,0.9c0.4,0.9,1.2,1.5,2,1.9C23.1,3.7,23.4,4,23.2,4.6z M17.6,4.6c0.5,0.5,1.1,1.1,1.6,1.6
		c0.5-0.5,1.1-1.1,1.6-1.6c-0.5-0.5-1.1-1.1-1.6-1.6C18.7,3.5,18.1,4.1,17.6,4.6z"/>
	<path class="st1" d="M31.4,11.2c0.2,0.5-0.2,0.8-0.6,1.1c-1,0.6-1.8,1.5-2.4,2.5c-0.1,0.3-0.3,0.3-0.6,0.4
		c-0.8,0.1-1.4-0.1-1.8-0.9c-0.5-1-1.4-1.6-2.3-2.1c-0.3-0.1-0.4-0.3-0.4-0.6c-0.1-0.8,0.1-1.3,0.9-1.8c1-0.5,1.7-1.4,2.2-2.3
		c0.2-0.3,0.3-0.3,0.6-0.4c0.8-0.1,1.3,0.1,1.7,0.9c0.4,0.9,1.2,1.5,2,2C31.4,10.3,31.4,10.3,31.4,11.2z M27.3,12.7
		c0.5-0.5,1.1-1.1,1.6-1.6c-0.5-0.5-1.1-1.1-1.6-1.6c-0.5,0.5-1.1,1.1-1.6,1.6C26.2,11.6,26.8,12.2,27.3,12.7z"/>
</g>
</svg>
