<svg id="Layer_1" data-name="Layer 1" xmlns="http://www.w3.org/2000/svg" viewBox="0 0 48 48"><defs><style>.cls-1{fill:#fff;}</style></defs><path class="cls-1" d="M41.43,20h1.45a4,4,0,0,1,4,4q0,5.43,0,10.86A4,4,0,0,1,43,38.74c-.47,0-1,0-1.52,0,0,1.29,0,2.51,0,3.74a2.1,2.1,0,0,1-.29,1.08,1.29,1.29,0,0,1-2.09.06c-1.48-1.45-2.95-2.91-4.39-4.4a1.49,1.49,0,0,0-1.19-.48c-2.19,0-4.39,0-6.58,0a4,4,0,0,1-4.21-4.22c0-.35,0-.7,0-1.12-2.09,0-4.09,0-6.08,0-.21,0-.44.25-.62.42-2.33,2.32-4.64,4.67-7,7a2.22,2.22,0,0,1-1.36.57c-.7,0-1.12-.62-1.13-1.48,0-1.88,0-3.76,0-5.65V33.4H5.28a4,4,0,0,1-4.16-4.22q0-10.44,0-20.87A4.06,4.06,0,0,1,5.51,3.89H33.32c1.29,0,2.57,0,3.86,0a4.05,4.05,0,0,1,4.25,4.29c0,3.64,0,7.29,0,10.93ZM22.66,30.71v-.84c0-1.88,0-3.77,0-5.65A4,4,0,0,1,26.94,20H38.73c0-4.11,0-8.11,0-12.11,0-.83-.61-1.3-1.56-1.3H5.35A1.34,1.34,0,0,0,3.82,8.12q0,10.55,0,21.08a1.35,1.35,0,0,0,1.5,1.51c.78,0,1.57,0,2.36,0a1.32,1.32,0,0,1,1.47,1.45c0,1.07,0,2.14,0,3.21v1.45l.66-.63c1.55-1.55,3.11-3.08,4.64-4.65a2.44,2.44,0,0,1,2-.85c1.28.06,2.57,0,3.86,0Zm16.07,8.84V37.64a1.41,1.41,0,0,1,1.59-1.58h2.22c1.19,0,1.63-.45,1.63-1.64q0-5,0-10c0-1.29-.41-1.72-1.7-1.72H27c-1.25,0-1.7.46-1.7,1.74q0,5,0,9.94c0,1.22.46,1.69,1.67,1.69,2.41,0,4.82,0,7.22,0a2.23,2.23,0,0,1,1.78.73C36.84,37.67,37.72,38.53,38.73,39.55Z"/><path class="cls-1" d="M21.28,14.61H11.06c-.24,0-.48,0-.72,0a1.32,1.32,0,0,1,0-2.63A5.77,5.77,0,0,1,11,12H31.48c.21,0,.43,0,.64,0a1.32,1.32,0,0,1,0,2.64c-.21,0-.43,0-.64,0Z"/><path class="cls-1" d="M16,17.3c1.66,0,3.33,0,5,0,1,0,1.68.51,1.69,1.32S22,20,21,20q-5.1,0-10.2,0c-1,0-1.67-.55-1.66-1.36s.66-1.33,1.69-1.33C12.55,17.29,14.27,17.3,16,17.3Z"/><path class="cls-1" d="M14.54,25.34c-1.29,0-2.58,0-3.86,0a1.34,1.34,0,1,1,0-2.65h7.72A1.38,1.38,0,0,1,20,24c0,.81-.61,1.35-1.59,1.36Z"/><path class="cls-1" d="M33.34,30.21c1-1.05,2-2,2.92-2.94a1.4,1.4,0,0,1,2.07-.2,1.38,1.38,0,0,1-.15,2.08c-1.23,1.23-2.45,2.46-3.69,3.68a1.38,1.38,0,0,1-2.23,0c-.6-.59-1.19-1.17-1.77-1.77a1.33,1.33,0,0,1-.06-2,1.35,1.35,0,0,1,2,.09C32.71,29.48,33,29.81,33.34,30.21Z"/></svg>