<svg id="Layer_1" data-name="Layer 1" xmlns="http://www.w3.org/2000/svg" viewBox="0 0 48 48"><defs><style>.cls-1{fill:#fff;}</style></defs><path class="cls-1" d="M39.68,9.09H44c1.64,0,1.89.25,1.89,1.9V23.76c0,1.36-.33,1.69-1.71,1.69H39.73v3.1h4.59c1.22,0,1.59.35,1.59,1.57V42.51c0,.86,0,1.71,0,2.57s-.42,1.38-1.39,1.38H23.19c-1,0-1.42-.42-1.42-1.43q0-7.51,0-15c0-1.08.41-1.45,1.56-1.45h14v-3.1H23.52c-1.43,0-1.75-.32-1.75-1.73q0-6.46,0-12.92c0-1.38.33-1.71,1.7-1.71H37.28V4.49H10.1v2c0,2,0,4,0,6a.66.66,0,0,0,.56.76,7.38,7.38,0,0,1,3.71,12.21,1.61,1.61,0,0,0-.35,1c0,2.52,0,5,0,7.55,0,1.47-.68,1.92-2,1.38l-1.8-.71v4.81c.25,0,.52,0,.8,0h6.69a5.09,5.09,0,0,1,.78,0,1.06,1.06,0,0,1,1,1.1,1,1,0,0,1-1,1.17,14.66,14.66,0,0,1-1.63,0H9.38c-1.27,0-1.62-.36-1.63-1.63,0-1.79,0-3.58,0-5.37,0,0,0,0-.09-.16l-1.88.72c-1.19.45-1.89,0-1.9-1.26q0-3.75,0-7.48a1.93,1.93,0,0,0-.51-1.39A7.36,7.36,0,0,1,7,13.25a.8.8,0,0,0,.72-.95c0-2.85,0-5.71,0-8.56,0-1.31.35-1.65,1.67-1.65H38c1.37,0,1.69.33,1.69,1.72C39.69,5.51,39.68,7.22,39.68,9.09ZM24.15,23H43.51V11.49H24.15ZM43.56,31H24.11c0,1.26,0,2.45,0,3.64a1.26,1.26,0,0,0,.32.74c1.09,1.25,2.2,2.49,3.33,3.69a1.48,1.48,0,0,0,.93.4q5.15,0,10.27,0A1.44,1.44,0,0,0,39.9,39c1.14-1.2,2.24-2.44,3.34-3.69a1.19,1.19,0,0,0,.31-.67C43.58,33.46,43.56,32.24,43.56,31ZM14,20.35a5,5,0,1,0-5,5.08A5,5,0,0,0,14,20.35ZM24.14,44.06H43.51v-5.5c-.8.88-1.53,1.65-2.2,2.46a2.07,2.07,0,0,1-1.75.79q-5.72,0-11.43,0A2.07,2.07,0,0,1,26.37,41c-.68-.82-1.41-1.59-2.23-2.5ZM6.25,27.31v5.46a4.23,4.23,0,0,1,5.33,0V27.29A7.75,7.75,0,0,1,6.25,27.31Z"/><path class="cls-1" d="M15,11.65a8.73,8.73,0,0,1-.79-.63c-1.82-1.79-1.8-1.55,0-3.32.75-.75,1-.75,1.73,0l1,1a.85.85,0,0,1,0,1.36c-.41.4-.8.82-1.22,1.2A4.92,4.92,0,0,1,15,11.65Z"/><path class="cls-1" d="M33.92,18.43H40.3c.28,0,.65-.07.83.07A2.37,2.37,0,0,1,42,19.58a.94.94,0,0,1-.82,1.13,4.12,4.12,0,0,1-.93.07H27.46a5.09,5.09,0,0,1-.78,0,1.15,1.15,0,0,1,0-2.28,4,4,0,0,1,.78,0Z"/><path class="cls-1" d="M36.56,13.76c1.35,0,2.7,0,4,0,.91,0,1.42.47,1.4,1.2s-.52,1.13-1.39,1.13H32.52c-.9,0-1.41-.47-1.39-1.2s.52-1.12,1.39-1.13C33.87,13.75,35.21,13.76,36.56,13.76Z"/><path class="cls-1" d="M30,14.8a6.32,6.32,0,0,1-.42.66c-.39.43-.8.82-1.21,1.22a.84.84,0,0,1-1.35,0c-.38-.39-.76-.78-1.15-1.16a.84.84,0,0,1,0-1.35l1.21-1.21a.82.82,0,0,1,1.29,0c.42.42.85.84,1.26,1.27A4.79,4.79,0,0,1,30,14.8Z"/><path class="cls-1" d="M33.91,33.08a3.64,3.64,0,0,1,.55.33c.43.4.85.83,1.27,1.26a.79.79,0,0,1,0,1.23q-.65.68-1.32,1.32a.79.79,0,0,1-1.23,0,12.61,12.61,0,0,1-1.3-1.34c-.18-.22-.3-.73-.17-.89a22.34,22.34,0,0,1,1.73-1.78C33.55,33.13,33.71,33.13,33.91,33.08Z"/><path class="cls-1" d="M11.16,20.46a2.92,2.92,0,0,1-.34.55c-.41.44-.84.85-1.26,1.27a.8.8,0,0,1-1.24,0Q7.65,21.67,7,21a.78.78,0,0,1,0-1.18,12.75,12.75,0,0,1,1.39-1.36c.22-.17.73-.28.89-.15A20.65,20.65,0,0,1,11,20C11.1,20.11,11.1,20.27,11.16,20.46Z"/></svg>