<?xml version="1.0" encoding="utf-8"?>
<!-- Generator: Adobe Illustrator 25.2.0, SVG Export Plug-In . SVG Version: 6.00 Build 0)  -->
<svg version="1.1" id="Layer_1" xmlns="http://www.w3.org/2000/svg" xmlns:xlink="http://www.w3.org/1999/xlink" x="0px" y="0px"
	 viewBox="0 0 48 48" style="enable-background:new 0 0 48 48;" xml:space="preserve">
<style type="text/css">
	.st0{fill:#FFFFFF;}
</style>
<path class="st0" d="M44.1,38.8h2.6v8h-8v-2.7H28v2.6h-8v-2.6H9.2v2.6H1.3v-8h2.6V28H1.3v-8h2.6V9.3H1.3v-8h8v2.6H20V1.3h8v2.6h10.8
	V1.3h8v8h-2.7V20h2.6v8h-2.6V38.8z M9.2,20v8H6.7v10.8h2.6v2.6H20v-2.6h8v2.5h10.8v-2.6h2.6V28h-2.6v-8h2.5V9.2h-2.6V6.7H28v2.5h-8
	V6.7H9.2v2.6H6.6V20H9.2z M4,6.5h2.6V4H4V6.5z M44,4h-2.5v2.5H44V4z M4,25.2h2.5v-2.5H4V25.2z M44,22.7h-2.5v2.5H44V22.7z M4,41.5
	V44h2.6v-2.5H4z M41.4,44H44v-2.5h-2.6V44z M22.8,4v2.5h2.5V4H22.8z M22.8,41.5V44h2.5v-2.5L22.8,41.5z M27.4,12.5v9.7H34
	c0,0.3,0,0.5,0,0.7c0,2.4,0,4.8,0,7.2c0,0.3-0.2,0.7-0.4,0.9c-1.4,1.4-2.9,2.8-4.3,4.2c-0.2,0.2-0.4,0.3-0.6,0.3
	c-4.8,0-9.7,0-14.6,0c0-0.3,0-0.5,0-0.8c0-5.4,0-10.9,0-16.3c0-0.4,0.2-0.8,0.4-1.1c1.4-1.5,3-3,4.5-4.5c0.2-0.2,0.4-0.3,0.7-0.4
	C22.2,12.4,24.8,12.4,27.4,12.5L27.4,12.5z M24.7,24.9v-9.8h-4.2c-0.1,0-0.1,0-0.2,0.1c-0.8,0.8-1.6,1.7-2.6,2.6H22v9.8h6.7v4.3
	l0.2,0.1c0.3-0.4,0.6-0.8,1-1.1c1.1-0.7,1.7-2,1.4-3.4c-0.1-0.9-0.1-1.8,0-2.7H24.7z M16.7,32.9H26v-2.7h-6.7v-9.7h-2.6L16.7,32.9z"
	/>
</svg>
