<svg id="Layer_1" data-name="Layer 1" xmlns="http://www.w3.org/2000/svg" viewBox="0 0 48 48"><defs><style>.cls-1{fill:#fff;}</style></defs><path class="cls-1" d="M29.2,28H24.8c-.2,0-.4.2-.6.3a3.63,3.63,0,0,1-4.8,1.1l-3.6-1.8c-.1-.1-.2-.1-.5-.2v14.3c0,1.3-.4,1.8-1.8,1.8H6c-1.4,0-1.8-.4-1.8-1.8v-6.3a.75.75,0,0,0-.5-.8,4,4,0,0,1-2.3-3.7v-4.4a8.15,8.15,0,0,1,3.8-6.8c.1-.1.3-.2.4-.3a6.46,6.46,0,0,1-2.1-5.2,6,6,0,0,1,2-4.1,6.28,6.28,0,0,1,8.4-.2c2.7,2.3,2.9,5.6.6,9.2,1.3.6,2.6,1.3,3.9,2V8.91c0-3.1,1.7-4.7,4.7-4.7H41.9c3,0,4.7,1.7,4.7,4.7v14.7c0,2.9-1.7,4.5-4.6,4.6H35.7a6.89,6.89,0,0,0,.3.8c1.5,4.1,3,8.3,4.6,12.4.1.3.2.5.3.8a1.23,1.23,0,0,1-.8,1.4,1.38,1.38,0,0,1-1.6-.4,3.55,3.55,0,0,1-.4-.9c-1.7-4.5-3.3-9-5-13.5-.1-.4-.2-.7-.7-.7s-.5.4-.7.7c-1.6,4.5-3.3,9-4.9,13.6-.1.2-.1.4-.2.6a1.29,1.29,0,0,1-1.6.7,1.27,1.27,0,0,1-.8-1.6c.2-.7.5-1.4.7-2.1,1.3-3.7,2.7-7.3,4-11C29,28.71,29.1,28.41,29.2,28Zm-6.3-4.9.3-.6c.8-1.6,1.6-3.2,2.4-4.7a1.35,1.35,0,0,1,1.5-.9c1,.1,1.4,1.1.9,2.1-.9,1.9-1.9,3.8-2.8,5.7a4.88,4.88,0,0,0-.3.7H42.3c1.2,0,1.7-.6,1.7-1.8V8.71c0-1.4-.5-1.9-1.9-1.9h-19c-1.5,0-2,.5-2,1.9,0,4,.1,7.9,0,11.9C21,22,21.3,22.91,22.9,23.11ZM12.8,41V25.81c0-1.6.9-2.2,2.3-1.5,1.7.9,3.4,1.7,5.2,2.6.2.1.3.2.5.2a1,1,0,0,0,1.4-.4c.2-.6-.1-.9-.6-1.2-2.4-1.2-4.9-2.4-7.2-3.6A8,8,0,0,0,9.6,21a5.78,5.78,0,0,0-5.4,5.7v4.2a1.48,1.48,0,0,0,1.4,1.6c1.1.2,1.5.6,1.5,1.7V41Zm.7-26.3a3.6,3.6,0,1,0-3.6,3.6A3.72,3.72,0,0,0,13.5,14.71Z"/><path class="cls-1" d="M32.4,12.51H25.6c-1,0-1.6-.5-1.6-1.3s.6-1.3,1.6-1.3H39.2a1.47,1.47,0,0,1,1.6,1.2c.1.8-.6,1.4-1.5,1.4Z"/><path class="cls-1" d="M36,17.41H32.7a1.32,1.32,0,0,1-1.5-1.3,1.39,1.39,0,0,1,1.5-1.4h6.7A1.38,1.38,0,0,1,40.9,16a1.32,1.32,0,0,1-1.5,1.3C38.3,17.41,37.2,17.41,36,17.41Z"/><path class="cls-1" d="M36,22.41H32.6a1.37,1.37,0,0,1-1.5-1.3,1.31,1.31,0,0,1,1.4-1.4h6.8A1.29,1.29,0,0,1,40.7,21a1.32,1.32,0,0,1-1.5,1.3A31.12,31.12,0,0,1,36,22.41Z"/></svg>