<svg id="Layer_1" data-name="Layer 1" xmlns="http://www.w3.org/2000/svg" viewBox="0 0 48 48"><defs><style>.cls-1{fill:#fff;}</style></defs><path class="cls-1" d="M24.07,1H42.51A4.07,4.07,0,0,1,47,5.48v37A4.07,4.07,0,0,1,42.52,47h-37A4.07,4.07,0,0,1,1,42.52v-37A4.07,4.07,0,0,1,5.48,1ZM3.74,9.58V42.5c0,1.35.41,1.76,1.74,1.76h37c1.34,0,1.75-.41,1.75-1.75V10.36c0-.25,0-.5,0-.78ZM44.26,6.84V5.78c0-1.74-.3-2-2-2H5.71a6.91,6.91,0,0,0-.79,0,1.17,1.17,0,0,0-1.12,1,16.75,16.75,0,0,0,0,2.13Z"/><path class="cls-1" d="M24,35.39H10.81C9.43,35.38,9,35,9,33.58V14.43c0-1.43.39-1.82,1.84-1.82H37.12c1.48,0,1.85.39,1.85,1.88V33.57c0,1.42-.39,1.81-1.84,1.82Zm12.26-20H11.76v11.3L17,21.89c1-.89,1.5-.9,2.48-.05l4.55,4a6,6,0,0,1,.49-.66l6.24-6.24a1.38,1.38,0,0,1,2.24,0c.34.36.67.75,1,1.12l2.27,2.55Zm-4.51,6.23a8.31,8.31,0,0,1-.51.67l-6,6c-.92.91-1.49.93-2.47.08l-4.44-3.88c-.09,0-.12,0-.13,0l-6.28,5.68a.71.71,0,0,0-.23.42c0,.68,0,1.37,0,2.09H36.3c0-1.93,0-3.8,0-5.66a.86.86,0,0,0-.18-.52C34.7,24.87,33.29,23.29,31.76,21.58Z"/><path class="cls-1" d="M11.79,38.56a8.37,8.37,0,0,1,.67-.58,1.36,1.36,0,0,1,1.71.14,1.29,1.29,0,0,1,.16,1.7,16.43,16.43,0,0,1-1.77,1.77,1.26,1.26,0,0,1-1.7-.13c-.48-.43-.93-.89-1.37-1.36a1.36,1.36,0,0,1-.07-2,1.38,1.38,0,0,1,1.94,0Z"/><path class="cls-1" d="M20.45,41.12c-.52,0-1.05,0-1.57,0a1.28,1.28,0,0,1-1.23-1.31,1.26,1.26,0,0,1,1.22-1.33c1,0,2.05,0,3.07,0a1.28,1.28,0,0,1,1.24,1.32A1.32,1.32,0,0,1,22,41.12h-1.5Z"/><path class="cls-1" d="M29,41.12c-.47,0-.95,0-1.43,0a1.3,1.3,0,0,1-1.31-1.31,1.27,1.27,0,0,1,1.28-1.34c1,0,2,0,2.93,0a1.33,1.33,0,0,1,0,2.66C30,41.15,29.5,41.12,29,41.12Z"/></svg>